<svg xmlns="http://www.w3.org/2000/svg" xmlns:xlink="http://www.w3.org/1999/xlink" contentStyleType="text/css" height="1027.5px" preserveAspectRatio="none" style="width:972px;height:1027px;background:#FFFFFF;" version="1.1" viewBox="0 0 972 1027" width="972px" zoomAndPan="magnify"><defs/><g><!--class App--><g id="elem_App"><rect codeLine="31" fill="#F1F1F1" height="42.6211" id="App" rx="1.25" ry="1.25" style="stroke:#181818;stroke-width:0.25;" width="53.8481" x="474" y="22.25"/><ellipse cx="492.9269" cy="30.25" fill="#ADD1B2" rx="5.5" ry="5.5" style="stroke:#181818;stroke-width:0.5;"/><path d="M494.3097,28.1875 Q494.3878,28.0781 494.4816,28.0234 Q494.5753,27.9688 494.6847,27.9688 Q494.8722,27.9688 494.9894,28.1016 Q495.1066,28.2266 495.1066,28.5313 L495.1066,29.2578 Q495.1066,29.5625 494.9894,29.6953 Q494.8722,29.8281 494.6847,29.8281 Q494.5128,29.8281 494.4113,29.7266 Q494.3097,29.6328 494.255,29.375 Q494.2316,29.1953 494.1378,29.1016 Q493.9738,28.9141 493.6691,28.8047 Q493.3644,28.6953 493.0519,28.6953 Q492.6691,28.6953 492.3488,28.8594 Q492.0363,29.0234 491.7863,29.3984 Q491.5441,29.7734 491.5441,30.2891 L491.5441,30.8359 Q491.5441,31.4531 491.9894,31.8672 Q492.4347,32.2734 493.2316,32.2734 Q493.7003,32.2734 494.0284,32.1484 Q494.2238,32.0703 494.4347,31.8516 Q494.5675,31.7188 494.6378,31.6797 Q494.7159,31.6406 494.8175,31.6406 Q494.9816,31.6406 495.1066,31.7734 Q495.2394,31.8984 495.2394,32.0703 Q495.2394,32.2422 495.0675,32.4453 Q494.8175,32.7344 494.4191,32.8984 Q493.88,33.125 493.2316,33.125 Q492.4738,33.125 491.8722,32.8125 Q491.38,32.5625 491.0363,32.0313 Q490.6925,31.4922 490.6925,30.8516 L490.6925,30.2734 Q490.6925,29.6094 490.9972,29.0391 Q491.3097,28.4609 491.8566,28.1563 Q492.4034,27.8438 493.0206,27.8438 Q493.3878,27.8438 493.7081,27.9297 Q494.0363,28.0078 494.3097,28.1875 Z " fill="#000000"/><text fill="#000000" font-family="sans-serif" font-size="7" lengthAdjust="spacing" textLength="12.4551" x="502.4662" y="33.1484">App</text><line style="stroke:#181818;stroke-width:0.25;" x1="474.5" x2="527.3481" y1="38.25" y2="38.25"/><line style="stroke:#181818;stroke-width:0.25;" x1="474.5" x2="527.3481" y1="42.25" y2="42.25"/><ellipse cx="479.5" cy="49.6553" fill="#84BE84" rx="1.5" ry="1.5" style="stroke:#038048;stroke-width:0.5;"/><text fill="#000000" font-family="sans-serif" font-size="7" lengthAdjust="spacing" textLength="40.8481" x="484" y="51.8037">inicialitation()</text><ellipse cx="479.5" cy="58.9658" fill="#84BE84" rx="1.5" ry="1.5" style="stroke:#038048;stroke-width:0.5;"/><text fill="#000000" font-family="sans-serif" font-size="7" lengthAdjust="spacing" textLength="19.8345" x="484" y="61.1143">main()</text></g><!--class I_O--><g id="elem_I_O"><rect codeLine="205" fill="#F1F1F1" height="89.1738" id="I_O" rx="1.25" ry="1.25" style="stroke:#181818;stroke-width:0.25;" width="140.9927" x="430.5" y="141.5"/><ellipse cx="493.23" cy="149.5" fill="#ADD1B2" rx="5.5" ry="5.5" style="stroke:#181818;stroke-width:0.5;"/><path d="M494.6128,147.4375 Q494.6909,147.3281 494.7847,147.2734 Q494.8784,147.2188 494.9878,147.2188 Q495.1753,147.2188 495.2925,147.3516 Q495.4097,147.4766 495.4097,147.7813 L495.4097,148.5078 Q495.4097,148.8125 495.2925,148.9453 Q495.1753,149.0781 494.9878,149.0781 Q494.8159,149.0781 494.7144,148.9766 Q494.6128,148.8828 494.5581,148.625 Q494.5347,148.4453 494.4409,148.3516 Q494.2769,148.1641 493.9722,148.0547 Q493.6675,147.9453 493.355,147.9453 Q492.9722,147.9453 492.6519,148.1094 Q492.3394,148.2734 492.0894,148.6484 Q491.8472,149.0234 491.8472,149.5391 L491.8472,150.0859 Q491.8472,150.7031 492.2925,151.1172 Q492.7378,151.5234 493.5347,151.5234 Q494.0034,151.5234 494.3315,151.3984 Q494.5269,151.3203 494.7378,151.1016 Q494.8706,150.9688 494.9409,150.9297 Q495.019,150.8906 495.1206,150.8906 Q495.2847,150.8906 495.4097,151.0234 Q495.5425,151.1484 495.5425,151.3203 Q495.5425,151.4922 495.3706,151.6953 Q495.1206,151.9844 494.7222,152.1484 Q494.1831,152.375 493.5347,152.375 Q492.7769,152.375 492.1753,152.0625 Q491.6831,151.8125 491.3394,151.2813 Q490.9956,150.7422 490.9956,150.1016 L490.9956,149.5234 Q490.9956,148.8594 491.3003,148.2891 Q491.6128,147.7109 492.1597,147.4063 Q492.7065,147.0938 493.3237,147.0938 Q493.6909,147.0938 494.0112,147.1797 Q494.3394,147.2578 494.6128,147.4375 Z " fill="#000000"/><text fill="#000000" font-family="sans-serif" font-size="7" lengthAdjust="spacing" textLength="11.2827" x="503.48" y="152.3984">I_O</text><line style="stroke:#181818;stroke-width:0.25;" x1="431" x2="570.9927" y1="157.5" y2="157.5"/><rect fill="none" height="3" style="stroke:#C82930;stroke-width:0.5;" width="3" x="434.5" y="163.4053"/><text fill="#000000" font-family="sans-serif" font-size="7" lengthAdjust="spacing" textLength="49.8032" x="440.5" y="167.0537">final Scanner sc</text><line style="stroke:#181818;stroke-width:0.25;" x1="431" x2="570.9927" y1="170.8105" y2="170.8105"/><ellipse cx="436" cy="178.2158" fill="#84BE84" rx="1.5" ry="1.5" style="stroke:#038048;stroke-width:0.5;"/><text fill="#000000" font-family="sans-serif" font-size="7" lengthAdjust="spacing" textLength="127.9927" x="440.5" y="180.3643">void initialUsers() throws ModelException</text><ellipse cx="436" cy="187.5264" fill="#84BE84" rx="1.5" ry="1.5" style="stroke:#038048;stroke-width:0.5;"/><text fill="#000000" font-family="sans-serif" font-size="7" lengthAdjust="spacing" textLength="33.062" x="440.5" y="189.6748">void start()</text><ellipse cx="436" cy="196.8369" fill="#84BE84" rx="1.5" ry="1.5" style="stroke:#038048;stroke-width:0.5;"/><text fill="#000000" font-family="sans-serif" font-size="7" lengthAdjust="spacing" textLength="49.0308" x="440.5" y="198.9854">boolean menu()</text><ellipse cx="436" cy="206.1475" fill="#84BE84" rx="1.5" ry="1.5" style="stroke:#038048;stroke-width:0.5;"/><text fill="#000000" font-family="sans-serif" font-size="7" lengthAdjust="spacing" textLength="101.165" x="440.5" y="208.2959">void menuAdmin(Authentication)</text><ellipse cx="436" cy="215.458" fill="#84BE84" rx="1.5" ry="1.5" style="stroke:#038048;stroke-width:0.5;"/><text fill="#000000" font-family="sans-serif" font-size="7" lengthAdjust="spacing" textLength="103.1099" x="440.5" y="217.6064">void menuPlayer(Authentication )</text><ellipse cx="436" cy="224.7686" fill="#84BE84" rx="1.5" ry="1.5" style="stroke:#038048;stroke-width:0.5;"/><text fill="#000000" font-family="sans-serif" font-size="7" lengthAdjust="spacing" textLength="119.0547" x="440.5" y="226.917">boolean reviewArguments(String[], int)</text></g><!--class TournamentsController--><g id="elem_TournamentsController"><rect codeLine="156" fill="#F1F1F1" height="145.0371" id="TournamentsController" rx="1.25" ry="1.25" style="stroke:#181818;stroke-width:0.25;" width="307.1401" x="3.5" y="319"/><ellipse cx="119.1521" cy="327" fill="#ADD1B2" rx="5.5" ry="5.5" style="stroke:#181818;stroke-width:0.5;"/><path d="M120.5349,324.9375 Q120.613,324.8281 120.7068,324.7734 Q120.8005,324.7188 120.9099,324.7188 Q121.0974,324.7188 121.2146,324.8516 Q121.3318,324.9766 121.3318,325.2813 L121.3318,326.0078 Q121.3318,326.3125 121.2146,326.4453 Q121.0974,326.5781 120.9099,326.5781 Q120.738,326.5781 120.6365,326.4766 Q120.5349,326.3828 120.4802,326.125 Q120.4568,325.9453 120.363,325.8516 Q120.199,325.6641 119.8943,325.5547 Q119.5896,325.4453 119.2771,325.4453 Q118.8943,325.4453 118.574,325.6094 Q118.2615,325.7734 118.0115,326.1484 Q117.7693,326.5234 117.7693,327.0391 L117.7693,327.5859 Q117.7693,328.2031 118.2146,328.6172 Q118.6599,329.0234 119.4568,329.0234 Q119.9255,329.0234 120.2537,328.8984 Q120.449,328.8203 120.6599,328.6016 Q120.7927,328.4688 120.863,328.4297 Q120.9412,328.3906 121.0427,328.3906 Q121.2068,328.3906 121.3318,328.5234 Q121.4646,328.6484 121.4646,328.8203 Q121.4646,328.9922 121.2927,329.1953 Q121.0427,329.4844 120.6443,329.6484 Q120.1052,329.875 119.4568,329.875 Q118.699,329.875 118.0974,329.5625 Q117.6052,329.3125 117.2615,328.7813 Q116.9177,328.2422 116.9177,327.6016 L116.9177,327.0234 Q116.9177,326.3594 117.2224,325.7891 Q117.5349,325.2109 118.0818,324.9063 Q118.6287,324.5938 119.2458,324.5938 Q119.613,324.5938 119.9333,324.6797 Q120.2615,324.7578 120.5349,324.9375 Z " fill="#000000"/><text fill="#000000" font-family="sans-serif" font-size="7" lengthAdjust="spacing" textLength="71.5859" x="129.4021" y="329.8984">TournamentsController</text><line style="stroke:#181818;stroke-width:0.25;" x1="4" x2="310.1401" y1="335" y2="335"/><rect fill="none" height="3" style="stroke:#C82930;stroke-width:0.5;" width="3" x="7.5" y="340.9053"/><text fill="#000000" font-family="sans-serif" font-size="7" lengthAdjust="spacing" textLength="121.0132" x="13.5" y="344.5537">TournamentsController uniqueInstance</text><rect fill="none" height="3" style="stroke:#C82930;stroke-width:0.5;" width="3" x="7.5" y="350.2158"/><text fill="#000000" font-family="sans-serif" font-size="7" lengthAdjust="spacing" textLength="114.3892" x="13.5" y="353.8643">ArrayList&lt;Tournament&gt; tournaments</text><line style="stroke:#181818;stroke-width:0.25;" x1="4" x2="310.1401" y1="357.6211" y2="357.6211"/><ellipse cx="9" cy="365.0264" fill="#84BE84" rx="1.5" ry="1.5" style="stroke:#038048;stroke-width:0.5;"/><text fill="#000000" font-family="sans-serif" font-size="7" lengthAdjust="spacing" textLength="76.248" x="13.5" y="367.1748">TournamentsController()</text><ellipse cx="9" cy="374.3369" fill="#84BE84" rx="1.5" ry="1.5" style="stroke:#038048;stroke-width:0.5;"/><text fill="#000000" font-family="sans-serif" font-size="7" lengthAdjust="spacing" textLength="114.3857" x="13.5" y="376.4854">TournamentsController getInstance()</text><ellipse cx="9" cy="383.6475" fill="#84BE84" rx="1.5" ry="1.5" style="stroke:#038048;stroke-width:0.5;"/><text fill="#000000" font-family="sans-serif" font-size="7" lengthAdjust="spacing" textLength="106.6201" x="13.5" y="385.7959">boolean deleteTournament(String)</text><ellipse cx="9" cy="392.958" fill="#84BE84" rx="1.5" ry="1.5" style="stroke:#038048;stroke-width:0.5;"/><text fill="#000000" font-family="sans-serif" font-size="7" lengthAdjust="spacing" textLength="105.8408" x="13.5" y="395.1064">boolean deletePastTournaments()</text><ellipse cx="9" cy="402.2686" fill="#84BE84" rx="1.5" ry="1.5" style="stroke:#038048;stroke-width:0.5;"/><text fill="#000000" font-family="sans-serif" font-size="7" lengthAdjust="spacing" textLength="115.5479" x="13.5" y="404.417">Tournament isParticipant(Participant)</text><ellipse cx="9" cy="411.5791" fill="#84BE84" rx="1.5" ry="1.5" style="stroke:#038048;stroke-width:0.5;"/><text fill="#000000" font-family="sans-serif" font-size="7" lengthAdjust="spacing" textLength="108.1514" x="13.5" y="413.7275">String listTournaments(String type)</text><ellipse cx="9" cy="420.8896" fill="#84BE84" rx="1.5" ry="1.5" style="stroke:#038048;stroke-width:0.5;"/><text fill="#000000" font-family="sans-serif" font-size="7" lengthAdjust="spacing" textLength="294.1401" x="13.5" y="423.0381">boolean createTournament(String, String, String, String, String , String) throws ModelException</text><ellipse cx="9" cy="430.2002" fill="#84BE84" rx="1.5" ry="1.5" style="stroke:#038048;stroke-width:0.5;"/><text fill="#000000" font-family="sans-serif" font-size="7" lengthAdjust="spacing" textLength="180.9165" x="13.5" y="432.3486">boolean tournamentMatchmakingM(String , String , String)</text><ellipse cx="9" cy="439.5107" fill="#84BE84" rx="1.5" ry="1.5" style="stroke:#038048;stroke-width:0.5;"/><text fill="#000000" font-family="sans-serif" font-size="7" lengthAdjust="spacing" textLength="131.5132" x="13.5" y="441.6592">boolean tournamentMatchmakingA(String)</text><ellipse cx="9" cy="448.8213" fill="#84BE84" rx="1.5" ry="1.5" style="stroke:#038048;stroke-width:0.5;"/><text fill="#000000" font-family="sans-serif" font-size="7" lengthAdjust="spacing" textLength="119.8477" x="13.5" y="450.9697">boolean tournamentAdd(String, String)</text><ellipse cx="9" cy="458.1318" fill="#84BE84" rx="1.5" ry="1.5" style="stroke:#038048;stroke-width:0.5;"/><text fill="#000000" font-family="sans-serif" font-size="7" lengthAdjust="spacing" textLength="133.458" x="13.5" y="460.2803">boolean tournamentRemove(String, String)</text></g><!--class TeamsController--><g id="elem_TeamsController"><rect codeLine="172" fill="#F1F1F1" height="107.7949" id="TeamsController" rx="1.25" ry="1.25" style="stroke:#181818;stroke-width:0.25;" width="198.1992" x="328" y="337.5"/><ellipse cx="399.1057" cy="345.5" fill="#ADD1B2" rx="5.5" ry="5.5" style="stroke:#181818;stroke-width:0.5;"/><path d="M400.4885,343.4375 Q400.5667,343.3281 400.6604,343.2734 Q400.7542,343.2188 400.8635,343.2188 Q401.051,343.2188 401.1682,343.3516 Q401.2854,343.4766 401.2854,343.7813 L401.2854,344.5078 Q401.2854,344.8125 401.1682,344.9453 Q401.051,345.0781 400.8635,345.0781 Q400.6917,345.0781 400.5901,344.9766 Q400.4885,344.8828 400.4338,344.625 Q400.4104,344.4453 400.3167,344.3516 Q400.1526,344.1641 399.8479,344.0547 Q399.5432,343.9453 399.2307,343.9453 Q398.8479,343.9453 398.5276,344.1094 Q398.2151,344.2734 397.9651,344.6484 Q397.7229,345.0234 397.7229,345.5391 L397.7229,346.0859 Q397.7229,346.7031 398.1682,347.1172 Q398.6135,347.5234 399.4104,347.5234 Q399.8792,347.5234 400.2073,347.3984 Q400.4026,347.3203 400.6135,347.1016 Q400.7463,346.9688 400.8167,346.9297 Q400.8948,346.8906 400.9963,346.8906 Q401.1604,346.8906 401.2854,347.0234 Q401.4182,347.1484 401.4182,347.3203 Q401.4182,347.4922 401.2463,347.6953 Q400.9963,347.9844 400.5979,348.1484 Q400.0588,348.375 399.4104,348.375 Q398.6526,348.375 398.051,348.0625 Q397.5588,347.8125 397.2151,347.2813 Q396.8713,346.7422 396.8713,346.1016 L396.8713,345.5234 Q396.8713,344.8594 397.176,344.2891 Q397.4885,343.7109 398.0354,343.4063 Q398.5823,343.0938 399.1995,343.0938 Q399.5667,343.0938 399.887,343.1797 Q400.2151,343.2578 400.4885,343.4375 Z " fill="#000000"/><text fill="#000000" font-family="sans-serif" font-size="7" lengthAdjust="spacing" textLength="51.7378" x="409.3557" y="348.3984">TeamsController</text><line style="stroke:#181818;stroke-width:0.25;" x1="328.5" x2="525.6992" y1="353.5" y2="353.5"/><rect fill="none" height="3" style="stroke:#C82930;stroke-width:0.5;" width="3" x="332" y="359.4053"/><text fill="#000000" font-family="sans-serif" font-size="7" lengthAdjust="spacing" textLength="101.165" x="338" y="363.0537">TeamsController uniqueInstance</text><rect fill="none" height="3" style="stroke:#C82930;stroke-width:0.5;" width="3" x="332" y="368.7158"/><text fill="#000000" font-family="sans-serif" font-size="7" lengthAdjust="spacing" textLength="74.6929" x="338" y="372.3643">ArrayList&lt;Team&gt; teams</text><line style="stroke:#181818;stroke-width:0.25;" x1="328.5" x2="525.6992" y1="376.1211" y2="376.1211"/><ellipse cx="333.5" cy="383.5264" fill="#84BE84" rx="1.5" ry="1.5" style="stroke:#038048;stroke-width:0.5;"/><text fill="#000000" font-family="sans-serif" font-size="7" lengthAdjust="spacing" textLength="56.3999" x="338" y="385.6748">TeamsController()</text><ellipse cx="333.5" cy="392.8369" fill="#84BE84" rx="1.5" ry="1.5" style="stroke:#038048;stroke-width:0.5;"/><text fill="#000000" font-family="sans-serif" font-size="7" lengthAdjust="spacing" textLength="94.5376" x="338" y="394.9854">TeamsController getInstance()</text><ellipse cx="333.5" cy="402.1475" fill="#84BE84" rx="1.5" ry="1.5" style="stroke:#038048;stroke-width:0.5;"/><text fill="#000000" font-family="sans-serif" font-size="7" lengthAdjust="spacing" textLength="185.1992" x="338" y="404.2959">boolean createTeam(String, Admin) throws ModelException</text><ellipse cx="333.5" cy="411.458" fill="#84BE84" rx="1.5" ry="1.5" style="stroke:#038048;stroke-width:0.5;"/><text fill="#000000" font-family="sans-serif" font-size="7" lengthAdjust="spacing" textLength="86.772" x="338" y="413.6064">boolean deleteTeam(String)</text><ellipse cx="333.5" cy="420.7686" fill="#84BE84" rx="1.5" ry="1.5" style="stroke:#038048;stroke-width:0.5;"/><text fill="#000000" font-family="sans-serif" font-size="7" lengthAdjust="spacing" textLength="71.5723" x="338" y="422.917">Team isInTeam(String)</text><ellipse cx="333.5" cy="430.0791" fill="#84BE84" rx="1.5" ry="1.5" style="stroke:#038048;stroke-width:0.5;"/><text fill="#000000" font-family="sans-serif" font-size="7" lengthAdjust="spacing" textLength="99.9995" x="338" y="432.2275">boolean teamAdd(String, String)</text><ellipse cx="333.5" cy="439.3896" fill="#84BE84" rx="1.5" ry="1.5" style="stroke:#038048;stroke-width:0.5;"/><text fill="#000000" font-family="sans-serif" font-size="7" lengthAdjust="spacing" textLength="113.6099" x="338" y="441.5381">boolean teamRemove(String, String)</text></g><!--class PlayersController--><g id="elem_PlayersController"><rect codeLine="128" fill="#F1F1F1" height="107.7949" id="PlayersController" rx="1.25" ry="1.25" style="stroke:#181818;stroke-width:0.25;" width="288.8506" x="543.5" y="337.5"/><ellipse cx="658.9573" cy="345.5" fill="#ADD1B2" rx="5.5" ry="5.5" style="stroke:#181818;stroke-width:0.5;"/><path d="M660.3401,343.4375 Q660.4182,343.3281 660.512,343.2734 Q660.6057,343.2188 660.7151,343.2188 Q660.9026,343.2188 661.0198,343.3516 Q661.137,343.4766 661.137,343.7813 L661.137,344.5078 Q661.137,344.8125 661.0198,344.9453 Q660.9026,345.0781 660.7151,345.0781 Q660.5432,345.0781 660.4417,344.9766 Q660.3401,344.8828 660.2854,344.625 Q660.262,344.4453 660.1682,344.3516 Q660.0042,344.1641 659.6995,344.0547 Q659.3948,343.9453 659.0823,343.9453 Q658.6995,343.9453 658.3792,344.1094 Q658.0667,344.2734 657.8167,344.6484 Q657.5745,345.0234 657.5745,345.5391 L657.5745,346.0859 Q657.5745,346.7031 658.0198,347.1172 Q658.4651,347.5234 659.262,347.5234 Q659.7307,347.5234 660.0588,347.3984 Q660.2542,347.3203 660.4651,347.1016 Q660.5979,346.9688 660.6682,346.9297 Q660.7463,346.8906 660.8479,346.8906 Q661.012,346.8906 661.137,347.0234 Q661.2698,347.1484 661.2698,347.3203 Q661.2698,347.4922 661.0979,347.6953 Q660.8479,347.9844 660.4495,348.1484 Q659.9104,348.375 659.262,348.375 Q658.5042,348.375 657.9026,348.0625 Q657.4104,347.8125 657.0667,347.2813 Q656.7229,346.7422 656.7229,346.1016 L656.7229,345.5234 Q656.7229,344.8594 657.0276,344.2891 Q657.3401,343.7109 657.887,343.4063 Q658.4338,343.0938 659.051,343.0938 Q659.4182,343.0938 659.7385,343.1797 Q660.0667,343.2578 660.3401,343.4375 Z " fill="#000000"/><text fill="#000000" font-family="sans-serif" font-size="7" lengthAdjust="spacing" textLength="53.686" x="669.2073" y="348.3984">PlayersController</text><line style="stroke:#181818;stroke-width:0.25;" x1="544" x2="831.8506" y1="353.5" y2="353.5"/><rect fill="none" height="3" style="stroke:#C82930;stroke-width:0.5;" width="3" x="547.5" y="359.4053"/><text fill="#000000" font-family="sans-serif" font-size="7" lengthAdjust="spacing" textLength="103.1133" x="553.5" y="363.0537">PlayersController uniqueInstance</text><rect fill="none" height="3" style="stroke:#C82930;stroke-width:0.5;" width="3" x="547.5" y="368.7158"/><text fill="#000000" font-family="sans-serif" font-size="7" lengthAdjust="spacing" textLength="80.1445" x="553.5" y="372.3643">ArrayList&lt;Player&gt; players</text><line style="stroke:#181818;stroke-width:0.25;" x1="544" x2="831.8506" y1="376.1211" y2="376.1211"/><ellipse cx="549" cy="383.5264" fill="#84BE84" rx="1.5" ry="1.5" style="stroke:#038048;stroke-width:0.5;"/><text fill="#000000" font-family="sans-serif" font-size="7" lengthAdjust="spacing" textLength="58.3481" x="553.5" y="385.6748">PlayersController()</text><ellipse cx="549" cy="392.8369" fill="#84BE84" rx="1.5" ry="1.5" style="stroke:#038048;stroke-width:0.5;"/><text fill="#000000" font-family="sans-serif" font-size="7" lengthAdjust="spacing" textLength="96.4858" x="553.5" y="394.9854">PlayersController getInstance()</text><ellipse cx="549" cy="402.1475" fill="#84BE84" rx="1.5" ry="1.5" style="stroke:#038048;stroke-width:0.5;"/><text fill="#000000" font-family="sans-serif" font-size="7" lengthAdjust="spacing" textLength="74.3066" x="553.5" y="404.2959">Player getPlayer(String)</text><ellipse cx="549" cy="411.458" fill="#84BE84" rx="1.5" ry="1.5" style="stroke:#038048;stroke-width:0.5;"/><text fill="#000000" font-family="sans-serif" font-size="7" lengthAdjust="spacing" textLength="275.8506" x="553.5" y="413.6064">boolean createPlayer(String, String, String, String, String, Admin) throws ModelException</text><ellipse cx="549" cy="420.7686" fill="#84BE84" rx="1.5" ry="1.5" style="stroke:#038048;stroke-width:0.5;"/><text fill="#000000" font-family="sans-serif" font-size="7" lengthAdjust="spacing" textLength="88.7202" x="553.5" y="422.917">boolean deletePlayer(String)</text><ellipse cx="549" cy="430.0791" fill="#84BE84" rx="1.5" ry="1.5" style="stroke:#038048;stroke-width:0.5;"/><text fill="#000000" font-family="sans-serif" font-size="7" lengthAdjust="spacing" textLength="128.0269" x="553.5" y="432.2275">boolean addPoints(String, String, double)</text><ellipse cx="549" cy="439.3896" fill="#84BE84" rx="1.5" ry="1.5" style="stroke:#038048;stroke-width:0.5;"/><text fill="#000000" font-family="sans-serif" font-size="7" lengthAdjust="spacing" textLength="94.1548" x="553.5" y="441.5381">boolean statisticsShow(String)</text></g><!--class AdminsController--><g id="elem_AdminsController"><rect codeLine="119" fill="#F1F1F1" height="79.8633" id="AdminsController" rx="1.25" ry="1.25" style="stroke:#181818;stroke-width:0.25;" width="116.1133" x="850" y="351.5"/><ellipse cx="879.0886" cy="359.5" fill="#ADD1B2" rx="5.5" ry="5.5" style="stroke:#181818;stroke-width:0.5;"/><path d="M880.4714,357.4375 Q880.5496,357.3281 880.6433,357.2734 Q880.7371,357.2188 880.8464,357.2188 Q881.0339,357.2188 881.1511,357.3516 Q881.2683,357.4766 881.2683,357.7813 L881.2683,358.5078 Q881.2683,358.8125 881.1511,358.9453 Q881.0339,359.0781 880.8464,359.0781 Q880.6746,359.0781 880.573,358.9766 Q880.4714,358.8828 880.4167,358.625 Q880.3933,358.4453 880.2996,358.3516 Q880.1355,358.1641 879.8308,358.0547 Q879.5261,357.9453 879.2136,357.9453 Q878.8308,357.9453 878.5105,358.1094 Q878.198,358.2734 877.948,358.6484 Q877.7058,359.0234 877.7058,359.5391 L877.7058,360.0859 Q877.7058,360.7031 878.1511,361.1172 Q878.5964,361.5234 879.3933,361.5234 Q879.8621,361.5234 880.1902,361.3984 Q880.3855,361.3203 880.5964,361.1016 Q880.7292,360.9688 880.7996,360.9297 Q880.8777,360.8906 880.9792,360.8906 Q881.1433,360.8906 881.2683,361.0234 Q881.4011,361.1484 881.4011,361.3203 Q881.4011,361.4922 881.2292,361.6953 Q880.9792,361.9844 880.5808,362.1484 Q880.0417,362.375 879.3933,362.375 Q878.6355,362.375 878.0339,362.0625 Q877.5417,361.8125 877.198,361.2813 Q876.8542,360.7422 876.8542,360.1016 L876.8542,359.5234 Q876.8542,358.8594 877.1589,358.2891 Q877.4714,357.7109 878.0183,357.4063 Q878.5652,357.0938 879.1824,357.0938 Q879.5496,357.0938 879.8699,357.1797 Q880.198,357.2578 880.4714,357.4375 Z " fill="#000000"/><text fill="#000000" font-family="sans-serif" font-size="7" lengthAdjust="spacing" textLength="53.686" x="889.3386" y="362.3984">AdminsController</text><line style="stroke:#181818;stroke-width:0.25;" x1="850.5" x2="965.6133" y1="367.5" y2="367.5"/><rect fill="none" height="3" style="stroke:#C82930;stroke-width:0.5;" width="3" x="854" y="373.4053"/><text fill="#000000" font-family="sans-serif" font-size="7" lengthAdjust="spacing" textLength="103.1133" x="860" y="377.0537">AdminsController uniqueInstance</text><rect fill="none" height="3" style="stroke:#C82930;stroke-width:0.5;" width="3" x="854" y="382.7158"/><text fill="#000000" font-family="sans-serif" font-size="7" lengthAdjust="spacing" textLength="80.1445" x="860" y="386.3643">ArrayList&lt;Admin&gt; admins</text><line style="stroke:#181818;stroke-width:0.25;" x1="850.5" x2="965.6133" y1="390.1211" y2="390.1211"/><ellipse cx="855.5" cy="397.5264" fill="#84BE84" rx="1.5" ry="1.5" style="stroke:#038048;stroke-width:0.5;"/><text fill="#000000" font-family="sans-serif" font-size="7" lengthAdjust="spacing" textLength="58.3481" x="860" y="399.6748">AdminsController()</text><ellipse cx="855.5" cy="406.8369" fill="#84BE84" rx="1.5" ry="1.5" style="stroke:#038048;stroke-width:0.5;"/><text fill="#000000" font-family="sans-serif" font-size="7" lengthAdjust="spacing" textLength="74.3066" x="860" y="408.9854">Admin getAdmin(String)</text><ellipse cx="855.5" cy="416.1475" fill="#84BE84" rx="1.5" ry="1.5" style="stroke:#038048;stroke-width:0.5;"/><text fill="#000000" font-family="sans-serif" font-size="7" lengthAdjust="spacing" textLength="96.4858" x="860" y="418.2959">AdminsController getInstance()</text><ellipse cx="855.5" cy="425.458" fill="#84BE84" rx="1.5" ry="1.5" style="stroke:#038048;stroke-width:0.5;"/><text fill="#000000" font-family="sans-serif" font-size="7" lengthAdjust="spacing" textLength="91.8203" x="860" y="427.6064">void addAdmin(Admin admin)</text></g><!--class Authentication--><g id="elem_Authentication"><rect codeLine="140" fill="#F1F1F1" height="145.0371" id="Authentication" rx="1.25" ry="1.25" style="stroke:#181818;stroke-width:0.25;" width="106.7925" x="589" y="113.5"/><ellipse cx="618.0886" cy="121.5" fill="#ADD1B2" rx="5.5" ry="5.5" style="stroke:#181818;stroke-width:0.5;"/><path d="M619.4714,119.4375 Q619.5496,119.3281 619.6433,119.2734 Q619.7371,119.2188 619.8464,119.2188 Q620.0339,119.2188 620.1511,119.3516 Q620.2683,119.4766 620.2683,119.7813 L620.2683,120.5078 Q620.2683,120.8125 620.1511,120.9453 Q620.0339,121.0781 619.8464,121.0781 Q619.6746,121.0781 619.573,120.9766 Q619.4714,120.8828 619.4167,120.625 Q619.3933,120.4453 619.2996,120.3516 Q619.1355,120.1641 618.8308,120.0547 Q618.5261,119.9453 618.2136,119.9453 Q617.8308,119.9453 617.5105,120.1094 Q617.198,120.2734 616.948,120.6484 Q616.7058,121.0234 616.7058,121.5391 L616.7058,122.0859 Q616.7058,122.7031 617.1511,123.1172 Q617.5964,123.5234 618.3933,123.5234 Q618.8621,123.5234 619.1902,123.3984 Q619.3855,123.3203 619.5964,123.1016 Q619.7292,122.9688 619.7996,122.9297 Q619.8777,122.8906 619.9792,122.8906 Q620.1433,122.8906 620.2683,123.0234 Q620.4011,123.1484 620.4011,123.3203 Q620.4011,123.4922 620.2292,123.6953 Q619.9792,123.9844 619.5808,124.1484 Q619.0417,124.375 618.3933,124.375 Q617.6355,124.375 617.0339,124.0625 Q616.5417,123.8125 616.198,123.2813 Q615.8542,122.7422 615.8542,122.1016 L615.8542,121.5234 Q615.8542,120.8594 616.1589,120.2891 Q616.4714,119.7109 617.0183,119.4063 Q617.5652,119.0938 618.1824,119.0938 Q618.5496,119.0938 618.8699,119.1797 Q619.198,119.2578 619.4714,119.4375 Z " fill="#000000"/><text fill="#000000" font-family="sans-serif" font-size="7" lengthAdjust="spacing" textLength="44.3652" x="628.3386" y="124.3984">Authentication</text><line style="stroke:#181818;stroke-width:0.25;" x1="589.5" x2="695.2925" y1="129.5" y2="129.5"/><rect fill="none" height="3" style="stroke:#C82930;stroke-width:0.5;" width="3" x="593" y="135.4053"/><text fill="#000000" font-family="sans-serif" font-size="7" lengthAdjust="spacing" textLength="93.7925" x="599" y="139.0537">Authentication uniqueInstance</text><rect fill="none" height="3" style="stroke:#C82930;stroke-width:0.5;" width="3" x="593" y="144.7158"/><text fill="#000000" font-family="sans-serif" font-size="7" lengthAdjust="spacing" textLength="53.2896" x="599" y="148.3643">User currentUser</text><rect fill="none" height="3" style="stroke:#C82930;stroke-width:0.5;" width="3" x="593" y="154.0264"/><text fill="#000000" font-family="sans-serif" font-size="7" lengthAdjust="spacing" textLength="61.4653" x="599" y="157.6748">UserType userType</text><text fill="#000000" font-family="sans-serif" font-size="7" lengthAdjust="spacing" textLength="1.9448" x="599" y="166.9854">&#160;</text><text fill="#000000" font-family="sans-serif" font-size="7" lengthAdjust="spacing" textLength="54.0791" x="599" y="176.2959">enum UserType {</text><text fill="#000000" font-family="sans-serif" font-size="7" lengthAdjust="spacing" textLength="54.0688" x="599" y="185.6064">ADMIN, PLAYER</text><line style="stroke:#181818;stroke-width:0.25;" x1="589.5" x2="695.2925" y1="189.3633" y2="189.3633"/><ellipse cx="594.5" cy="196.7686" fill="#84BE84" rx="1.5" ry="1.5" style="stroke:#038048;stroke-width:0.5;"/><text fill="#000000" font-family="sans-serif" font-size="7" lengthAdjust="spacing" textLength="49.0273" x="599" y="198.917">Authentication()</text><ellipse cx="594.5" cy="206.0791" fill="#84BE84" rx="1.5" ry="1.5" style="stroke:#038048;stroke-width:0.5;"/><text fill="#000000" font-family="sans-serif" font-size="7" lengthAdjust="spacing" textLength="87.165" x="599" y="208.2275">Authentication getInstance()</text><ellipse cx="594.5" cy="215.3896" fill="#84BE84" rx="1.5" ry="1.5" style="stroke:#038048;stroke-width:0.5;"/><text fill="#000000" font-family="sans-serif" font-size="7" lengthAdjust="spacing" textLength="89.1064" x="599" y="217.5381">boolean logIn(String , String)</text><ellipse cx="594.5" cy="224.7002" fill="#84BE84" rx="1.5" ry="1.5" style="stroke:#038048;stroke-width:0.5;"/><text fill="#000000" font-family="sans-serif" font-size="7" lengthAdjust="spacing" textLength="40.0723" x="599" y="226.8486">void logOut()</text><ellipse cx="594.5" cy="234.0107" fill="#84BE84" rx="1.5" ry="1.5" style="stroke:#038048;stroke-width:0.5;"/><text fill="#000000" font-family="sans-serif" font-size="7" lengthAdjust="spacing" textLength="65.772" x="599" y="236.1592">boolean isLoggedIn()</text><ellipse cx="594.5" cy="243.3213" fill="#84BE84" rx="1.5" ry="1.5" style="stroke:#038048;stroke-width:0.5;"/><text fill="#000000" font-family="sans-serif" font-size="7" lengthAdjust="spacing" textLength="64.9653" x="599" y="245.4697">String getUserType()</text><ellipse cx="594.5" cy="252.6318" fill="#84BE84" rx="1.5" ry="1.5" style="stroke:#038048;stroke-width:0.5;"/><text fill="#000000" font-family="sans-serif" font-size="7" lengthAdjust="spacing" textLength="69.2378" x="599" y="254.7803">User getCurrentUser()</text></g><!--class Tournament--><g id="elem_Tournament"><rect codeLine="101" fill="#F1F1F1" height="163.6582" id="Tournament" rx="1.25" ry="1.25" style="stroke:#181818;stroke-width:0.25;" width="259.6611" x="139.25" y="669"/><ellipse cx="248.085" cy="677" fill="#ADD1B2" rx="5.5" ry="5.5" style="stroke:#181818;stroke-width:0.5;"/><path d="M249.4678,674.9375 Q249.5459,674.8281 249.6396,674.7734 Q249.7334,674.7188 249.8428,674.7188 Q250.0303,674.7188 250.1475,674.8516 Q250.2646,674.9766 250.2646,675.2813 L250.2646,676.0078 Q250.2646,676.3125 250.1475,676.4453 Q250.0303,676.5781 249.8428,676.5781 Q249.6709,676.5781 249.5693,676.4766 Q249.4678,676.3828 249.4131,676.125 Q249.3896,675.9453 249.2959,675.8516 Q249.1318,675.6641 248.8271,675.5547 Q248.5225,675.4453 248.21,675.4453 Q247.8271,675.4453 247.5068,675.6094 Q247.1943,675.7734 246.9443,676.1484 Q246.7021,676.5234 246.7021,677.0391 L246.7021,677.5859 Q246.7021,678.2031 247.1475,678.6172 Q247.5928,679.0234 248.3896,679.0234 Q248.8584,679.0234 249.1865,678.8984 Q249.3818,678.8203 249.5928,678.6016 Q249.7256,678.4688 249.7959,678.4297 Q249.874,678.3906 249.9756,678.3906 Q250.1396,678.3906 250.2646,678.5234 Q250.3975,678.6484 250.3975,678.8203 Q250.3975,678.9922 250.2256,679.1953 Q249.9756,679.4844 249.5771,679.6484 Q249.0381,679.875 248.3896,679.875 Q247.6318,679.875 247.0303,679.5625 Q246.5381,679.3125 246.1943,678.7813 Q245.8506,678.2422 245.8506,677.6016 L245.8506,677.0234 Q245.8506,676.3594 246.1553,675.7891 Q246.4678,675.2109 247.0146,674.9063 Q247.5615,674.5938 248.1787,674.5938 Q248.5459,674.5938 248.8662,674.6797 Q249.1943,674.7578 249.4678,674.9375 Z " fill="#000000"/><text fill="#000000" font-family="sans-serif" font-size="7" lengthAdjust="spacing" textLength="37.7412" x="258.335" y="679.8984">Tournament</text><line style="stroke:#181818;stroke-width:0.25;" x1="139.75" x2="398.4111" y1="685" y2="685"/><rect fill="none" height="3" style="stroke:#C82930;stroke-width:0.5;" width="3" x="143.25" y="690.9053"/><text fill="#000000" font-family="sans-serif" font-size="7" lengthAdjust="spacing" textLength="37.7412" x="149.25" y="694.5537">String name</text><rect fill="none" height="3" style="stroke:#C82930;stroke-width:0.5;" width="3" x="143.25" y="700.2158"/><text fill="#000000" font-family="sans-serif" font-size="7" lengthAdjust="spacing" textLength="45.1309" x="149.25" y="703.8643">Date startDate</text><rect fill="none" height="3" style="stroke:#C82930;stroke-width:0.5;" width="3" x="143.25" y="709.5264"/><text fill="#000000" font-family="sans-serif" font-size="7" lengthAdjust="spacing" textLength="43.1963" x="149.25" y="713.1748">Date endDate</text><rect fill="none" height="3" style="stroke:#C82930;stroke-width:0.5;" width="3" x="143.25" y="718.8369"/><text fill="#000000" font-family="sans-serif" font-size="7" lengthAdjust="spacing" textLength="41.2515" x="149.25" y="722.4854">String league</text><rect fill="none" height="3" style="stroke:#C82930;stroke-width:0.5;" width="3" x="143.25" y="728.1475"/><text fill="#000000" font-family="sans-serif" font-size="7" lengthAdjust="spacing" textLength="35.793" x="149.25" y="731.7959">String sport</text><rect fill="none" height="3" style="stroke:#C82930;stroke-width:0.5;" width="3" x="143.25" y="737.458"/><text fill="#000000" font-family="sans-serif" font-size="7" lengthAdjust="spacing" textLength="63.4204" x="149.25" y="741.1064">String categoryRank</text><rect fill="none" height="3" style="stroke:#C82930;stroke-width:0.5;" width="3" x="143.25" y="746.7686"/><text fill="#000000" font-family="sans-serif" font-size="7" lengthAdjust="spacing" textLength="106.6064" x="149.25" y="750.417">ArrayList&lt;Participant&gt; participants</text><rect fill="none" height="3" style="stroke:#C82930;stroke-width:0.5;" width="3" x="143.25" y="756.0791"/><text fill="#000000" font-family="sans-serif" font-size="7" lengthAdjust="spacing" textLength="115.5444" x="149.25" y="759.7275">MatchmakingController matchmaking</text><line style="stroke:#181818;stroke-width:0.25;" x1="139.75" x2="398.4111" y1="763.4844" y2="763.4844"/><ellipse cx="144.75" cy="770.8896" fill="#84BE84" rx="1.5" ry="1.5" style="stroke:#038048;stroke-width:0.5;"/><text fill="#000000" font-family="sans-serif" font-size="7" lengthAdjust="spacing" textLength="246.6611" x="149.25" y="773.0381">Tournament(String , Date, Date , String , String , String) throws ModelException</text><ellipse cx="144.75" cy="780.2002" fill="#84BE84" rx="1.5" ry="1.5" style="stroke:#038048;stroke-width:0.5;"/><text fill="#000000" font-family="sans-serif" font-size="7" lengthAdjust="spacing" textLength="109.3442" x="149.25" y="782.3486">boolean addParticipant(Participant)</text><ellipse cx="144.75" cy="789.5107" fill="#84BE84" rx="1.5" ry="1.5" style="stroke:#038048;stroke-width:0.5;"/><text fill="#000000" font-family="sans-serif" font-size="7" lengthAdjust="spacing" textLength="121.0063" x="149.25" y="791.6592">boolean removeParticipant(Participant)</text><ellipse cx="144.75" cy="798.8213" fill="#84BE84" rx="1.5" ry="1.5" style="stroke:#038048;stroke-width:0.5;"/><text fill="#000000" font-family="sans-serif" font-size="7" lengthAdjust="spacing" textLength="161.0752" x="149.25" y="800.9697">ArrayList&lt;Participant&gt; getRandomizedParticipants()</text><ellipse cx="144.75" cy="808.1318" fill="#84BE84" rx="1.5" ry="1.5" style="stroke:#038048;stroke-width:0.5;"/><text fill="#000000" font-family="sans-serif" font-size="7" lengthAdjust="spacing" textLength="145.9028" x="149.25" y="810.2803">ArrayList&lt;Participant&gt; getParticipantsRanked()</text><ellipse cx="144.75" cy="817.4424" fill="#84BE84" rx="1.5" ry="1.5" style="stroke:#038048;stroke-width:0.5;"/><text fill="#000000" font-family="sans-serif" font-size="7" lengthAdjust="spacing" textLength="121.7754" x="149.25" y="819.5908">ArrayList&lt;Participant&gt; getParticipants()</text><ellipse cx="144.75" cy="826.7529" fill="#84BE84" rx="1.5" ry="1.5" style="stroke:#038048;stroke-width:0.5;"/><text fill="#000000" font-family="sans-serif" font-size="7" lengthAdjust="spacing" textLength="129.9375" x="149.25" y="828.9014">MatchmakingController getMatchmaking()</text></g><!--class MatchmakingController--><g id="elem_MatchmakingController"><rect codeLine="215" fill="#F1F1F1" height="79.8633" id="MatchmakingController" rx="1.25" ry="1.25" style="stroke:#181818;stroke-width:0.25;" width="173.2993" x="224.25" y="862.5"/><ellipse cx="272.7886" cy="870.5" fill="#ADD1B2" rx="5.5" ry="5.5" style="stroke:#181818;stroke-width:0.5;"/><path d="M274.1714,868.4375 Q274.2495,868.3281 274.3433,868.2734 Q274.437,868.2188 274.5464,868.2188 Q274.7339,868.2188 274.8511,868.3516 Q274.9683,868.4766 274.9683,868.7813 L274.9683,869.5078 Q274.9683,869.8125 274.8511,869.9453 Q274.7339,870.0781 274.5464,870.0781 Q274.3745,870.0781 274.2729,869.9766 Q274.1714,869.8828 274.1167,869.625 Q274.0933,869.4453 273.9995,869.3516 Q273.8354,869.1641 273.5308,869.0547 Q273.2261,868.9453 272.9136,868.9453 Q272.5308,868.9453 272.2104,869.1094 Q271.8979,869.2734 271.6479,869.6484 Q271.4058,870.0234 271.4058,870.5391 L271.4058,871.0859 Q271.4058,871.7031 271.8511,872.1172 Q272.2964,872.5234 273.0933,872.5234 Q273.562,872.5234 273.8901,872.3984 Q274.0854,872.3203 274.2964,872.1016 Q274.4292,871.9688 274.4995,871.9297 Q274.5776,871.8906 274.6792,871.8906 Q274.8433,871.8906 274.9683,872.0234 Q275.1011,872.1484 275.1011,872.3203 Q275.1011,872.4922 274.9292,872.6953 Q274.6792,872.9844 274.2808,873.1484 Q273.7417,873.375 273.0933,873.375 Q272.3354,873.375 271.7339,873.0625 Q271.2417,872.8125 270.8979,872.2813 Q270.5542,871.7422 270.5542,871.1016 L270.5542,870.5234 Q270.5542,869.8594 270.8589,869.2891 Q271.1714,868.7109 271.7183,868.4063 Q272.2651,868.0938 272.8823,868.0938 Q273.2495,868.0938 273.5698,868.1797 Q273.8979,868.2578 274.1714,868.4375 Z " fill="#000000"/><text fill="#000000" font-family="sans-serif" font-size="7" lengthAdjust="spacing" textLength="71.9722" x="283.0386" y="873.3984">MatchmakingController</text><line style="stroke:#181818;stroke-width:0.25;" x1="224.75" x2="397.0493" y1="878.5" y2="878.5"/><rect fill="none" height="3" style="stroke:#C82930;stroke-width:0.5;" width="3" x="228.25" y="884.4053"/><text fill="#000000" font-family="sans-serif" font-size="7" lengthAdjust="spacing" textLength="120.9927" x="234.25" y="888.0537">ArrayList&lt;Matchmaking&gt; matchmaking</text><line style="stroke:#181818;stroke-width:0.25;" x1="224.75" x2="397.0493" y1="891.8105" y2="891.8105"/><ellipse cx="229.75" cy="899.2158" fill="#84BE84" rx="1.5" ry="1.5" style="stroke:#038048;stroke-width:0.5;"/><text fill="#000000" font-family="sans-serif" font-size="7" lengthAdjust="spacing" textLength="76.6343" x="234.25" y="901.3643">MatchmakingController()</text><ellipse cx="229.75" cy="908.5264" fill="#84BE84" rx="1.5" ry="1.5" style="stroke:#038048;stroke-width:0.5;"/><text fill="#000000" font-family="sans-serif" font-size="7" lengthAdjust="spacing" textLength="157.189" x="234.25" y="910.6748">boolean createMatchmake(Participant, Participant)</text><ellipse cx="229.75" cy="917.8369" fill="#84BE84" rx="1.5" ry="1.5" style="stroke:#038048;stroke-width:0.5;"/><text fill="#000000" font-family="sans-serif" font-size="7" lengthAdjust="spacing" textLength="160.2993" x="234.25" y="919.9854">boolean randomMatchmake(ArrayList&lt;Participant&gt;)</text><ellipse cx="229.75" cy="927.1475" fill="#84BE84" rx="1.5" ry="1.5" style="stroke:#038048;stroke-width:0.5;"/><text fill="#000000" font-family="sans-serif" font-size="7" lengthAdjust="spacing" textLength="109.7202" x="234.25" y="929.2959">boolean isMatchmaked(Participant)</text><ellipse cx="229.75" cy="936.458" fill="#84BE84" rx="1.5" ry="1.5" style="stroke:#038048;stroke-width:0.5;"/><text fill="#000000" font-family="sans-serif" font-size="7" lengthAdjust="spacing" textLength="117.4893" x="234.25" y="938.6064">void removeMatchmaking(Participant)</text></g><!--class Matchmaking--><g id="elem_Matchmaking"><rect codeLine="95" fill="#F1F1F1" height="51.9316" id="Matchmaking" rx="1.25" ry="1.25" style="stroke:#181818;stroke-width:0.25;" width="131.2686" x="301.75" y="972.5"/><ellipse cx="344.4456" cy="980.5" fill="#ADD1B2" rx="5.5" ry="5.5" style="stroke:#181818;stroke-width:0.5;"/><path d="M345.8284,978.4375 Q345.9065,978.3281 346.0002,978.2734 Q346.094,978.2188 346.2034,978.2188 Q346.3909,978.2188 346.5081,978.3516 Q346.6252,978.4766 346.6252,978.7813 L346.6252,979.5078 Q346.6252,979.8125 346.5081,979.9453 Q346.3909,980.0781 346.2034,980.0781 Q346.0315,980.0781 345.9299,979.9766 Q345.8284,979.8828 345.7737,979.625 Q345.7502,979.4453 345.6565,979.3516 Q345.4924,979.1641 345.1877,979.0547 Q344.8831,978.9453 344.5706,978.9453 Q344.1877,978.9453 343.8674,979.1094 Q343.5549,979.2734 343.3049,979.6484 Q343.0627,980.0234 343.0627,980.5391 L343.0627,981.0859 Q343.0627,981.7031 343.5081,982.1172 Q343.9534,982.5234 344.7502,982.5234 Q345.219,982.5234 345.5471,982.3984 Q345.7424,982.3203 345.9534,982.1016 Q346.0862,981.9688 346.1565,981.9297 Q346.2346,981.8906 346.3362,981.8906 Q346.5002,981.8906 346.6252,982.0234 Q346.7581,982.1484 346.7581,982.3203 Q346.7581,982.4922 346.5862,982.6953 Q346.3362,982.9844 345.9377,983.1484 Q345.3987,983.375 344.7502,983.375 Q343.9924,983.375 343.3909,983.0625 Q342.8987,982.8125 342.5549,982.2813 Q342.2112,981.7422 342.2112,981.1016 L342.2112,980.5234 Q342.2112,979.8594 342.5159,979.2891 Q342.8284,978.7109 343.3752,978.4063 Q343.9221,978.0938 344.5393,978.0938 Q344.9065,978.0938 345.2268,978.1797 Q345.5549,978.2578 345.8284,978.4375 Z " fill="#000000"/><text fill="#000000" font-family="sans-serif" font-size="7" lengthAdjust="spacing" textLength="41.6274" x="354.6956" y="983.3984">Matchmaking</text><line style="stroke:#181818;stroke-width:0.25;" x1="302.25" x2="432.5186" y1="988.5" y2="988.5"/><rect fill="none" height="3" style="stroke:#C82930;stroke-width:0.5;" width="3" x="305.75" y="994.4053"/><text fill="#000000" font-family="sans-serif" font-size="7" lengthAdjust="spacing" textLength="106.6064" x="311.75" y="998.0537">ArrayList&lt;Participant&gt; participants</text><line style="stroke:#181818;stroke-width:0.25;" x1="302.25" x2="432.5186" y1="1001.8105" y2="1001.8105"/><ellipse cx="307.25" cy="1009.2158" fill="#84BE84" rx="1.5" ry="1.5" style="stroke:#038048;stroke-width:0.5;"/><text fill="#000000" font-family="sans-serif" font-size="7" lengthAdjust="spacing" textLength="118.2686" x="311.75" y="1011.3643">Matchmaking(Participant, Participant )</text><ellipse cx="307.25" cy="1018.5264" fill="#84BE84" rx="1.5" ry="1.5" style="stroke:#038048;stroke-width:0.5;"/><text fill="#000000" font-family="sans-serif" font-size="7" lengthAdjust="spacing" textLength="109.7202" x="311.75" y="1020.6748">boolean isMatchmaked(Participant)</text></g><!--class Admin--><g id="elem_Admin"><rect codeLine="60" fill="#F1F1F1" height="33.3105" id="Admin" rx="1.25" ry="1.25" style="stroke:#181818;stroke-width:0.25;" width="152.2788" x="816.25" y="549.75"/><ellipse cx="880.3438" cy="557.75" fill="#ADD1B2" rx="5.5" ry="5.5" style="stroke:#181818;stroke-width:0.5;"/><path d="M881.7266,555.6875 Q881.8047,555.5781 881.8984,555.5234 Q881.9922,555.4688 882.1016,555.4688 Q882.2891,555.4688 882.4063,555.6016 Q882.5234,555.7266 882.5234,556.0313 L882.5234,556.7578 Q882.5234,557.0625 882.4063,557.1953 Q882.2891,557.3281 882.1016,557.3281 Q881.9297,557.3281 881.8281,557.2266 Q881.7266,557.1328 881.6719,556.875 Q881.6484,556.6953 881.5547,556.6016 Q881.3906,556.4141 881.0859,556.3047 Q880.7813,556.1953 880.4688,556.1953 Q880.0859,556.1953 879.7656,556.3594 Q879.4531,556.5234 879.2031,556.8984 Q878.9609,557.2734 878.9609,557.7891 L878.9609,558.3359 Q878.9609,558.9531 879.4063,559.3672 Q879.8516,559.7734 880.6484,559.7734 Q881.1172,559.7734 881.4453,559.6484 Q881.6406,559.5703 881.8516,559.3516 Q881.9844,559.2188 882.0547,559.1797 Q882.1328,559.1406 882.2344,559.1406 Q882.3984,559.1406 882.5234,559.2734 Q882.6563,559.3984 882.6563,559.5703 Q882.6563,559.7422 882.4844,559.9453 Q882.2344,560.2344 881.8359,560.3984 Q881.2969,560.625 880.6484,560.625 Q879.8906,560.625 879.2891,560.3125 Q878.7969,560.0625 878.4531,559.5313 Q878.1094,558.9922 878.1094,558.3516 L878.1094,557.7734 Q878.1094,557.1094 878.4141,556.5391 Q878.7266,555.9609 879.2734,555.6563 Q879.8203,555.3438 880.4375,555.3438 Q880.8047,555.3438 881.125,555.4297 Q881.4531,555.5078 881.7266,555.6875 Z " fill="#000000"/><text fill="#000000" font-family="sans-serif" font-size="7" lengthAdjust="spacing" textLength="19.8413" x="890.5938" y="560.6484">Admin</text><line style="stroke:#181818;stroke-width:0.25;" x1="816.75" x2="968.0288" y1="565.75" y2="565.75"/><line style="stroke:#181818;stroke-width:0.25;" x1="816.75" x2="968.0288" y1="569.75" y2="569.75"/><ellipse cx="821.75" cy="577.1553" fill="#84BE84" rx="1.5" ry="1.5" style="stroke:#038048;stroke-width:0.5;"/><text fill="#000000" font-family="sans-serif" font-size="7" lengthAdjust="spacing" textLength="139.2788" x="826.25" y="579.3037">Admin(String ,String) throws ModelException</text></g><!--class Player--><g id="elem_Player"><rect codeLine="44" fill="#F1F1F1" height="145.0371" id="Player" rx="1.25" ry="1.25" style="stroke:#181818;stroke-width:0.25;" width="232.813" x="535" y="494"/><ellipse cx="639.3608" cy="502" fill="#ADD1B2" rx="5.5" ry="5.5" style="stroke:#181818;stroke-width:0.5;"/><path d="M640.7437,499.9375 Q640.8218,499.8281 640.9155,499.7734 Q641.0093,499.7188 641.1187,499.7188 Q641.3062,499.7188 641.4233,499.8516 Q641.5405,499.9766 641.5405,500.2813 L641.5405,501.0078 Q641.5405,501.3125 641.4233,501.4453 Q641.3062,501.5781 641.1187,501.5781 Q640.9468,501.5781 640.8452,501.4766 Q640.7437,501.3828 640.689,501.125 Q640.6655,500.9453 640.5718,500.8516 Q640.4077,500.6641 640.103,500.5547 Q639.7983,500.4453 639.4858,500.4453 Q639.103,500.4453 638.7827,500.6094 Q638.4702,500.7734 638.2202,501.1484 Q637.978,501.5234 637.978,502.0391 L637.978,502.5859 Q637.978,503.2031 638.4233,503.6172 Q638.8687,504.0234 639.6655,504.0234 Q640.1343,504.0234 640.4624,503.8984 Q640.6577,503.8203 640.8687,503.6016 Q641.0015,503.4688 641.0718,503.4297 Q641.1499,503.3906 641.2515,503.3906 Q641.4155,503.3906 641.5405,503.5234 Q641.6733,503.6484 641.6733,503.8203 Q641.6733,503.9922 641.5015,504.1953 Q641.2515,504.4844 640.853,504.6484 Q640.314,504.875 639.6655,504.875 Q638.9077,504.875 638.3062,504.5625 Q637.814,504.3125 637.4702,503.7813 Q637.1265,503.2422 637.1265,502.6016 L637.1265,502.0234 Q637.1265,501.3594 637.4312,500.7891 Q637.7437,500.2109 638.2905,499.9063 Q638.8374,499.5938 639.4546,499.5938 Q639.8218,499.5938 640.1421,499.6797 Q640.4702,499.7578 640.7437,499.9375 Z " fill="#000000"/><text fill="#000000" font-family="sans-serif" font-size="7" lengthAdjust="spacing" textLength="19.8413" x="649.6108" y="504.8984">Player</text><line style="stroke:#181818;stroke-width:0.25;" x1="535.5" x2="767.313" y1="510" y2="510"/><rect fill="none" height="3" style="stroke:#C82930;stroke-width:0.5;" width="3" x="539" y="515.9053"/><text fill="#000000" font-family="sans-serif" font-size="7" lengthAdjust="spacing" textLength="37.7412" x="545" y="519.5537">String name</text><rect fill="none" height="3" style="stroke:#C82930;stroke-width:0.5;" width="3" x="539" y="525.2158"/><text fill="#000000" font-family="sans-serif" font-size="7" lengthAdjust="spacing" textLength="47.4653" x="545" y="528.8643">String surname</text><rect fill="none" height="3" style="stroke:#C82930;stroke-width:0.5;" width="3" x="539" y="534.5264"/><text fill="#000000" font-family="sans-serif" font-size="7" lengthAdjust="spacing" textLength="29.5723" x="545" y="538.1748">String dni</text><rect fill="none" height="3" style="stroke:#C82930;stroke-width:0.5;" width="3" x="539" y="543.8369"/><text fill="#000000" font-family="sans-serif" font-size="7" lengthAdjust="spacing" textLength="64.9722" x="545" y="547.4854">ArrayList&lt;Stat&gt; stats</text><rect fill="none" height="3" style="stroke:#C82930;stroke-width:0.5;" width="3" x="539" y="553.1475"/><text fill="#000000" font-family="sans-serif" font-size="7" lengthAdjust="spacing" textLength="43.5723" x="545" y="556.7959">Admin creator</text><line style="stroke:#181818;stroke-width:0.25;" x1="535.5" x2="767.313" y1="560.5527" y2="560.5527"/><ellipse cx="540.5" cy="567.958" fill="#84BE84" rx="1.5" ry="1.5" style="stroke:#038048;stroke-width:0.5;"/><text fill="#000000" font-family="sans-serif" font-size="7" lengthAdjust="spacing" textLength="219.813" x="545" y="570.1064">Player(String,String,String,String,String,Admin) throws ModelException</text><rect fill="#F24D5C" height="3" style="stroke:#C82930;stroke-width:0.5;" width="3" x="539" y="575.7686"/><text fill="#000000" font-family="sans-serif" font-size="7" lengthAdjust="spacing" textLength="152.1338" x="545" y="579.417">void dniValidation(String) throws ModelException</text><rect fill="#F24D5C" height="3" style="stroke:#C82930;stroke-width:0.5;" width="3" x="539" y="585.0791"/><text fill="#000000" font-family="sans-serif" font-size="7" lengthAdjust="spacing" textLength="86.7549" x="545" y="588.7275">ArrayList&lt;Stat&gt; initialStats()</text><ellipse cx="540.5" cy="595.8896" fill="#84BE84" rx="1.5" ry="1.5" style="stroke:#038048;stroke-width:0.5;"/><text fill="#000000" font-family="sans-serif" font-size="7" lengthAdjust="spacing" textLength="66.5273" x="545" y="598.0381">void showStatsJson()</text><ellipse cx="540.5" cy="605.2002" fill="#84BE84" rx="1.5" ry="1.5" style="stroke:#038048;stroke-width:0.5;"/><text fill="#000000" font-family="sans-serif" font-size="7" lengthAdjust="spacing" textLength="63.7964" x="545" y="607.3486">void showStatsCsv()</text><ellipse cx="540.5" cy="614.5107" fill="#84BE84" rx="1.5" ry="1.5" style="stroke:#038048;stroke-width:0.5;"/><text fill="#000000" font-family="sans-serif" font-size="7" lengthAdjust="spacing" textLength="102.3477" x="545" y="616.6592">boolean updateStat(String,value)</text><ellipse cx="540.5" cy="623.8213" fill="#84BE84" rx="1.5" ry="1.5" style="stroke:#038048;stroke-width:0.5;"/><text fill="#000000" font-family="sans-serif" font-size="7" lengthAdjust="spacing" textLength="80.5342" x="545" y="625.9697">ArrayList&lt;Stat&gt; getStats()</text><ellipse cx="540.5" cy="633.1318" fill="#84BE84" rx="1.5" ry="1.5" style="stroke:#038048;stroke-width:0.5;"/><text fill="#000000" font-family="sans-serif" font-size="7" lengthAdjust="spacing" textLength="49.0171" x="545" y="635.2803">String toString()</text></g><!--class Stat--><g id="elem_Stat"><rect codeLine="69" fill="#F1F1F1" height="98.4844" id="Stat" rx="1.25" ry="1.25" style="stroke:#181818;stroke-width:0.25;" width="88.4756" x="583.25" y="701.5"/><ellipse cx="619.137" cy="709.5" fill="#ADD1B2" rx="5.5" ry="5.5" style="stroke:#181818;stroke-width:0.5;"/><path d="M620.5198,707.4375 Q620.5979,707.3281 620.6917,707.2734 Q620.7854,707.2188 620.8948,707.2188 Q621.0823,707.2188 621.1995,707.3516 Q621.3167,707.4766 621.3167,707.7813 L621.3167,708.5078 Q621.3167,708.8125 621.1995,708.9453 Q621.0823,709.0781 620.8948,709.0781 Q620.7229,709.0781 620.6213,708.9766 Q620.5198,708.8828 620.4651,708.625 Q620.4417,708.4453 620.3479,708.3516 Q620.1838,708.1641 619.8792,708.0547 Q619.5745,707.9453 619.262,707.9453 Q618.8792,707.9453 618.5588,708.1094 Q618.2463,708.2734 617.9963,708.6484 Q617.7542,709.0234 617.7542,709.5391 L617.7542,710.0859 Q617.7542,710.7031 618.1995,711.1172 Q618.6448,711.5234 619.4417,711.5234 Q619.9104,711.5234 620.2385,711.3984 Q620.4338,711.3203 620.6448,711.1016 Q620.7776,710.9688 620.8479,710.9297 Q620.926,710.8906 621.0276,710.8906 Q621.1917,710.8906 621.3167,711.0234 Q621.4495,711.1484 621.4495,711.3203 Q621.4495,711.4922 621.2776,711.6953 Q621.0276,711.9844 620.6292,712.1484 Q620.0901,712.375 619.4417,712.375 Q618.6838,712.375 618.0823,712.0625 Q617.5901,711.8125 617.2463,711.2813 Q616.9026,710.7422 616.9026,710.1016 L616.9026,709.5234 Q616.9026,708.8594 617.2073,708.2891 Q617.5198,707.7109 618.0667,707.4063 Q618.6135,707.0938 619.2307,707.0938 Q619.5979,707.0938 619.9182,707.1797 Q620.2463,707.2578 620.5198,707.4375 Z " fill="#000000"/><text fill="#000000" font-family="sans-serif" font-size="7" lengthAdjust="spacing" textLength="12.4517" x="629.387" y="712.3984">Stat</text><line style="stroke:#181818;stroke-width:0.25;" x1="583.75" x2="671.2256" y1="717.5" y2="717.5"/><rect fill="none" height="3" style="stroke:#C82930;stroke-width:0.5;" width="3" x="587.25" y="723.4053"/><text fill="#000000" font-family="sans-serif" font-size="7" lengthAdjust="spacing" textLength="47.0791" x="593.25" y="727.0537">String category</text><rect fill="none" height="3" style="stroke:#C82930;stroke-width:0.5;" width="3" x="587.25" y="732.7158"/><text fill="#000000" font-family="sans-serif" font-size="7" lengthAdjust="spacing" textLength="39.6997" x="593.25" y="736.3643">double value</text><line style="stroke:#181818;stroke-width:0.25;" x1="583.75" x2="671.2256" y1="740.1211" y2="740.1211"/><ellipse cx="588.75" cy="747.5264" fill="#84BE84" rx="1.5" ry="1.5" style="stroke:#038048;stroke-width:0.5;"/><text fill="#000000" font-family="sans-serif" font-size="7" lengthAdjust="spacing" textLength="35.3999" x="593.25" y="749.6748">Stat(String)</text><ellipse cx="588.75" cy="756.8369" fill="#84BE84" rx="1.5" ry="1.5" style="stroke:#038048;stroke-width:0.5;"/><text fill="#000000" font-family="sans-serif" font-size="7" lengthAdjust="spacing" textLength="63.0273" x="593.25" y="758.9854">String getCategory()</text><ellipse cx="588.75" cy="766.1475" fill="#84BE84" rx="1.5" ry="1.5" style="stroke:#038048;stroke-width:0.5;"/><text fill="#000000" font-family="sans-serif" font-size="7" lengthAdjust="spacing" textLength="75.4756" x="593.25" y="768.2959">void setCategory(String)</text><ellipse cx="588.75" cy="775.458" fill="#84BE84" rx="1.5" ry="1.5" style="stroke:#038048;stroke-width:0.5;"/><text fill="#000000" font-family="sans-serif" font-size="7" lengthAdjust="spacing" textLength="55.2617" x="593.25" y="777.6064">double getValue()</text><ellipse cx="588.75" cy="784.7686" fill="#84BE84" rx="1.5" ry="1.5" style="stroke:#038048;stroke-width:0.5;"/><text fill="#000000" font-family="sans-serif" font-size="7" lengthAdjust="spacing" textLength="67.71" x="593.25" y="786.917">void setValue(double)</text><ellipse cx="588.75" cy="794.0791" fill="#84BE84" rx="1.5" ry="1.5" style="stroke:#038048;stroke-width:0.5;"/><text fill="#000000" font-family="sans-serif" font-size="7" lengthAdjust="spacing" textLength="49.0171" x="593.25" y="796.2275">String toString()</text></g><!--class Categories--><g id="elem_Categories"><rect codeLine="64" fill="#F1F1F1" height="42.6211" id="Categories" rx="1.25" ry="1.25" style="stroke:#181818;stroke-width:0.25;" width="123.1064" x="495" y="881.25"/><ellipse cx="537.5024" cy="889.25" fill="#ADD1B2" rx="5.5" ry="5.5" style="stroke:#181818;stroke-width:0.5;"/><path d="M538.8853,887.1875 Q538.9634,887.0781 539.0571,887.0234 Q539.1509,886.9688 539.2603,886.9688 Q539.4478,886.9688 539.5649,887.1016 Q539.6821,887.2266 539.6821,887.5313 L539.6821,888.2578 Q539.6821,888.5625 539.5649,888.6953 Q539.4478,888.8281 539.2603,888.8281 Q539.0884,888.8281 538.9868,888.7266 Q538.8853,888.6328 538.8306,888.375 Q538.8071,888.1953 538.7134,888.1016 Q538.5493,887.9141 538.2446,887.8047 Q537.9399,887.6953 537.6274,887.6953 Q537.2446,887.6953 536.9243,887.8594 Q536.6118,888.0234 536.3618,888.3984 Q536.1196,888.7734 536.1196,889.2891 L536.1196,889.8359 Q536.1196,890.4531 536.5649,890.8672 Q537.0103,891.2734 537.8071,891.2734 Q538.2759,891.2734 538.604,891.1484 Q538.7993,891.0703 539.0103,890.8516 Q539.1431,890.7188 539.2134,890.6797 Q539.2915,890.6406 539.3931,890.6406 Q539.5571,890.6406 539.6821,890.7734 Q539.8149,890.8984 539.8149,891.0703 Q539.8149,891.2422 539.6431,891.4453 Q539.3931,891.7344 538.9946,891.8984 Q538.4556,892.125 537.8071,892.125 Q537.0493,892.125 536.4478,891.8125 Q535.9556,891.5625 535.6118,891.0313 Q535.2681,890.4922 535.2681,889.8516 L535.2681,889.2734 Q535.2681,888.6094 535.5728,888.0391 Q535.8853,887.4609 536.4321,887.1563 Q536.979,886.8438 537.5962,886.8438 Q537.9634,886.8438 538.2837,886.9297 Q538.6118,887.0078 538.8853,887.1875 Z " fill="#000000"/><text fill="#000000" font-family="sans-serif" font-size="7" lengthAdjust="spacing" textLength="33.8516" x="547.7524" y="892.1484">Categories</text><line style="stroke:#181818;stroke-width:0.25;" x1="495.5" x2="617.6064" y1="897.25" y2="897.25"/><line style="stroke:#181818;stroke-width:0.25;" x1="495.5" x2="617.6064" y1="901.25" y2="901.25"/><ellipse cx="500.5" cy="908.6553" fill="#84BE84" rx="1.5" ry="1.5" style="stroke:#038048;stroke-width:0.5;"/><text fill="#000000" font-family="sans-serif" font-size="7" lengthAdjust="spacing" textLength="110.1064" x="505" y="910.8037">String getCategory(String category)</text><ellipse cx="500.5" cy="917.9658" fill="#84BE84" rx="1.5" ry="1.5" style="stroke:#038048;stroke-width:0.5;"/><text fill="#000000" font-family="sans-serif" font-size="7" lengthAdjust="spacing" textLength="72.3652" x="505" y="920.1143">String[] getCategories()</text></g><!--class Team--><g id="elem_Team"><rect codeLine="80" fill="#F1F1F1" height="135.7266" id="Team" rx="1.25" ry="1.25" style="stroke:#181818;stroke-width:0.25;" width="149.9409" x="367.5" y="498.75"/><ellipse cx="431.3989" cy="506.75" fill="#ADD1B2" rx="5.5" ry="5.5" style="stroke:#181818;stroke-width:0.5;"/><path d="M432.7817,504.6875 Q432.8599,504.5781 432.9536,504.5234 Q433.0474,504.4688 433.1567,504.4688 Q433.3442,504.4688 433.4614,504.6016 Q433.5786,504.7266 433.5786,505.0313 L433.5786,505.7578 Q433.5786,506.0625 433.4614,506.1953 Q433.3442,506.3281 433.1567,506.3281 Q432.9849,506.3281 432.8833,506.2266 Q432.7817,506.1328 432.7271,505.875 Q432.7036,505.6953 432.6099,505.6016 Q432.4458,505.4141 432.1411,505.3047 Q431.8364,505.1953 431.5239,505.1953 Q431.1411,505.1953 430.8208,505.3594 Q430.5083,505.5234 430.2583,505.8984 Q430.0161,506.2734 430.0161,506.7891 L430.0161,507.3359 Q430.0161,507.9531 430.4614,508.3672 Q430.9067,508.7734 431.7036,508.7734 Q432.1724,508.7734 432.5005,508.6484 Q432.6958,508.5703 432.9067,508.3516 Q433.0396,508.2188 433.1099,508.1797 Q433.188,508.1406 433.2896,508.1406 Q433.4536,508.1406 433.5786,508.2734 Q433.7114,508.3984 433.7114,508.5703 Q433.7114,508.7422 433.5396,508.9453 Q433.2896,509.2344 432.8911,509.3984 Q432.3521,509.625 431.7036,509.625 Q430.9458,509.625 430.3442,509.3125 Q429.8521,509.0625 429.5083,508.5313 Q429.1646,507.9922 429.1646,507.3516 L429.1646,506.7734 Q429.1646,506.1094 429.4692,505.5391 Q429.7817,504.9609 430.3286,504.6563 Q430.8755,504.3438 431.4927,504.3438 Q431.8599,504.3438 432.1802,504.4297 Q432.5083,504.5078 432.7817,504.6875 Z " fill="#000000"/><text fill="#000000" font-family="sans-serif" font-size="7" lengthAdjust="spacing" textLength="17.8931" x="441.6489" y="509.6484">Team</text><line style="stroke:#181818;stroke-width:0.25;" x1="368" x2="516.9409" y1="514.75" y2="514.75"/><rect fill="none" height="3" style="stroke:#C82930;stroke-width:0.5;" width="3" x="371.5" y="520.6553"/><text fill="#000000" font-family="sans-serif" font-size="7" lengthAdjust="spacing" textLength="37.7412" x="377.5" y="524.3037">String name</text><rect fill="none" height="3" style="stroke:#C82930;stroke-width:0.5;" width="3" x="371.5" y="529.9658"/><text fill="#000000" font-family="sans-serif" font-size="7" lengthAdjust="spacing" textLength="80.1445" x="377.5" y="533.6143">ArrayList&lt;Player&gt; players</text><rect fill="none" height="3" style="stroke:#C82930;stroke-width:0.5;" width="3" x="371.5" y="539.2764"/><text fill="#000000" font-family="sans-serif" font-size="7" lengthAdjust="spacing" textLength="64.9722" x="377.5" y="542.9248">ArrayList&lt;Stat&gt; stats</text><rect fill="none" height="3" style="stroke:#C82930;stroke-width:0.5;" width="3" x="371.5" y="548.5869"/><text fill="#000000" font-family="sans-serif" font-size="7" lengthAdjust="spacing" textLength="43.5723" x="377.5" y="552.2354">Admin creator</text><line style="stroke:#181818;stroke-width:0.25;" x1="368" x2="516.9409" y1="555.9922" y2="555.9922"/><ellipse cx="373" cy="563.3975" fill="#84BE84" rx="1.5" ry="1.5" style="stroke:#038048;stroke-width:0.5;"/><text fill="#000000" font-family="sans-serif" font-size="7" lengthAdjust="spacing" textLength="136.9409" x="377.5" y="565.5459">Team(String,Admin) throws ModelException</text><rect fill="#F24D5C" height="3" style="stroke:#C82930;stroke-width:0.5;" width="3" x="371.5" y="571.208"/><text fill="#000000" font-family="sans-serif" font-size="7" lengthAdjust="spacing" textLength="86.7549" x="377.5" y="574.8564">ArrayList&lt;Stat&gt; initialStats()</text><ellipse cx="373" cy="582.0186" fill="#84BE84" rx="1.5" ry="1.5" style="stroke:#038048;stroke-width:0.5;"/><text fill="#000000" font-family="sans-serif" font-size="7" lengthAdjust="spacing" textLength="56.8101" x="377.5" y="584.167">void updateStats()</text><ellipse cx="373" cy="591.3291" fill="#84BE84" rx="1.5" ry="1.5" style="stroke:#038048;stroke-width:0.5;"/><text fill="#000000" font-family="sans-serif" font-size="7" lengthAdjust="spacing" textLength="53.2964" x="377.5" y="593.4775">String getName()</text><ellipse cx="373" cy="600.6396" fill="#84BE84" rx="1.5" ry="1.5" style="stroke:#038048;stroke-width:0.5;"/><text fill="#000000" font-family="sans-serif" font-size="7" lengthAdjust="spacing" textLength="82.8823" x="377.5" y="602.7881">boolean addPlayer(Player)</text><ellipse cx="373" cy="609.9502" fill="#84BE84" rx="1.5" ry="1.5" style="stroke:#038048;stroke-width:0.5;"/><text fill="#000000" font-family="sans-serif" font-size="7" lengthAdjust="spacing" textLength="92.9893" x="377.5" y="612.0986">boolean removePlayer(String)</text><ellipse cx="373" cy="619.2607" fill="#84BE84" rx="1.5" ry="1.5" style="stroke:#038048;stroke-width:0.5;"/><text fill="#000000" font-family="sans-serif" font-size="7" lengthAdjust="spacing" textLength="72.3789" x="377.5" y="621.4092">boolean equals(Object)</text><ellipse cx="373" cy="628.5713" fill="#84BE84" rx="1.5" ry="1.5" style="stroke:#038048;stroke-width:0.5;"/><text fill="#000000" font-family="sans-serif" font-size="7" lengthAdjust="spacing" textLength="45.9136" x="377.5" y="630.7197">int hashCode()</text></g><!--class Participant--><g id="elem_Participant"><rect codeLine="184" fill="#F1F1F1" height="33.3105" id="Participant" rx="1.25" ry="1.25" style="stroke:#181818;stroke-width:0.25;" width="101.3203" x="416.25" y="734"/><ellipse cx="448.249" cy="742" fill="#B4A7E5" rx="5.5" ry="5.5" style="stroke:#181818;stroke-width:0.5;"/><path d="M448.7256,740.3203 L448.7256,743.6484 L449.585,743.6484 Q449.8896,743.6484 450.0225,743.7656 Q450.1553,743.8828 450.1553,744.0781 Q450.1553,744.2656 450.0225,744.3828 Q449.8896,744.5 449.585,744.5 L447.0146,744.5 Q446.71,744.5 446.5771,744.3828 Q446.4443,744.2656 446.4443,744.0703 Q446.4443,743.8828 446.5771,743.7656 Q446.71,743.6484 447.0146,743.6484 L447.874,743.6484 L447.874,740.3203 L447.0146,740.3203 Q446.71,740.3203 446.5771,740.2031 Q446.4443,740.0859 446.4443,739.8906 Q446.4443,739.7031 446.5771,739.5859 Q446.71,739.4688 447.0146,739.4688 L449.585,739.4688 Q449.8896,739.4688 450.0225,739.5859 Q450.1553,739.7031 450.1553,739.8906 Q450.1553,740.0859 450.0225,740.2031 Q449.8896,740.3203 449.585,740.3203 L448.7256,740.3203 Z " fill="#000000"/><text fill="#000000" font-family="sans-serif" font-size="7" font-style="italic" lengthAdjust="spacing" textLength="33.0723" x="458.499" y="744.8984">Participant</text><line style="stroke:#181818;stroke-width:0.25;" x1="416.75" x2="517.0703" y1="750" y2="750"/><line style="stroke:#181818;stroke-width:0.25;" x1="416.75" x2="517.0703" y1="754" y2="754"/><ellipse cx="421.75" cy="761.4053" fill="#84BE84" rx="1.5" ry="1.5" style="stroke:#038048;stroke-width:0.5;"/><text fill="#000000" font-family="sans-serif" font-size="7" lengthAdjust="spacing" textLength="88.3203" x="426.25" y="763.5537">Stat getStat(String category)</text></g><!--class Date--><g id="elem_Date"><rect codeLine="192" fill="#F1F1F1" height="117.1055" id="Date" rx="1.25" ry="1.25" style="stroke:#181818;stroke-width:0.25;" width="97.4409" x="24.25" y="692.25"/><ellipse cx="63.4524" cy="700.25" fill="#ADD1B2" rx="5.5" ry="5.5" style="stroke:#181818;stroke-width:0.5;"/><path d="M64.8352,698.1875 Q64.9133,698.0781 65.0071,698.0234 Q65.1008,697.9688 65.2102,697.9688 Q65.3977,697.9688 65.5149,698.1016 Q65.6321,698.2266 65.6321,698.5313 L65.6321,699.2578 Q65.6321,699.5625 65.5149,699.6953 Q65.3977,699.8281 65.2102,699.8281 Q65.0383,699.8281 64.9368,699.7266 Q64.8352,699.6328 64.7805,699.375 Q64.7571,699.1953 64.6633,699.1016 Q64.4993,698.9141 64.1946,698.8047 Q63.8899,698.6953 63.5774,698.6953 Q63.1946,698.6953 62.8743,698.8594 Q62.5618,699.0234 62.3118,699.3984 Q62.0696,699.7734 62.0696,700.2891 L62.0696,700.8359 Q62.0696,701.4531 62.5149,701.8672 Q62.9602,702.2734 63.7571,702.2734 Q64.2258,702.2734 64.554,702.1484 Q64.7493,702.0703 64.9602,701.8516 Q65.093,701.7188 65.1633,701.6797 Q65.2415,701.6406 65.343,701.6406 Q65.5071,701.6406 65.6321,701.7734 Q65.7649,701.8984 65.7649,702.0703 Q65.7649,702.2422 65.593,702.4453 Q65.343,702.7344 64.9446,702.8984 Q64.4055,703.125 63.7571,703.125 Q62.9993,703.125 62.3977,702.8125 Q61.9055,702.5625 61.5618,702.0313 Q61.218,701.4922 61.218,700.8516 L61.218,700.2734 Q61.218,699.6094 61.5227,699.0391 Q61.8352,698.4609 62.3821,698.1563 Q62.929,697.8438 63.5461,697.8438 Q63.9133,697.8438 64.2336,697.9297 Q64.5618,698.0078 64.8352,698.1875 Z " fill="#000000"/><text fill="#000000" font-family="sans-serif" font-size="7" lengthAdjust="spacing" textLength="14.7861" x="73.7024" y="703.1484">Date</text><line style="stroke:#181818;stroke-width:0.25;" x1="24.75" x2="121.1909" y1="708.25" y2="708.25"/><rect fill="none" height="3" style="stroke:#C82930;stroke-width:0.5;" width="3" x="28.25" y="714.1553"/><text fill="#000000" font-family="sans-serif" font-size="7" lengthAdjust="spacing" textLength="22.9551" x="34.25" y="717.8037">int year</text><rect fill="none" height="3" style="stroke:#C82930;stroke-width:0.5;" width="3" x="28.25" y="723.4658"/><text fill="#000000" font-family="sans-serif" font-size="7" lengthAdjust="spacing" textLength="28.793" x="34.25" y="727.1143">int month</text><rect fill="none" height="3" style="stroke:#C82930;stroke-width:0.5;" width="3" x="28.25" y="732.7764"/><text fill="#000000" font-family="sans-serif" font-size="7" lengthAdjust="spacing" textLength="20.624" x="34.25" y="736.4248">int day</text><line style="stroke:#181818;stroke-width:0.25;" x1="24.75" x2="121.1909" y1="740.1816" y2="740.1816"/><ellipse cx="29.75" cy="747.5869" fill="#84BE84" rx="1.5" ry="1.5" style="stroke:#038048;stroke-width:0.5;"/><text fill="#000000" font-family="sans-serif" font-size="7" lengthAdjust="spacing" textLength="53.2964" x="34.25" y="749.7354">Date(int , int , int)</text><ellipse cx="29.75" cy="756.8975" fill="#84BE84" rx="1.5" ry="1.5" style="stroke:#038048;stroke-width:0.5;"/><text fill="#000000" font-family="sans-serif" font-size="7" lengthAdjust="spacing" textLength="37.7344" x="34.25" y="759.0459">Date(String)</text><ellipse cx="29.75" cy="766.208" fill="#84BE84" rx="1.5" ry="1.5" style="stroke:#038048;stroke-width:0.5;"/><text fill="#000000" font-family="sans-serif" font-size="7" lengthAdjust="spacing" textLength="19.4482" x="34.25" y="768.3564">Date()</text><ellipse cx="29.75" cy="775.5186" fill="#84BE84" rx="1.5" ry="1.5" style="stroke:#038048;stroke-width:0.5;"/><text fill="#000000" font-family="sans-serif" font-size="7" lengthAdjust="spacing" textLength="84.4409" x="34.25" y="777.667">boolean greaterThan(Date)</text><ellipse cx="29.75" cy="784.8291" fill="#84BE84" rx="1.5" ry="1.5" style="stroke:#038048;stroke-width:0.5;"/><text fill="#000000" font-family="sans-serif" font-size="7" lengthAdjust="spacing" textLength="78.9893" x="34.25" y="786.9775">boolean lowerThan(Date)</text><ellipse cx="29.75" cy="794.1396" fill="#84BE84" rx="1.5" ry="1.5" style="stroke:#038048;stroke-width:0.5;"/><text fill="#000000" font-family="sans-serif" font-size="7" lengthAdjust="spacing" textLength="77.8101" x="34.25" y="796.2881">boolean isCorrect(String)</text><ellipse cx="29.75" cy="803.4502" fill="#84BE84" rx="1.5" ry="1.5" style="stroke:#038048;stroke-width:0.5;"/><text fill="#000000" font-family="sans-serif" font-size="7" lengthAdjust="spacing" textLength="49.0171" x="34.25" y="805.5986">String toString()</text></g><!--class User--><g id="elem_User"><rect codeLine="36" fill="#F1F1F1" height="70.5527" id="User" rx="1.25" ry="1.25" style="stroke:#181818;stroke-width:0.25;" width="181.4717" x="745.75" y="715.5"/><ellipse cx="826.9712" cy="723.5" fill="#ADD1B2" rx="5.5" ry="5.5" style="stroke:#181818;stroke-width:0.5;"/><path d="M828.354,721.4375 Q828.4321,721.3281 828.5259,721.2734 Q828.6196,721.2188 828.729,721.2188 Q828.9165,721.2188 829.0337,721.3516 Q829.1509,721.4766 829.1509,721.7813 L829.1509,722.5078 Q829.1509,722.8125 829.0337,722.9453 Q828.9165,723.0781 828.729,723.0781 Q828.5571,723.0781 828.4556,722.9766 Q828.354,722.8828 828.2993,722.625 Q828.2759,722.4453 828.1821,722.3516 Q828.0181,722.1641 827.7134,722.0547 Q827.4087,721.9453 827.0962,721.9453 Q826.7134,721.9453 826.3931,722.1094 Q826.0806,722.2734 825.8306,722.6484 Q825.5884,723.0234 825.5884,723.5391 L825.5884,724.0859 Q825.5884,724.7031 826.0337,725.1172 Q826.479,725.5234 827.2759,725.5234 Q827.7446,725.5234 828.0728,725.3984 Q828.2681,725.3203 828.479,725.1016 Q828.6118,724.9688 828.6821,724.9297 Q828.7603,724.8906 828.8618,724.8906 Q829.0259,724.8906 829.1509,725.0234 Q829.2837,725.1484 829.2837,725.3203 Q829.2837,725.4922 829.1118,725.6953 Q828.8618,725.9844 828.4634,726.1484 Q827.9243,726.375 827.2759,726.375 Q826.5181,726.375 825.9165,726.0625 Q825.4243,725.8125 825.0806,725.2813 Q824.7368,724.7422 824.7368,724.1016 L824.7368,723.5234 Q824.7368,722.8594 825.0415,722.2891 Q825.354,721.7109 825.9009,721.4063 Q826.4478,721.0938 827.0649,721.0938 Q827.4321,721.0938 827.7524,721.1797 Q828.0806,721.2578 828.354,721.4375 Z " fill="#000000"/><text fill="#000000" font-family="sans-serif" font-size="7" lengthAdjust="spacing" textLength="14.7793" x="837.2212" y="726.3984">User</text><line style="stroke:#181818;stroke-width:0.25;" x1="746.25" x2="926.7217" y1="731.5" y2="731.5"/><rect fill="none" height="3" style="stroke:#C82930;stroke-width:0.5;" width="3" x="749.75" y="737.4053"/><text fill="#000000" font-family="sans-serif" font-size="7" lengthAdjust="spacing" textLength="51.3584" x="755.75" y="741.0537">String username</text><rect fill="none" height="3" style="stroke:#C82930;stroke-width:0.5;" width="3" x="749.75" y="746.7158"/><text fill="#000000" font-family="sans-serif" font-size="7" lengthAdjust="spacing" textLength="50.1895" x="755.75" y="750.3643">String password</text><line style="stroke:#181818;stroke-width:0.25;" x1="746.25" x2="926.7217" y1="754.1211" y2="754.1211"/><ellipse cx="751.25" cy="761.5264" fill="#84BE84" rx="1.5" ry="1.5" style="stroke:#038048;stroke-width:0.5;"/><text fill="#000000" font-family="sans-serif" font-size="7" lengthAdjust="spacing" textLength="168.4717" x="755.75" y="763.6748">void usernameValidate(String) throws ModelException</text><ellipse cx="751.25" cy="770.8369" fill="#84BE84" rx="1.5" ry="1.5" style="stroke:#038048;stroke-width:0.5;"/><text fill="#000000" font-family="sans-serif" font-size="7" lengthAdjust="spacing" textLength="72.3789" x="755.75" y="772.9854">boolean equals(Object)</text><ellipse cx="751.25" cy="780.1475" fill="#84BE84" rx="1.5" ry="1.5" style="stroke:#038048;stroke-width:0.5;"/><text fill="#000000" font-family="sans-serif" font-size="7" lengthAdjust="spacing" textLength="45.9136" x="755.75" y="782.2959">int hashCode()</text></g><!--class Validations--><g id="elem_Validations"><rect codeLine="224" fill="#F1F1F1" height="79.8633" id="Validations" rx="1.25" ry="1.25" style="stroke:#181818;stroke-width:0.25;" width="173.2993" x="545.75" y="3.5"/><ellipse cx="613.1523" cy="11.5" fill="#ADD1B2" rx="5.5" ry="5.5" style="stroke:#181818;stroke-width:0.5;"/><path d="M614.5352,9.4375 Q614.6133,9.3281 614.707,9.2734 Q614.8008,9.2188 614.9102,9.2188 Q615.0977,9.2188 615.2148,9.3516 Q615.332,9.4766 615.332,9.7813 L615.332,10.5078 Q615.332,10.8125 615.2148,10.9453 Q615.0977,11.0781 614.9102,11.0781 Q614.7383,11.0781 614.6367,10.9766 Q614.5352,10.8828 614.4805,10.625 Q614.457,10.4453 614.3633,10.3516 Q614.1992,10.1641 613.8945,10.0547 Q613.5898,9.9453 613.2773,9.9453 Q612.8945,9.9453 612.5742,10.1094 Q612.2617,10.2734 612.0117,10.6484 Q611.7695,11.0234 611.7695,11.5391 L611.7695,12.0859 Q611.7695,12.7031 612.2148,13.1172 Q612.6602,13.5234 613.457,13.5234 Q613.9258,13.5234 614.2539,13.3984 Q614.4492,13.3203 614.6602,13.1016 Q614.793,12.9688 614.8633,12.9297 Q614.9414,12.8906 615.043,12.8906 Q615.207,12.8906 615.332,13.0234 Q615.4648,13.1484 615.4648,13.3203 Q615.4648,13.4922 615.293,13.6953 Q615.043,13.9844 614.6445,14.1484 Q614.1055,14.375 613.457,14.375 Q612.6992,14.375 612.0977,14.0625 Q611.6055,13.8125 611.2617,13.2813 Q610.918,12.7422 610.918,12.1016 L610.918,11.5234 Q610.918,10.8594 611.2227,10.2891 Q611.5352,9.7109 612.082,9.4063 Q612.6289,9.0938 613.2461,9.0938 Q613.6133,9.0938 613.9336,9.1797 Q614.2617,9.2578 614.5352,9.4375 Z " fill="#000000"/><text fill="#000000" font-family="sans-serif" font-size="7" lengthAdjust="spacing" textLength="34.2446" x="623.4023" y="14.3984">Validations</text><line style="stroke:#181818;stroke-width:0.25;" x1="546.25" x2="718.5493" y1="19.5" y2="19.5"/><rect fill="none" height="3" style="stroke:#C82930;stroke-width:0.5;" width="3" x="549.75" y="25.4053"/><text fill="#000000" font-family="sans-serif" font-size="7" lengthAdjust="spacing" textLength="120.9927" x="555.75" y="29.0537">ArrayList&lt;Matchmaking&gt; matchmaking</text><line style="stroke:#181818;stroke-width:0.25;" x1="546.25" x2="718.5493" y1="32.8105" y2="32.8105"/><ellipse cx="551.25" cy="40.2158" fill="#84BE84" rx="1.5" ry="1.5" style="stroke:#038048;stroke-width:0.5;"/><text fill="#000000" font-family="sans-serif" font-size="7" lengthAdjust="spacing" textLength="76.6343" x="555.75" y="42.3643">MatchmakingController()</text><ellipse cx="551.25" cy="49.5264" fill="#84BE84" rx="1.5" ry="1.5" style="stroke:#038048;stroke-width:0.5;"/><text fill="#000000" font-family="sans-serif" font-size="7" lengthAdjust="spacing" textLength="157.189" x="555.75" y="51.6748">boolean createMatchmake(Participant, Participant)</text><ellipse cx="551.25" cy="58.8369" fill="#84BE84" rx="1.5" ry="1.5" style="stroke:#038048;stroke-width:0.5;"/><text fill="#000000" font-family="sans-serif" font-size="7" lengthAdjust="spacing" textLength="160.2993" x="555.75" y="60.9854">boolean randomMatchmake(ArrayList&lt;Participant&gt;)</text><ellipse cx="551.25" cy="68.1475" fill="#84BE84" rx="1.5" ry="1.5" style="stroke:#038048;stroke-width:0.5;"/><text fill="#000000" font-family="sans-serif" font-size="7" lengthAdjust="spacing" textLength="109.7202" x="555.75" y="70.2959">boolean isMatchmaked(Participant)</text><ellipse cx="551.25" cy="77.458" fill="#84BE84" rx="1.5" ry="1.5" style="stroke:#038048;stroke-width:0.5;"/><text fill="#000000" font-family="sans-serif" font-size="7" lengthAdjust="spacing" textLength="117.4893" x="555.75" y="79.6064">void removeMatchmaking(Participant)</text></g><!--class ModelException--><g id="elem_ModelException"><rect codeLine="188" fill="#F1F1F1" height="33.3105" id="ModelException" rx="1.25" ry="1.25" style="stroke:#181818;stroke-width:0.25;" width="116.103" x="737" y="26.75"/><ellipse cx="768.0232" cy="34.75" fill="#ADD1B2" rx="5.5" ry="5.5" style="stroke:#181818;stroke-width:0.5;"/><path d="M769.406,32.6875 Q769.4841,32.5781 769.5779,32.5234 Q769.6716,32.4688 769.781,32.4688 Q769.9685,32.4688 770.0857,32.6016 Q770.2029,32.7266 770.2029,33.0313 L770.2029,33.7578 Q770.2029,34.0625 770.0857,34.1953 Q769.9685,34.3281 769.781,34.3281 Q769.6091,34.3281 769.5076,34.2266 Q769.406,34.1328 769.3513,33.875 Q769.3279,33.6953 769.2341,33.6016 Q769.0701,33.4141 768.7654,33.3047 Q768.4607,33.1953 768.1482,33.1953 Q767.7654,33.1953 767.4451,33.3594 Q767.1326,33.5234 766.8826,33.8984 Q766.6404,34.2734 766.6404,34.7891 L766.6404,35.3359 Q766.6404,35.9531 767.0857,36.3672 Q767.531,36.7734 768.3279,36.7734 Q768.7966,36.7734 769.1248,36.6484 Q769.3201,36.5703 769.531,36.3516 Q769.6638,36.2188 769.7341,36.1797 Q769.8123,36.1406 769.9138,36.1406 Q770.0779,36.1406 770.2029,36.2734 Q770.3357,36.3984 770.3357,36.5703 Q770.3357,36.7422 770.1638,36.9453 Q769.9138,37.2344 769.5154,37.3984 Q768.9763,37.625 768.3279,37.625 Q767.5701,37.625 766.9685,37.3125 Q766.4763,37.0625 766.1326,36.5313 Q765.7888,35.9922 765.7888,35.3516 L765.7888,34.7734 Q765.7888,34.1094 766.0935,33.5391 Q766.406,32.9609 766.9529,32.6563 Q767.4998,32.3438 768.1169,32.3438 Q768.4841,32.3438 768.8044,32.4297 Q769.1326,32.5078 769.406,32.6875 Z " fill="#000000"/><text fill="#000000" font-family="sans-serif" font-size="7" lengthAdjust="spacing" textLength="49.8066" x="778.2732" y="37.6484">ModelException</text><line style="stroke:#181818;stroke-width:0.25;" x1="737.5" x2="852.603" y1="42.75" y2="42.75"/><line style="stroke:#181818;stroke-width:0.25;" x1="737.5" x2="852.603" y1="46.75" y2="46.75"/><ellipse cx="742.5" cy="54.1553" fill="#84BE84" rx="1.5" ry="1.5" style="stroke:#038048;stroke-width:0.5;"/><text fill="#000000" font-family="sans-serif" font-size="7" lengthAdjust="spacing" textLength="103.103" x="747" y="56.3037">ModelException(String message)</text></g><!--link App to I_O--><g id="link_App_I_O"><path codeLine="2" d="M501,64.88 C501,84.945 501,112.895 501,138.425 " fill="none" id="App-to-I_O" style="stroke:#181818;stroke-width:0.5;stroke-dasharray:7.0,7.0;"/><polygon fill="#181818" points="501,141.425,503,136.925,501,138.925,499,136.925,501,141.425" style="stroke:#181818;stroke-width:0.5;"/></g><!--link I_O to TournamentsController--><g id="link_I_O_TournamentsController"><path codeLine="3" d="M430.35,228.5 C386.55,254.54 331.7037,287.142 280.7937,317.407 " fill="none" id="I_O-to-TournamentsController" style="stroke:#181818;stroke-width:0.5;stroke-dasharray:7.0,7.0;"/><polygon fill="#181818" points="278.215,318.94,283.1051,318.3596,280.3639,317.6625,281.0611,314.9213,278.215,318.94" style="stroke:#181818;stroke-width:0.5;"/></g><!--link I_O to TeamsController--><g id="link_I_O_TeamsController"><path codeLine="4" d="M485.035,230.62 C473.71,261.915 459.4704,301.2589 447.4454,334.5039 " fill="none" id="I_O-to-TeamsController" style="stroke:#181818;stroke-width:0.5;stroke-dasharray:7.0,7.0;"/><polygon fill="#181818" points="446.425,337.325,449.8364,333.7736,447.2754,334.9741,446.0749,332.413,446.425,337.325" style="stroke:#181818;stroke-width:0.5;"/></g><!--link I_O to PlayersController--><g id="link_I_O_PlayersController"><path codeLine="5" d="M541.345,230.62 C569.96,261.915 606.4955,301.8661 636.8955,335.1111 " fill="none" id="I_O-to-PlayersController" style="stroke:#181818;stroke-width:0.5;stroke-dasharray:7.0,7.0;"/><polygon fill="#181818" points="638.92,337.325,637.3592,332.6544,637.2329,335.4801,634.4073,335.3537,638.92,337.325" style="stroke:#181818;stroke-width:0.5;"/></g><!--link I_O to AdminsController--><g id="link_I_O_AdminsController"><path codeLine="6" d="M541.67,230.515 C553.315,241.005 566.64,251.25 580.5,258.5 C686.015,313.685 738.545,259.17 841.5,319 C855.625,327.21 866.5219,337.134 877.1069,349.149 " fill="none" id="I_O-to-AdminsController" style="stroke:#181818;stroke-width:0.5;stroke-dasharray:7.0,7.0;"/><polygon fill="#181818" points="879.09,351.4,877.616,346.7013,877.4374,349.5241,874.6146,349.3455,879.09,351.4" style="stroke:#181818;stroke-width:0.5;"/></g><!--link I_O to Authentication--><g id="link_I_O_Authentication"><path codeLine="7" d="M571.61,186 C577.38,186 580.15,186 585.92,186 " fill="none" id="I_O-to-Authentication" style="stroke:#181818;stroke-width:0.5;stroke-dasharray:7.0,7.0;"/><polygon fill="#181818" points="588.92,186,584.42,184,586.42,186,584.42,188,588.92,186" style="stroke:#181818;stroke-width:0.5;"/></g><!--link TeamsController to PlayersController--><g id="link_TeamsController_PlayersController"><path codeLine="8" d="M529.02,391.5 C534.82,391.5 534.62,391.5 540.42,391.5 " fill="none" id="TeamsController-PlayersController" style="stroke:#181818;stroke-width:0.5;stroke-dasharray:7.0,7.0;"/><polygon fill="#181818" points="526.02,391.5,530.52,393.5,528.52,391.5,530.52,389.5,526.02,391.5" style="stroke:#181818;stroke-width:0.5;"/><polygon fill="#181818" points="543.42,391.5,538.92,389.5,540.92,391.5,538.92,393.5,543.42,391.5" style="stroke:#181818;stroke-width:0.5;"/></g><!--link PlayersController to AdminsController--><g id="link_PlayersController_AdminsController"><path codeLine="9" d="M835.59,391.5 C841.385,391.5 841.175,391.5 846.97,391.5 " fill="none" id="PlayersController-AdminsController" style="stroke:#181818;stroke-width:0.5;stroke-dasharray:7.0,7.0;"/><polygon fill="#181818" points="832.59,391.5,837.09,393.5,835.09,391.5,837.09,389.5,832.59,391.5" style="stroke:#181818;stroke-width:0.5;"/><polygon fill="#181818" points="849.97,391.5,845.47,389.5,847.47,391.5,845.47,393.5,849.97,391.5" style="stroke:#181818;stroke-width:0.5;"/></g><!--link TournamentsController to TeamsController--><g id="link_TournamentsController_TeamsController"><path codeLine="10" d="M313.59,391.5 C319.35,391.5 319.11,391.5 324.87,391.5 " fill="none" id="TournamentsController-TeamsController" style="stroke:#181818;stroke-width:0.5;stroke-dasharray:7.0,7.0;"/><polygon fill="#181818" points="310.59,391.5,315.09,393.5,313.09,391.5,315.09,389.5,310.59,391.5" style="stroke:#181818;stroke-width:0.5;"/><polygon fill="#181818" points="327.87,391.5,323.37,389.5,325.37,391.5,323.37,393.5,327.87,391.5" style="stroke:#181818;stroke-width:0.5;"/></g><!--reverse link TournamentsController to Tournament--><g id="link_TournamentsController_Tournament"><path codeLine="11" d="M181.3203,469.7917 C199.8453,529.0467 224.3,607.265 243.575,668.915 " fill="none" id="TournamentsController-backto-Tournament" style="stroke:#181818;stroke-width:0.5;"/><polygon fill="#181818" points="179.53,464.065,178.5163,467.5251,181.3203,469.7917,182.3341,466.3316,179.53,464.065" style="stroke:#181818;stroke-width:0.5;"/></g><!--reverse link Tournament to MatchmakingController--><g id="link_Tournament_MatchmakingController"><path codeLine="12" d="M293.2696,838.3601 C296.1546,848.7201 297.39,853.15 299.975,862.42 " fill="none" id="Tournament-backto-MatchmakingController" style="stroke:#181818;stroke-width:0.5;"/><polygon fill="none" points="291.66,832.58,290.5381,836.0066,293.2696,838.3601,294.3915,834.9335,291.66,832.58" style="stroke:#181818;stroke-width:0.5;"/></g><!--reverse link MatchmakingController to Matchmaking--><g id="link_MatchmakingController_Matchmaking"><path codeLine="13" d="M337.617,947.7569 C343.612,957.8369 346.835,963.25 352.29,972.42 " fill="none" id="MatchmakingController-backto-Matchmaking" style="stroke:#181818;stroke-width:0.5;"/><polygon fill="#181818" points="334.55,942.6,334.3645,946.2008,337.617,947.7569,337.8025,944.1561,334.55,942.6" style="stroke:#181818;stroke-width:0.5;"/></g><!--reverse link AdminsController to Admin--><g id="link_AdminsController_Admin"><path codeLine="14" d="M903.9325,437.6763 C900.6075,474.9913 896.33,523 893.95,549.735 " fill="none" id="AdminsController-backto-Admin" style="stroke:#181818;stroke-width:0.5;"/><polygon fill="#181818" points="904.465,431.7,902.2066,434.5107,903.9325,437.6763,906.1908,434.8657,904.465,431.7" style="stroke:#181818;stroke-width:0.5;"/></g><!--reverse link PlayersController to Player--><g id="link_PlayersController_Player"><path codeLine="15" d="M675.5183,451.4972 C672.3133,466.7772 670,477.8 666.605,493.98 " fill="none" id="PlayersController-backto-Player" style="stroke:#181818;stroke-width:0.5;"/><polygon fill="#181818" points="676.75,445.625,674.1767,448.1505,675.5183,451.4972,678.0916,448.9717,676.75,445.625" style="stroke:#181818;stroke-width:0.5;"/></g><!--reverse link Player to Stat--><g id="link_Player_Stat"><path codeLine="16" d="M641.2863,644.9793 C638.5513,665.8743 636.405,682.245 633.9,701.365 " fill="none" id="Player-backto-Stat" style="stroke:#181818;stroke-width:0.5;"/><polygon fill="none" points="642.065,639.03,639.6926,641.7451,641.2863,644.9793,643.6587,642.2642,642.065,639.03" style="stroke:#181818;stroke-width:0.5;"/></g><!--link Stat to Categories--><g id="link_Stat_Categories"><path codeLine="17" d="M604.45,800.195 C591.53,827.62 577.3731,857.6759 567.5731,878.4859 " fill="none" id="Stat-to-Categories" style="stroke:#181818;stroke-width:0.5;stroke-dasharray:7.0,7.0;"/><polygon fill="#181818" points="566.295,881.2,570.0216,877.9809,567.3601,878.9382,566.4028,876.2768,566.295,881.2" style="stroke:#181818;stroke-width:0.5;"/></g><!--reverse link TeamsController to Team--><g id="link_TeamsController_Team"><path codeLine="18" d="M432.3076,451.6013 C433.8026,468.3763 434.94,481.13 436.505,498.72 " fill="none" id="TeamsController-backto-Team" style="stroke:#181818;stroke-width:0.5;"/><polygon fill="#181818" points="431.775,445.625,430.0492,448.7907,432.3076,451.6013,434.0334,448.4356,431.775,445.625" style="stroke:#181818;stroke-width:0.5;"/></g><!--reverse link Team to Player--><g id="link_Team_Player"><path codeLine="19" d="M523.61,566.5 C529.405,566.5 529.205,566.5 535,566.5 " fill="none" id="Team-backto-Player" style="stroke:#181818;stroke-width:0.5;"/><polygon fill="none" points="517.61,566.5,520.61,568.5,523.61,566.5,520.61,564.5,517.61,566.5" style="stroke:#181818;stroke-width:0.5;"/></g><!--reverse link Tournament to Participant--><g id="link_Tournament_Participant"><path codeLine="20" d="M404.94,750.75 C410.7,750.75 410.46,750.75 416.22,750.75 " fill="none" id="Tournament-backto-Participant" style="stroke:#181818;stroke-width:0.5;"/><polygon fill="none" points="398.94,750.75,401.94,752.75,404.94,750.75,401.94,748.75,398.94,750.75" style="stroke:#181818;stroke-width:0.5;"/></g><!--reverse link Date to Tournament--><g id="link_Date_Tournament"><path codeLine="21" d="M124.81,750.75 C130.605,750.75 133.405,750.75 139.2,750.75 " fill="none" id="Date-backto-Tournament" style="stroke:#181818;stroke-width:0.5;"/><polygon fill="#181818" points="121.81,750.75,126.31,752.75,124.31,750.75,126.31,748.75,121.81,750.75" style="stroke:#181818;stroke-width:0.5;"/></g><!--link Tournament to Categories--><g id="link_Tournament_Categories"><path codeLine="22" d="M398.92,827.945 C401.8,829.49 404.66,831.01 407.5,832.5 C440.86,850.015 476.6931,866.7164 506.2331,879.9764 " fill="none" id="Tournament-to-Categories" style="stroke:#181818;stroke-width:0.5;stroke-dasharray:7.0,7.0;"/><polygon fill="#181818" points="508.97,881.205,505.6837,877.5376,506.6892,880.1812,504.0456,881.1868,508.97,881.205" style="stroke:#181818;stroke-width:0.5;"/></g><!--link Team to Participant--><g id="link_Team_Participant"><path codeLine="23" d="M451.5,634.325 C456.305,670.265 460.6365,702.6595 463.6215,724.9695 " fill="none" id="Team-to-Participant" style="stroke:#181818;stroke-width:0.5;stroke-dasharray:7.0,7.0;"/><polygon fill="none" points="464.815,733.89,466.595,724.5716,460.648,725.3673,464.815,733.89" style="stroke:#181818;stroke-width:0.5;"/></g><!--link Player to Participant--><g id="link_Player_Participant"><path codeLine="24" d="M578.98,639.03 C543.965,673.805 511.3662,706.1884 489.8712,727.5334 " fill="none" id="Player-to-Participant" style="stroke:#181818;stroke-width:0.5;stroke-dasharray:7.0,7.0;"/><polygon fill="none" points="483.485,733.875,491.9851,729.6621,487.7573,725.4046,483.485,733.875" style="stroke:#181818;stroke-width:0.5;"/></g><!--link Player to User--><g id="link_Player_User"><path codeLine="25" d="M724.22,639.03 C750.725,665.285 773.111,687.4612 794.896,709.0412 " fill="none" id="Player-to-User" style="stroke:#181818;stroke-width:0.5;"/><polygon fill="none" points="801.29,715.375,797.0073,706.9099,792.7848,711.1725,801.29,715.375" style="stroke:#181818;stroke-width:0.5;"/></g><!--link Admin to User--><g id="link_Admin_User"><path codeLine="26" d="M887.53,583.26 C878.51,612.78 861.8847,667.1778 849.7797,706.7978 " fill="none" id="Admin-to-User" style="stroke:#181818;stroke-width:0.5;"/><polygon fill="none" points="847.15,715.405,852.6488,707.6744,846.9107,705.9212,847.15,715.405" style="stroke:#181818;stroke-width:0.5;"/></g><!--link Participant to Matchmaking--><g id="link_Participant_Matchmaking"><path codeLine="27" d="M463.635,767.5 C456.25,801.31 436.845,881.165 406.5,942.5 C401.38,952.845 397.9837,958.5401 391.3987,967.6351 " fill="none" id="Participant-to-Matchmaking" style="stroke:#181818;stroke-width:0.5;"/><polygon fill="#181818" points="387.88,972.495,391.2593,971.2379,391.3987,967.6351,388.0194,968.8921,387.88,972.495" style="stroke:#181818;stroke-width:0.5;"/></g><!--link Validations to ModelException--><g id="link_Validations_ModelException"><path codeLine="28" d="M719.305,43.5 C725.17,43.5 728.035,43.5 733.9,43.5 " fill="none" id="Validations-to-ModelException" style="stroke:#181818;stroke-width:0.5;stroke-dasharray:7.0,7.0;"/><polygon fill="#181818" points="736.9,43.5,732.4,41.5,734.4,43.5,732.4,45.5,736.9,43.5" style="stroke:#181818;stroke-width:0.5;"/></g><!--SRC=[xHZBRjiuyEwluD5kutv1OC18U_0YQO8aMs1H50KZiJQtagYIahFUxFxx3b_YKAHiPtkjWTZIl5-S6MRTjkJTknNPVBsTmHyymykZw6L3QzPqwaeqdHHLnIH2Crfd4NSLFJ2PHQtBcZS91k1zjmCzlA0T5yri99fSPgKc44ENgCYwOKZ77kGftooNA1I8Y0Z0tD2ksDNqEs-sI58MQYGXp6nigY4mm8nl6cUX3cdKFtIqc-alaxuhsh6ja9of98J62u0P1B1wMP4xv8vAI09lAJZw7eIHoodVC-e0ziyg4k4CdO8lbm3_NO4LncdqZeW1kdmJXUqJhNXf2aNfshaH9Qi-_5MmrjJER5PKL2coRjkN6O7FMzw0AE3f3CzyOQ4rvVhvNq-lzLe67LK9YaWF8Erk36s1-bd8qeeXUy7BWTAPnkQMTa6wdHJFQcoZvNmIecAq8Un7JoirlttwanMTiuvmy7n7rUuAEB6PDdGZGrCZLP-nl6ou0wobf8ThhhfBNJihek1RUPp9HI4PxOHqrbYjpgkBOp-6-vZVInini2NayOnmfJP3MZj8gtvHFgbMjjg9PmF-JOLyZr1NQZzWV2BwLkTEexsdUrhrp9ED3TYoBbRkmjm9-u3JPiBouWNf5wU2N1ptVP0G3fiJu_Z12eSwU965UrzWmizV42b8mTPfDqObvMKuQ2dwfueH4u_1so5Eem1Wa-Be9xPwj9CFd9-qYeJDGYtL6U7MxMZwZ8H4shfUaTQss_zvEhIs-VdrVtuXXu9CYWmYzH4yIcgObgKxhFPdZ9Ui5diMdUV5p_GZr9XVql26DWun3Y_A2KNCSqHxWOS56Pl7bMTZ9UR2wH_cr7GHcF46cPMTVi90rfG8v3X1zROVDzbMo2v_REvfy_sLuPZO9KYDHf-hjy6zeOaOo-qtl0pGqSDvyqYNK30k3d6sc8uJJ_WF1Gn1AaND_sPONwZqQKPChYCDXV0wfe4y7tAWngKvxkDehth1RG7lMtt3V_Hiqq25DKNQU0pz2aAjsV1OG3A2JwRdW55uS2mck3ITLnjt4yYh5M3b6Tt9Pf7nBTr5JpYNwwflKp63TQc2d0zkQTIPFDQzJ6kE6vml_-dVarqxo0SKwuutK7s01DTbDjOJ3p1Fh-SBn8qNwW7Maq5eABheTZIKN0JDvqGljQJefGH2irW7yEEXPMPlrG- -bYAHeVvYJRdaU5SgiTs4rOR4yJ5L21ItVJTFk_grs6vPkMaoayxREw2CNthD2Au1pY1PqzV1GHii_Lc_lzbyXCbolVxZmtrkL6GgFtyXF57zWMa5kyaW8EdTkPEGLtWiuBOSaucG9xkZgaCgCceX3oVQkP-7F1Rbbp48Ulv49YQUEfMld5eXrAXrtymdH-4vxElvAU9rMOxScQQzDzCo8O-MrbmHZcxofyeFoA7mD1DQJxF5DX9yhCnS3j6Y-_gUYRYn2L1ocoQ36m88g3F235JJ0OPcpEGtMZ2yMRwWYuo_pALNgB3fHXvwvXZgsMkc5DqonAqtCvzHlKiV69NejOOqxD1xIGzEWMQSQz056RuN61V7mu36mTcQxCd77MtccY3jsiz7i1oA1DfiCN7Rozs_DbzllRFVU4Chyb3Gfe4QKmMU1UxcexirDAEZfMGlWdfTJxo3izN7cuw6k5Kd6bq9aHlZem6NhhbxpfxNSjlZNlVvYyj5xYwKsH274uh8LfdjFYjbua0EDw79wrFYYzcv0rz-Npx_peK2Qcy34tSw52Rq_xjVmHc2yny0]--></g></svg>