<svg xmlns="http://www.w3.org/2000/svg" xmlns:xlink="http://www.w3.org/1999/xlink" contentStyleType="text/css" height="1032px" preserveAspectRatio="none" style="width:1008px;height:1032px;background:#FFFFFF;" version="1.1" viewBox="0 0 1008 1032" width="1008.5px" zoomAndPan="magnify"><defs/><g><!--class App--><g id="elem_App"><rect codeLine="39" fill="#F1F1F1" height="42.6211" id="App" rx="1.25" ry="1.25" style="stroke:#181818;stroke-width:0.25;" width="53.8481" x="545.75" y="3.5"/><ellipse cx="564.6769" cy="11.5" fill="#ADD1B2" rx="5.5" ry="5.5" style="stroke:#181818;stroke-width:0.5;"/><path d="M566.0597,9.4375 Q566.1378,9.3281 566.2316,9.2734 Q566.3253,9.2188 566.4347,9.2188 Q566.6222,9.2188 566.7394,9.3516 Q566.8566,9.4766 566.8566,9.7813 L566.8566,10.5078 Q566.8566,10.8125 566.7394,10.9453 Q566.6222,11.0781 566.4347,11.0781 Q566.2628,11.0781 566.1613,10.9766 Q566.0597,10.8828 566.005,10.625 Q565.9816,10.4453 565.8878,10.3516 Q565.7238,10.1641 565.4191,10.0547 Q565.1144,9.9453 564.8019,9.9453 Q564.4191,9.9453 564.0988,10.1094 Q563.7863,10.2734 563.5363,10.6484 Q563.2941,11.0234 563.2941,11.5391 L563.2941,12.0859 Q563.2941,12.7031 563.7394,13.1172 Q564.1847,13.5234 564.9816,13.5234 Q565.4503,13.5234 565.7784,13.3984 Q565.9738,13.3203 566.1847,13.1016 Q566.3175,12.9688 566.3878,12.9297 Q566.4659,12.8906 566.5675,12.8906 Q566.7316,12.8906 566.8566,13.0234 Q566.9894,13.1484 566.9894,13.3203 Q566.9894,13.4922 566.8175,13.6953 Q566.5675,13.9844 566.1691,14.1484 Q565.63,14.375 564.9816,14.375 Q564.2238,14.375 563.6222,14.0625 Q563.13,13.8125 562.7863,13.2813 Q562.4425,12.7422 562.4425,12.1016 L562.4425,11.5234 Q562.4425,10.8594 562.7472,10.2891 Q563.0597,9.7109 563.6066,9.4063 Q564.1534,9.0938 564.7706,9.0938 Q565.1378,9.0938 565.4581,9.1797 Q565.7863,9.2578 566.0597,9.4375 Z " fill="#000000"/><text fill="#000000" font-family="sans-serif" font-size="7" lengthAdjust="spacing" textLength="12.4551" x="574.2162" y="14.3984">App</text><line style="stroke:#181818;stroke-width:0.25;" x1="546.25" x2="599.0981" y1="19.5" y2="19.5"/><line style="stroke:#181818;stroke-width:0.25;" x1="546.25" x2="599.0981" y1="23.5" y2="23.5"/><ellipse cx="551.25" cy="30.9053" fill="#84BE84" rx="1.5" ry="1.5" style="stroke:#038048;stroke-width:0.5;"/><text fill="#000000" font-family="sans-serif" font-size="7" lengthAdjust="spacing" textLength="40.8481" x="555.75" y="33.0537">inicialitation()</text><ellipse cx="551.25" cy="40.2158" fill="#84BE84" rx="1.5" ry="1.5" style="stroke:#038048;stroke-width:0.5;"/><text fill="#000000" font-family="sans-serif" font-size="7" lengthAdjust="spacing" textLength="19.8345" x="555.75" y="42.3643">main()</text></g><!--class I_O--><g id="elem_I_O"><rect codeLine="215" fill="#F1F1F1" height="89.1738" id="I_O" rx="1.25" ry="1.25" style="stroke:#181818;stroke-width:0.25;" width="140.9927" x="502.25" y="76"/><ellipse cx="564.98" cy="84" fill="#ADD1B2" rx="5.5" ry="5.5" style="stroke:#181818;stroke-width:0.5;"/><path d="M566.3628,81.9375 Q566.4409,81.8281 566.5347,81.7734 Q566.6284,81.7188 566.7378,81.7188 Q566.9253,81.7188 567.0425,81.8516 Q567.1597,81.9766 567.1597,82.2813 L567.1597,83.0078 Q567.1597,83.3125 567.0425,83.4453 Q566.9253,83.5781 566.7378,83.5781 Q566.5659,83.5781 566.4644,83.4766 Q566.3628,83.3828 566.3081,83.125 Q566.2847,82.9453 566.1909,82.8516 Q566.0269,82.6641 565.7222,82.5547 Q565.4175,82.4453 565.105,82.4453 Q564.7222,82.4453 564.4019,82.6094 Q564.0894,82.7734 563.8394,83.1484 Q563.5972,83.5234 563.5972,84.0391 L563.5972,84.5859 Q563.5972,85.2031 564.0425,85.6172 Q564.4878,86.0234 565.2847,86.0234 Q565.7534,86.0234 566.0815,85.8984 Q566.2769,85.8203 566.4878,85.6016 Q566.6206,85.4688 566.6909,85.4297 Q566.769,85.3906 566.8706,85.3906 Q567.0347,85.3906 567.1597,85.5234 Q567.2925,85.6484 567.2925,85.8203 Q567.2925,85.9922 567.1206,86.1953 Q566.8706,86.4844 566.4722,86.6484 Q565.9331,86.875 565.2847,86.875 Q564.5269,86.875 563.9253,86.5625 Q563.4331,86.3125 563.0894,85.7813 Q562.7456,85.2422 562.7456,84.6016 L562.7456,84.0234 Q562.7456,83.3594 563.0503,82.7891 Q563.3628,82.2109 563.9097,81.9063 Q564.4565,81.5938 565.0737,81.5938 Q565.4409,81.5938 565.7612,81.6797 Q566.0894,81.7578 566.3628,81.9375 Z " fill="#000000"/><text fill="#000000" font-family="sans-serif" font-size="7" lengthAdjust="spacing" textLength="11.2827" x="575.23" y="86.8984">I_O</text><line style="stroke:#181818;stroke-width:0.25;" x1="502.75" x2="642.7427" y1="92" y2="92"/><rect fill="none" height="3" style="stroke:#C82930;stroke-width:0.5;" width="3" x="506.25" y="97.9053"/><text fill="#000000" font-family="sans-serif" font-size="7" lengthAdjust="spacing" textLength="49.8032" x="512.25" y="101.5537">final Scanner sc</text><line style="stroke:#181818;stroke-width:0.25;" x1="502.75" x2="642.7427" y1="105.3105" y2="105.3105"/><ellipse cx="507.75" cy="112.7158" fill="#84BE84" rx="1.5" ry="1.5" style="stroke:#038048;stroke-width:0.5;"/><text fill="#000000" font-family="sans-serif" font-size="7" lengthAdjust="spacing" textLength="127.9927" x="512.25" y="114.8643">void initialUsers() throws ModelException</text><ellipse cx="507.75" cy="122.0264" fill="#84BE84" rx="1.5" ry="1.5" style="stroke:#038048;stroke-width:0.5;"/><text fill="#000000" font-family="sans-serif" font-size="7" lengthAdjust="spacing" textLength="33.062" x="512.25" y="124.1748">void start()</text><ellipse cx="507.75" cy="131.3369" fill="#84BE84" rx="1.5" ry="1.5" style="stroke:#038048;stroke-width:0.5;"/><text fill="#000000" font-family="sans-serif" font-size="7" lengthAdjust="spacing" textLength="49.0308" x="512.25" y="133.4854">boolean menu()</text><ellipse cx="507.75" cy="140.6475" fill="#84BE84" rx="1.5" ry="1.5" style="stroke:#038048;stroke-width:0.5;"/><text fill="#000000" font-family="sans-serif" font-size="7" lengthAdjust="spacing" textLength="101.165" x="512.25" y="142.7959">void menuAdmin(Authentication)</text><ellipse cx="507.75" cy="149.958" fill="#84BE84" rx="1.5" ry="1.5" style="stroke:#038048;stroke-width:0.5;"/><text fill="#000000" font-family="sans-serif" font-size="7" lengthAdjust="spacing" textLength="103.1099" x="512.25" y="152.1064">void menuPlayer(Authentication )</text><ellipse cx="507.75" cy="159.2686" fill="#84BE84" rx="1.5" ry="1.5" style="stroke:#038048;stroke-width:0.5;"/><text fill="#000000" font-family="sans-serif" font-size="7" lengthAdjust="spacing" textLength="119.0547" x="512.25" y="161.417">boolean reviewArguments(String[], int)</text></g><!--class TournamentsController--><g id="elem_TournamentsController"><rect codeLine="165" fill="#F1F1F1" height="145.0371" id="TournamentsController" rx="1.25" ry="1.25" style="stroke:#181818;stroke-width:0.25;" width="307.1401" x="6.25" y="370"/><ellipse cx="121.9021" cy="378" fill="#ADD1B2" rx="5.5" ry="5.5" style="stroke:#181818;stroke-width:0.5;"/><path d="M123.2849,375.9375 Q123.363,375.8281 123.4568,375.7734 Q123.5505,375.7188 123.6599,375.7188 Q123.8474,375.7188 123.9646,375.8516 Q124.0818,375.9766 124.0818,376.2813 L124.0818,377.0078 Q124.0818,377.3125 123.9646,377.4453 Q123.8474,377.5781 123.6599,377.5781 Q123.488,377.5781 123.3865,377.4766 Q123.2849,377.3828 123.2302,377.125 Q123.2068,376.9453 123.113,376.8516 Q122.949,376.6641 122.6443,376.5547 Q122.3396,376.4453 122.0271,376.4453 Q121.6443,376.4453 121.324,376.6094 Q121.0115,376.7734 120.7615,377.1484 Q120.5193,377.5234 120.5193,378.0391 L120.5193,378.5859 Q120.5193,379.2031 120.9646,379.6172 Q121.4099,380.0234 122.2068,380.0234 Q122.6755,380.0234 123.0037,379.8984 Q123.199,379.8203 123.4099,379.6016 Q123.5427,379.4688 123.613,379.4297 Q123.6912,379.3906 123.7927,379.3906 Q123.9568,379.3906 124.0818,379.5234 Q124.2146,379.6484 124.2146,379.8203 Q124.2146,379.9922 124.0427,380.1953 Q123.7927,380.4844 123.3943,380.6484 Q122.8552,380.875 122.2068,380.875 Q121.449,380.875 120.8474,380.5625 Q120.3552,380.3125 120.0115,379.7813 Q119.6677,379.2422 119.6677,378.6016 L119.6677,378.0234 Q119.6677,377.3594 119.9724,376.7891 Q120.2849,376.2109 120.8318,375.9063 Q121.3787,375.5938 121.9958,375.5938 Q122.363,375.5938 122.6833,375.6797 Q123.0115,375.7578 123.2849,375.9375 Z " fill="#000000"/><text fill="#000000" font-family="sans-serif" font-size="7" lengthAdjust="spacing" textLength="71.5859" x="132.1521" y="380.8984">TournamentsController</text><line style="stroke:#181818;stroke-width:0.25;" x1="6.75" x2="312.8901" y1="386" y2="386"/><rect fill="none" height="3" style="stroke:#C82930;stroke-width:0.5;" width="3" x="10.25" y="391.9053"/><text fill="#000000" font-family="sans-serif" font-size="7" lengthAdjust="spacing" textLength="121.0132" x="16.25" y="395.5537">TournamentsController uniqueInstance</text><rect fill="none" height="3" style="stroke:#C82930;stroke-width:0.5;" width="3" x="10.25" y="401.2158"/><text fill="#000000" font-family="sans-serif" font-size="7" lengthAdjust="spacing" textLength="114.3892" x="16.25" y="404.8643">ArrayList&lt;Tournament&gt; tournaments</text><line style="stroke:#181818;stroke-width:0.25;" x1="6.75" x2="312.8901" y1="408.6211" y2="408.6211"/><rect fill="#F24D5C" height="3" style="stroke:#C82930;stroke-width:0.5;" width="3" x="10.25" y="414.5264"/><text fill="#000000" font-family="sans-serif" font-size="7" lengthAdjust="spacing" textLength="76.248" x="16.25" y="418.1748">TournamentsController()</text><ellipse cx="11.75" cy="425.3369" fill="#84BE84" rx="1.5" ry="1.5" style="stroke:#038048;stroke-width:0.5;"/><text fill="#000000" font-family="sans-serif" font-size="7" lengthAdjust="spacing" textLength="114.3857" x="16.25" y="427.4854">TournamentsController getInstance()</text><ellipse cx="11.75" cy="434.6475" fill="#84BE84" rx="1.5" ry="1.5" style="stroke:#038048;stroke-width:0.5;"/><text fill="#000000" font-family="sans-serif" font-size="7" lengthAdjust="spacing" textLength="106.6201" x="16.25" y="436.7959">boolean deleteTournament(String)</text><ellipse cx="11.75" cy="443.958" fill="#84BE84" rx="1.5" ry="1.5" style="stroke:#038048;stroke-width:0.5;"/><text fill="#000000" font-family="sans-serif" font-size="7" lengthAdjust="spacing" textLength="105.8408" x="16.25" y="446.1064">boolean deletePastTournaments()</text><ellipse cx="11.75" cy="453.2686" fill="#84BE84" rx="1.5" ry="1.5" style="stroke:#038048;stroke-width:0.5;"/><text fill="#000000" font-family="sans-serif" font-size="7" lengthAdjust="spacing" textLength="115.5479" x="16.25" y="455.417">Tournament isParticipant(Participant)</text><ellipse cx="11.75" cy="462.5791" fill="#84BE84" rx="1.5" ry="1.5" style="stroke:#038048;stroke-width:0.5;"/><text fill="#000000" font-family="sans-serif" font-size="7" lengthAdjust="spacing" textLength="108.1514" x="16.25" y="464.7275">String listTournaments(String type)</text><ellipse cx="11.75" cy="471.8896" fill="#84BE84" rx="1.5" ry="1.5" style="stroke:#038048;stroke-width:0.5;"/><text fill="#000000" font-family="sans-serif" font-size="7" lengthAdjust="spacing" textLength="294.1401" x="16.25" y="474.0381">boolean createTournament(String, String, String, String, String , String) throws ModelException</text><ellipse cx="11.75" cy="481.2002" fill="#84BE84" rx="1.5" ry="1.5" style="stroke:#038048;stroke-width:0.5;"/><text fill="#000000" font-family="sans-serif" font-size="7" lengthAdjust="spacing" textLength="180.9165" x="16.25" y="483.3486">boolean tournamentMatchmakingM(String , String , String)</text><ellipse cx="11.75" cy="490.5107" fill="#84BE84" rx="1.5" ry="1.5" style="stroke:#038048;stroke-width:0.5;"/><text fill="#000000" font-family="sans-serif" font-size="7" lengthAdjust="spacing" textLength="131.5132" x="16.25" y="492.6592">boolean tournamentMatchmakingA(String)</text><ellipse cx="11.75" cy="499.8213" fill="#84BE84" rx="1.5" ry="1.5" style="stroke:#038048;stroke-width:0.5;"/><text fill="#000000" font-family="sans-serif" font-size="7" lengthAdjust="spacing" textLength="119.8477" x="16.25" y="501.9697">boolean tournamentAdd(String, String)</text><ellipse cx="11.75" cy="509.1318" fill="#84BE84" rx="1.5" ry="1.5" style="stroke:#038048;stroke-width:0.5;"/><text fill="#000000" font-family="sans-serif" font-size="7" lengthAdjust="spacing" textLength="133.458" x="16.25" y="511.2803">boolean tournamentRemove(String, String)</text></g><!--class TeamsController--><g id="elem_TeamsController"><rect codeLine="181" fill="#F1F1F1" height="107.7949" id="TeamsController" rx="1.25" ry="1.25" style="stroke:#181818;stroke-width:0.25;" width="198.1992" x="330.75" y="388.5"/><ellipse cx="401.8557" cy="396.5" fill="#ADD1B2" rx="5.5" ry="5.5" style="stroke:#181818;stroke-width:0.5;"/><path d="M403.2385,394.4375 Q403.3167,394.3281 403.4104,394.2734 Q403.5042,394.2188 403.6135,394.2188 Q403.801,394.2188 403.9182,394.3516 Q404.0354,394.4766 404.0354,394.7813 L404.0354,395.5078 Q404.0354,395.8125 403.9182,395.9453 Q403.801,396.0781 403.6135,396.0781 Q403.4417,396.0781 403.3401,395.9766 Q403.2385,395.8828 403.1838,395.625 Q403.1604,395.4453 403.0667,395.3516 Q402.9026,395.1641 402.5979,395.0547 Q402.2932,394.9453 401.9807,394.9453 Q401.5979,394.9453 401.2776,395.1094 Q400.9651,395.2734 400.7151,395.6484 Q400.4729,396.0234 400.4729,396.5391 L400.4729,397.0859 Q400.4729,397.7031 400.9182,398.1172 Q401.3635,398.5234 402.1604,398.5234 Q402.6292,398.5234 402.9573,398.3984 Q403.1526,398.3203 403.3635,398.1016 Q403.4963,397.9688 403.5667,397.9297 Q403.6448,397.8906 403.7463,397.8906 Q403.9104,397.8906 404.0354,398.0234 Q404.1682,398.1484 404.1682,398.3203 Q404.1682,398.4922 403.9963,398.6953 Q403.7463,398.9844 403.3479,399.1484 Q402.8088,399.375 402.1604,399.375 Q401.4026,399.375 400.801,399.0625 Q400.3088,398.8125 399.9651,398.2813 Q399.6213,397.7422 399.6213,397.1016 L399.6213,396.5234 Q399.6213,395.8594 399.926,395.2891 Q400.2385,394.7109 400.7854,394.4063 Q401.3323,394.0938 401.9495,394.0938 Q402.3167,394.0938 402.637,394.1797 Q402.9651,394.2578 403.2385,394.4375 Z " fill="#000000"/><text fill="#000000" font-family="sans-serif" font-size="7" lengthAdjust="spacing" textLength="51.7378" x="412.1057" y="399.3984">TeamsController</text><line style="stroke:#181818;stroke-width:0.25;" x1="331.25" x2="528.4492" y1="404.5" y2="404.5"/><rect fill="none" height="3" style="stroke:#C82930;stroke-width:0.5;" width="3" x="334.75" y="410.4053"/><text fill="#000000" font-family="sans-serif" font-size="7" lengthAdjust="spacing" textLength="101.165" x="340.75" y="414.0537">TeamsController uniqueInstance</text><rect fill="none" height="3" style="stroke:#C82930;stroke-width:0.5;" width="3" x="334.75" y="419.7158"/><text fill="#000000" font-family="sans-serif" font-size="7" lengthAdjust="spacing" textLength="74.6929" x="340.75" y="423.3643">ArrayList&lt;Team&gt; teams</text><line style="stroke:#181818;stroke-width:0.25;" x1="331.25" x2="528.4492" y1="427.1211" y2="427.1211"/><rect fill="#F24D5C" height="3" style="stroke:#C82930;stroke-width:0.5;" width="3" x="334.75" y="433.0264"/><text fill="#000000" font-family="sans-serif" font-size="7" lengthAdjust="spacing" textLength="56.3999" x="340.75" y="436.6748">TeamsController()</text><ellipse cx="336.25" cy="443.8369" fill="#84BE84" rx="1.5" ry="1.5" style="stroke:#038048;stroke-width:0.5;"/><text fill="#000000" font-family="sans-serif" font-size="7" lengthAdjust="spacing" textLength="94.5376" x="340.75" y="445.9854">TeamsController getInstance()</text><ellipse cx="336.25" cy="453.1475" fill="#84BE84" rx="1.5" ry="1.5" style="stroke:#038048;stroke-width:0.5;"/><text fill="#000000" font-family="sans-serif" font-size="7" lengthAdjust="spacing" textLength="185.1992" x="340.75" y="455.2959">boolean createTeam(String, Admin) throws ModelException</text><ellipse cx="336.25" cy="462.458" fill="#84BE84" rx="1.5" ry="1.5" style="stroke:#038048;stroke-width:0.5;"/><text fill="#000000" font-family="sans-serif" font-size="7" lengthAdjust="spacing" textLength="86.772" x="340.75" y="464.6064">boolean deleteTeam(String)</text><ellipse cx="336.25" cy="471.7686" fill="#84BE84" rx="1.5" ry="1.5" style="stroke:#038048;stroke-width:0.5;"/><text fill="#000000" font-family="sans-serif" font-size="7" lengthAdjust="spacing" textLength="71.5723" x="340.75" y="473.917">Team isInTeam(String)</text><ellipse cx="336.25" cy="481.0791" fill="#84BE84" rx="1.5" ry="1.5" style="stroke:#038048;stroke-width:0.5;"/><text fill="#000000" font-family="sans-serif" font-size="7" lengthAdjust="spacing" textLength="99.9995" x="340.75" y="483.2275">boolean teamAdd(String, String)</text><ellipse cx="336.25" cy="490.3896" fill="#84BE84" rx="1.5" ry="1.5" style="stroke:#038048;stroke-width:0.5;"/><text fill="#000000" font-family="sans-serif" font-size="7" lengthAdjust="spacing" textLength="113.6099" x="340.75" y="492.5381">boolean teamRemove(String, String)</text></g><!--class PlayersController--><g id="elem_PlayersController"><rect codeLine="137" fill="#F1F1F1" height="107.7949" id="PlayersController" rx="1.25" ry="1.25" style="stroke:#181818;stroke-width:0.25;" width="288.8506" x="546.25" y="388.5"/><ellipse cx="661.7073" cy="396.5" fill="#ADD1B2" rx="5.5" ry="5.5" style="stroke:#181818;stroke-width:0.5;"/><path d="M663.0901,394.4375 Q663.1682,394.3281 663.262,394.2734 Q663.3557,394.2188 663.4651,394.2188 Q663.6526,394.2188 663.7698,394.3516 Q663.887,394.4766 663.887,394.7813 L663.887,395.5078 Q663.887,395.8125 663.7698,395.9453 Q663.6526,396.0781 663.4651,396.0781 Q663.2932,396.0781 663.1917,395.9766 Q663.0901,395.8828 663.0354,395.625 Q663.012,395.4453 662.9182,395.3516 Q662.7542,395.1641 662.4495,395.0547 Q662.1448,394.9453 661.8323,394.9453 Q661.4495,394.9453 661.1292,395.1094 Q660.8167,395.2734 660.5667,395.6484 Q660.3245,396.0234 660.3245,396.5391 L660.3245,397.0859 Q660.3245,397.7031 660.7698,398.1172 Q661.2151,398.5234 662.012,398.5234 Q662.4807,398.5234 662.8088,398.3984 Q663.0042,398.3203 663.2151,398.1016 Q663.3479,397.9688 663.4182,397.9297 Q663.4963,397.8906 663.5979,397.8906 Q663.762,397.8906 663.887,398.0234 Q664.0198,398.1484 664.0198,398.3203 Q664.0198,398.4922 663.8479,398.6953 Q663.5979,398.9844 663.1995,399.1484 Q662.6604,399.375 662.012,399.375 Q661.2542,399.375 660.6526,399.0625 Q660.1604,398.8125 659.8167,398.2813 Q659.4729,397.7422 659.4729,397.1016 L659.4729,396.5234 Q659.4729,395.8594 659.7776,395.2891 Q660.0901,394.7109 660.637,394.4063 Q661.1838,394.0938 661.801,394.0938 Q662.1682,394.0938 662.4885,394.1797 Q662.8167,394.2578 663.0901,394.4375 Z " fill="#000000"/><text fill="#000000" font-family="sans-serif" font-size="7" lengthAdjust="spacing" textLength="53.686" x="671.9573" y="399.3984">PlayersController</text><line style="stroke:#181818;stroke-width:0.25;" x1="546.75" x2="834.6006" y1="404.5" y2="404.5"/><rect fill="none" height="3" style="stroke:#C82930;stroke-width:0.5;" width="3" x="550.25" y="410.4053"/><text fill="#000000" font-family="sans-serif" font-size="7" lengthAdjust="spacing" textLength="103.1133" x="556.25" y="414.0537">PlayersController uniqueInstance</text><rect fill="none" height="3" style="stroke:#C82930;stroke-width:0.5;" width="3" x="550.25" y="419.7158"/><text fill="#000000" font-family="sans-serif" font-size="7" lengthAdjust="spacing" textLength="80.1445" x="556.25" y="423.3643">ArrayList&lt;Player&gt; players</text><line style="stroke:#181818;stroke-width:0.25;" x1="546.75" x2="834.6006" y1="427.1211" y2="427.1211"/><rect fill="#F24D5C" height="3" style="stroke:#C82930;stroke-width:0.5;" width="3" x="550.25" y="433.0264"/><text fill="#000000" font-family="sans-serif" font-size="7" lengthAdjust="spacing" textLength="58.3481" x="556.25" y="436.6748">PlayersController()</text><ellipse cx="551.75" cy="443.8369" fill="#84BE84" rx="1.5" ry="1.5" style="stroke:#038048;stroke-width:0.5;"/><text fill="#000000" font-family="sans-serif" font-size="7" lengthAdjust="spacing" textLength="96.4858" x="556.25" y="445.9854">PlayersController getInstance()</text><ellipse cx="551.75" cy="453.1475" fill="#84BE84" rx="1.5" ry="1.5" style="stroke:#038048;stroke-width:0.5;"/><text fill="#000000" font-family="sans-serif" font-size="7" lengthAdjust="spacing" textLength="74.3066" x="556.25" y="455.2959">Player getPlayer(String)</text><ellipse cx="551.75" cy="462.458" fill="#84BE84" rx="1.5" ry="1.5" style="stroke:#038048;stroke-width:0.5;"/><text fill="#000000" font-family="sans-serif" font-size="7" lengthAdjust="spacing" textLength="275.8506" x="556.25" y="464.6064">boolean createPlayer(String, String, String, String, String, Admin) throws ModelException</text><ellipse cx="551.75" cy="471.7686" fill="#84BE84" rx="1.5" ry="1.5" style="stroke:#038048;stroke-width:0.5;"/><text fill="#000000" font-family="sans-serif" font-size="7" lengthAdjust="spacing" textLength="88.7202" x="556.25" y="473.917">boolean deletePlayer(String)</text><ellipse cx="551.75" cy="481.0791" fill="#84BE84" rx="1.5" ry="1.5" style="stroke:#038048;stroke-width:0.5;"/><text fill="#000000" font-family="sans-serif" font-size="7" lengthAdjust="spacing" textLength="128.0269" x="556.25" y="483.2275">boolean addPoints(String, String, double)</text><ellipse cx="551.75" cy="490.3896" fill="#84BE84" rx="1.5" ry="1.5" style="stroke:#038048;stroke-width:0.5;"/><text fill="#000000" font-family="sans-serif" font-size="7" lengthAdjust="spacing" textLength="94.1548" x="556.25" y="492.5381">boolean statisticsShow(String)</text></g><!--class AdminsController--><g id="elem_AdminsController"><rect codeLine="128" fill="#F1F1F1" height="79.8633" id="AdminsController" rx="1.25" ry="1.25" style="stroke:#181818;stroke-width:0.25;" width="116.1133" x="852.75" y="402.5"/><ellipse cx="881.8386" cy="410.5" fill="#ADD1B2" rx="5.5" ry="5.5" style="stroke:#181818;stroke-width:0.5;"/><path d="M883.2214,408.4375 Q883.2996,408.3281 883.3933,408.2734 Q883.4871,408.2188 883.5964,408.2188 Q883.7839,408.2188 883.9011,408.3516 Q884.0183,408.4766 884.0183,408.7813 L884.0183,409.5078 Q884.0183,409.8125 883.9011,409.9453 Q883.7839,410.0781 883.5964,410.0781 Q883.4246,410.0781 883.323,409.9766 Q883.2214,409.8828 883.1667,409.625 Q883.1433,409.4453 883.0496,409.3516 Q882.8855,409.1641 882.5808,409.0547 Q882.2761,408.9453 881.9636,408.9453 Q881.5808,408.9453 881.2605,409.1094 Q880.948,409.2734 880.698,409.6484 Q880.4558,410.0234 880.4558,410.5391 L880.4558,411.0859 Q880.4558,411.7031 880.9011,412.1172 Q881.3464,412.5234 882.1433,412.5234 Q882.6121,412.5234 882.9402,412.3984 Q883.1355,412.3203 883.3464,412.1016 Q883.4792,411.9688 883.5496,411.9297 Q883.6277,411.8906 883.7292,411.8906 Q883.8933,411.8906 884.0183,412.0234 Q884.1511,412.1484 884.1511,412.3203 Q884.1511,412.4922 883.9792,412.6953 Q883.7292,412.9844 883.3308,413.1484 Q882.7917,413.375 882.1433,413.375 Q881.3855,413.375 880.7839,413.0625 Q880.2917,412.8125 879.948,412.2813 Q879.6042,411.7422 879.6042,411.1016 L879.6042,410.5234 Q879.6042,409.8594 879.9089,409.2891 Q880.2214,408.7109 880.7683,408.4063 Q881.3152,408.0938 881.9324,408.0938 Q882.2996,408.0938 882.6199,408.1797 Q882.948,408.2578 883.2214,408.4375 Z " fill="#000000"/><text fill="#000000" font-family="sans-serif" font-size="7" lengthAdjust="spacing" textLength="53.686" x="892.0886" y="413.3984">AdminsController</text><line style="stroke:#181818;stroke-width:0.25;" x1="853.25" x2="968.3633" y1="418.5" y2="418.5"/><rect fill="none" height="3" style="stroke:#C82930;stroke-width:0.5;" width="3" x="856.75" y="424.4053"/><text fill="#000000" font-family="sans-serif" font-size="7" lengthAdjust="spacing" textLength="103.1133" x="862.75" y="428.0537">AdminsController uniqueInstance</text><rect fill="none" height="3" style="stroke:#C82930;stroke-width:0.5;" width="3" x="856.75" y="433.7158"/><text fill="#000000" font-family="sans-serif" font-size="7" lengthAdjust="spacing" textLength="80.1445" x="862.75" y="437.3643">ArrayList&lt;Admin&gt; admins</text><line style="stroke:#181818;stroke-width:0.25;" x1="853.25" x2="968.3633" y1="441.1211" y2="441.1211"/><rect fill="#F24D5C" height="3" style="stroke:#C82930;stroke-width:0.5;" width="3" x="856.75" y="447.0264"/><text fill="#000000" font-family="sans-serif" font-size="7" lengthAdjust="spacing" textLength="58.3481" x="862.75" y="450.6748">AdminsController()</text><ellipse cx="858.25" cy="457.8369" fill="#84BE84" rx="1.5" ry="1.5" style="stroke:#038048;stroke-width:0.5;"/><text fill="#000000" font-family="sans-serif" font-size="7" lengthAdjust="spacing" textLength="74.3066" x="862.75" y="459.9854">Admin getAdmin(String)</text><ellipse cx="858.25" cy="467.1475" fill="#84BE84" rx="1.5" ry="1.5" style="stroke:#038048;stroke-width:0.5;"/><text fill="#000000" font-family="sans-serif" font-size="7" lengthAdjust="spacing" textLength="96.4858" x="862.75" y="469.2959">AdminsController getInstance()</text><ellipse cx="858.25" cy="476.458" fill="#84BE84" rx="1.5" ry="1.5" style="stroke:#038048;stroke-width:0.5;"/><text fill="#000000" font-family="sans-serif" font-size="7" lengthAdjust="spacing" textLength="70.8101" x="862.75" y="478.6064">void addAdmin(Admin)</text></g><!--class Authentication--><g id="elem_Authentication"><rect codeLine="149" fill="#F1F1F1" height="145.0371" id="Authentication" rx="1.25" ry="1.25" style="stroke:#181818;stroke-width:0.25;" width="106.7925" x="519.25" y="195"/><ellipse cx="548.3386" cy="203" fill="#ADD1B2" rx="5.5" ry="5.5" style="stroke:#181818;stroke-width:0.5;"/><path d="M549.7214,200.9375 Q549.7996,200.8281 549.8933,200.7734 Q549.9871,200.7188 550.0964,200.7188 Q550.2839,200.7188 550.4011,200.8516 Q550.5183,200.9766 550.5183,201.2813 L550.5183,202.0078 Q550.5183,202.3125 550.4011,202.4453 Q550.2839,202.5781 550.0964,202.5781 Q549.9246,202.5781 549.823,202.4766 Q549.7214,202.3828 549.6667,202.125 Q549.6433,201.9453 549.5496,201.8516 Q549.3855,201.6641 549.0808,201.5547 Q548.7761,201.4453 548.4636,201.4453 Q548.0808,201.4453 547.7605,201.6094 Q547.448,201.7734 547.198,202.1484 Q546.9558,202.5234 546.9558,203.0391 L546.9558,203.5859 Q546.9558,204.2031 547.4011,204.6172 Q547.8464,205.0234 548.6433,205.0234 Q549.1121,205.0234 549.4402,204.8984 Q549.6355,204.8203 549.8464,204.6016 Q549.9792,204.4688 550.0496,204.4297 Q550.1277,204.3906 550.2292,204.3906 Q550.3933,204.3906 550.5183,204.5234 Q550.6511,204.6484 550.6511,204.8203 Q550.6511,204.9922 550.4792,205.1953 Q550.2292,205.4844 549.8308,205.6484 Q549.2917,205.875 548.6433,205.875 Q547.8855,205.875 547.2839,205.5625 Q546.7917,205.3125 546.448,204.7813 Q546.1042,204.2422 546.1042,203.6016 L546.1042,203.0234 Q546.1042,202.3594 546.4089,201.7891 Q546.7214,201.2109 547.2683,200.9063 Q547.8152,200.5938 548.4324,200.5938 Q548.7996,200.5938 549.1199,200.6797 Q549.448,200.7578 549.7214,200.9375 Z " fill="#000000"/><text fill="#000000" font-family="sans-serif" font-size="7" lengthAdjust="spacing" textLength="44.3652" x="558.5886" y="205.8984">Authentication</text><line style="stroke:#181818;stroke-width:0.25;" x1="519.75" x2="625.5425" y1="211" y2="211"/><rect fill="none" height="3" style="stroke:#C82930;stroke-width:0.5;" width="3" x="523.25" y="216.9053"/><text fill="#000000" font-family="sans-serif" font-size="7" lengthAdjust="spacing" textLength="93.7925" x="529.25" y="220.5537">Authentication uniqueInstance</text><rect fill="none" height="3" style="stroke:#C82930;stroke-width:0.5;" width="3" x="523.25" y="226.2158"/><text fill="#000000" font-family="sans-serif" font-size="7" lengthAdjust="spacing" textLength="53.2896" x="529.25" y="229.8643">User currentUser</text><rect fill="none" height="3" style="stroke:#C82930;stroke-width:0.5;" width="3" x="523.25" y="235.5264"/><text fill="#000000" font-family="sans-serif" font-size="7" lengthAdjust="spacing" textLength="61.4653" x="529.25" y="239.1748">UserType userType</text><text fill="#000000" font-family="sans-serif" font-size="7" lengthAdjust="spacing" textLength="1.9448" x="529.25" y="248.4854">&#160;</text><text fill="#000000" font-family="sans-serif" font-size="7" lengthAdjust="spacing" textLength="54.0791" x="529.25" y="257.7959">enum UserType {</text><text fill="#000000" font-family="sans-serif" font-size="7" lengthAdjust="spacing" textLength="54.0688" x="529.25" y="267.1064">ADMIN, PLAYER</text><line style="stroke:#181818;stroke-width:0.25;" x1="519.75" x2="625.5425" y1="270.8633" y2="270.8633"/><rect fill="#F24D5C" height="3" style="stroke:#C82930;stroke-width:0.5;" width="3" x="523.25" y="276.7686"/><text fill="#000000" font-family="sans-serif" font-size="7" lengthAdjust="spacing" textLength="49.0273" x="529.25" y="280.417">Authentication()</text><ellipse cx="524.75" cy="287.5791" fill="#84BE84" rx="1.5" ry="1.5" style="stroke:#038048;stroke-width:0.5;"/><text fill="#000000" font-family="sans-serif" font-size="7" lengthAdjust="spacing" textLength="87.165" x="529.25" y="289.7275">Authentication getInstance()</text><ellipse cx="524.75" cy="296.8896" fill="#84BE84" rx="1.5" ry="1.5" style="stroke:#038048;stroke-width:0.5;"/><text fill="#000000" font-family="sans-serif" font-size="7" lengthAdjust="spacing" textLength="89.1064" x="529.25" y="299.0381">boolean logIn(String , String)</text><ellipse cx="524.75" cy="306.2002" fill="#84BE84" rx="1.5" ry="1.5" style="stroke:#038048;stroke-width:0.5;"/><text fill="#000000" font-family="sans-serif" font-size="7" lengthAdjust="spacing" textLength="40.0723" x="529.25" y="308.3486">void logOut()</text><ellipse cx="524.75" cy="315.5107" fill="#84BE84" rx="1.5" ry="1.5" style="stroke:#038048;stroke-width:0.5;"/><text fill="#000000" font-family="sans-serif" font-size="7" lengthAdjust="spacing" textLength="65.772" x="529.25" y="317.6592">boolean isLoggedIn()</text><ellipse cx="524.75" cy="324.8213" fill="#84BE84" rx="1.5" ry="1.5" style="stroke:#038048;stroke-width:0.5;"/><text fill="#000000" font-family="sans-serif" font-size="7" lengthAdjust="spacing" textLength="64.9653" x="529.25" y="326.9697">String getUserType()</text><ellipse cx="524.75" cy="334.1318" fill="#84BE84" rx="1.5" ry="1.5" style="stroke:#038048;stroke-width:0.5;"/><text fill="#000000" font-family="sans-serif" font-size="7" lengthAdjust="spacing" textLength="69.2378" x="529.25" y="336.2803">User getCurrentUser()</text></g><!--class Tournament--><g id="elem_Tournament"><rect codeLine="110" fill="#F1F1F1" height="163.6582" id="Tournament" rx="1.25" ry="1.25" style="stroke:#181818;stroke-width:0.25;" width="259.6611" x="14.5" y="545"/><ellipse cx="123.335" cy="553" fill="#ADD1B2" rx="5.5" ry="5.5" style="stroke:#181818;stroke-width:0.5;"/><path d="M124.7178,550.9375 Q124.7959,550.8281 124.8896,550.7734 Q124.9834,550.7188 125.0928,550.7188 Q125.2803,550.7188 125.3975,550.8516 Q125.5146,550.9766 125.5146,551.2813 L125.5146,552.0078 Q125.5146,552.3125 125.3975,552.4453 Q125.2803,552.5781 125.0928,552.5781 Q124.9209,552.5781 124.8193,552.4766 Q124.7178,552.3828 124.6631,552.125 Q124.6396,551.9453 124.5459,551.8516 Q124.3818,551.6641 124.0771,551.5547 Q123.7725,551.4453 123.46,551.4453 Q123.0771,551.4453 122.7568,551.6094 Q122.4443,551.7734 122.1943,552.1484 Q121.9521,552.5234 121.9521,553.0391 L121.9521,553.5859 Q121.9521,554.2031 122.3975,554.6172 Q122.8428,555.0234 123.6396,555.0234 Q124.1084,555.0234 124.4365,554.8984 Q124.6318,554.8203 124.8428,554.6016 Q124.9756,554.4688 125.0459,554.4297 Q125.124,554.3906 125.2256,554.3906 Q125.3896,554.3906 125.5146,554.5234 Q125.6475,554.6484 125.6475,554.8203 Q125.6475,554.9922 125.4756,555.1953 Q125.2256,555.4844 124.8271,555.6484 Q124.2881,555.875 123.6396,555.875 Q122.8818,555.875 122.2803,555.5625 Q121.7881,555.3125 121.4443,554.7813 Q121.1006,554.2422 121.1006,553.6016 L121.1006,553.0234 Q121.1006,552.3594 121.4053,551.7891 Q121.7178,551.2109 122.2646,550.9063 Q122.8115,550.5938 123.4287,550.5938 Q123.7959,550.5938 124.1162,550.6797 Q124.4443,550.7578 124.7178,550.9375 Z " fill="#000000"/><text fill="#000000" font-family="sans-serif" font-size="7" lengthAdjust="spacing" textLength="37.7412" x="133.585" y="555.8984">Tournament</text><line style="stroke:#181818;stroke-width:0.25;" x1="15" x2="273.6611" y1="561" y2="561"/><rect fill="none" height="3" style="stroke:#C82930;stroke-width:0.5;" width="3" x="18.5" y="566.9053"/><text fill="#000000" font-family="sans-serif" font-size="7" lengthAdjust="spacing" textLength="37.7412" x="24.5" y="570.5537">String name</text><rect fill="none" height="3" style="stroke:#C82930;stroke-width:0.5;" width="3" x="18.5" y="576.2158"/><text fill="#000000" font-family="sans-serif" font-size="7" lengthAdjust="spacing" textLength="45.1309" x="24.5" y="579.8643">Date startDate</text><rect fill="none" height="3" style="stroke:#C82930;stroke-width:0.5;" width="3" x="18.5" y="585.5264"/><text fill="#000000" font-family="sans-serif" font-size="7" lengthAdjust="spacing" textLength="43.1963" x="24.5" y="589.1748">Date endDate</text><rect fill="none" height="3" style="stroke:#C82930;stroke-width:0.5;" width="3" x="18.5" y="594.8369"/><text fill="#000000" font-family="sans-serif" font-size="7" lengthAdjust="spacing" textLength="41.2515" x="24.5" y="598.4854">String league</text><rect fill="none" height="3" style="stroke:#C82930;stroke-width:0.5;" width="3" x="18.5" y="604.1475"/><text fill="#000000" font-family="sans-serif" font-size="7" lengthAdjust="spacing" textLength="35.793" x="24.5" y="607.7959">String sport</text><rect fill="none" height="3" style="stroke:#C82930;stroke-width:0.5;" width="3" x="18.5" y="613.458"/><text fill="#000000" font-family="sans-serif" font-size="7" lengthAdjust="spacing" textLength="63.4204" x="24.5" y="617.1064">String categoryRank</text><rect fill="none" height="3" style="stroke:#C82930;stroke-width:0.5;" width="3" x="18.5" y="622.7686"/><text fill="#000000" font-family="sans-serif" font-size="7" lengthAdjust="spacing" textLength="106.6064" x="24.5" y="626.417">ArrayList&lt;Participant&gt; participants</text><rect fill="none" height="3" style="stroke:#C82930;stroke-width:0.5;" width="3" x="18.5" y="632.0791"/><text fill="#000000" font-family="sans-serif" font-size="7" lengthAdjust="spacing" textLength="115.5444" x="24.5" y="635.7275">MatchmakingController matchmaking</text><line style="stroke:#181818;stroke-width:0.25;" x1="15" x2="273.6611" y1="639.4844" y2="639.4844"/><ellipse cx="20" cy="646.8896" fill="#84BE84" rx="1.5" ry="1.5" style="stroke:#038048;stroke-width:0.5;"/><text fill="#000000" font-family="sans-serif" font-size="7" lengthAdjust="spacing" textLength="246.6611" x="24.5" y="649.0381">Tournament(String , Date, Date , String , String , String) throws ModelException</text><ellipse cx="20" cy="656.2002" fill="#84BE84" rx="1.5" ry="1.5" style="stroke:#038048;stroke-width:0.5;"/><text fill="#000000" font-family="sans-serif" font-size="7" lengthAdjust="spacing" textLength="109.3442" x="24.5" y="658.3486">boolean addParticipant(Participant)</text><ellipse cx="20" cy="665.5107" fill="#84BE84" rx="1.5" ry="1.5" style="stroke:#038048;stroke-width:0.5;"/><text fill="#000000" font-family="sans-serif" font-size="7" lengthAdjust="spacing" textLength="121.0063" x="24.5" y="667.6592">boolean removeParticipant(Participant)</text><ellipse cx="20" cy="674.8213" fill="#84BE84" rx="1.5" ry="1.5" style="stroke:#038048;stroke-width:0.5;"/><text fill="#000000" font-family="sans-serif" font-size="7" lengthAdjust="spacing" textLength="161.0752" x="24.5" y="676.9697">ArrayList&lt;Participant&gt; getRandomizedParticipants()</text><ellipse cx="20" cy="684.1318" fill="#84BE84" rx="1.5" ry="1.5" style="stroke:#038048;stroke-width:0.5;"/><text fill="#000000" font-family="sans-serif" font-size="7" lengthAdjust="spacing" textLength="145.9028" x="24.5" y="686.2803">ArrayList&lt;Participant&gt; getParticipantsRanked()</text><ellipse cx="20" cy="693.4424" fill="#84BE84" rx="1.5" ry="1.5" style="stroke:#038048;stroke-width:0.5;"/><text fill="#000000" font-family="sans-serif" font-size="7" lengthAdjust="spacing" textLength="121.7754" x="24.5" y="695.5908">ArrayList&lt;Participant&gt; getParticipants()</text><ellipse cx="20" cy="702.7529" fill="#84BE84" rx="1.5" ry="1.5" style="stroke:#038048;stroke-width:0.5;"/><text fill="#000000" font-family="sans-serif" font-size="7" lengthAdjust="spacing" textLength="129.9375" x="24.5" y="704.9014">MatchmakingController getMatchmaking()</text></g><!--class MatchmakingController--><g id="elem_MatchmakingController"><rect codeLine="225" fill="#F1F1F1" height="79.8633" id="MatchmakingController" rx="1.25" ry="1.25" style="stroke:#181818;stroke-width:0.25;" width="173.2993" x="3.5" y="867"/><ellipse cx="52.0386" cy="875" fill="#ADD1B2" rx="5.5" ry="5.5" style="stroke:#181818;stroke-width:0.5;"/><path d="M53.4214,872.9375 Q53.4995,872.8281 53.5933,872.7734 Q53.687,872.7188 53.7964,872.7188 Q53.9839,872.7188 54.1011,872.8516 Q54.2183,872.9766 54.2183,873.2813 L54.2183,874.0078 Q54.2183,874.3125 54.1011,874.4453 Q53.9839,874.5781 53.7964,874.5781 Q53.6245,874.5781 53.5229,874.4766 Q53.4214,874.3828 53.3667,874.125 Q53.3433,873.9453 53.2495,873.8516 Q53.0854,873.6641 52.7808,873.5547 Q52.4761,873.4453 52.1636,873.4453 Q51.7808,873.4453 51.4604,873.6094 Q51.1479,873.7734 50.8979,874.1484 Q50.6558,874.5234 50.6558,875.0391 L50.6558,875.5859 Q50.6558,876.2031 51.1011,876.6172 Q51.5464,877.0234 52.3433,877.0234 Q52.812,877.0234 53.1401,876.8984 Q53.3354,876.8203 53.5464,876.6016 Q53.6792,876.4688 53.7495,876.4297 Q53.8276,876.3906 53.9292,876.3906 Q54.0933,876.3906 54.2183,876.5234 Q54.3511,876.6484 54.3511,876.8203 Q54.3511,876.9922 54.1792,877.1953 Q53.9292,877.4844 53.5308,877.6484 Q52.9917,877.875 52.3433,877.875 Q51.5854,877.875 50.9839,877.5625 Q50.4917,877.3125 50.1479,876.7813 Q49.8042,876.2422 49.8042,875.6016 L49.8042,875.0234 Q49.8042,874.3594 50.1089,873.7891 Q50.4214,873.2109 50.9683,872.9063 Q51.5151,872.5938 52.1323,872.5938 Q52.4995,872.5938 52.8198,872.6797 Q53.1479,872.7578 53.4214,872.9375 Z " fill="#000000"/><text fill="#000000" font-family="sans-serif" font-size="7" lengthAdjust="spacing" textLength="71.9722" x="62.2886" y="877.8984">MatchmakingController</text><line style="stroke:#181818;stroke-width:0.25;" x1="4" x2="176.2993" y1="883" y2="883"/><rect fill="none" height="3" style="stroke:#C82930;stroke-width:0.5;" width="3" x="7.5" y="888.9053"/><text fill="#000000" font-family="sans-serif" font-size="7" lengthAdjust="spacing" textLength="120.9927" x="13.5" y="892.5537">ArrayList&lt;Matchmaking&gt; matchmaking</text><line style="stroke:#181818;stroke-width:0.25;" x1="4" x2="176.2993" y1="896.3105" y2="896.3105"/><rect fill="#F24D5C" height="3" style="stroke:#C82930;stroke-width:0.5;" width="3" x="7.5" y="902.2158"/><text fill="#000000" font-family="sans-serif" font-size="7" lengthAdjust="spacing" textLength="76.6343" x="13.5" y="905.8643">MatchmakingController()</text><ellipse cx="9" cy="913.0264" fill="#84BE84" rx="1.5" ry="1.5" style="stroke:#038048;stroke-width:0.5;"/><text fill="#000000" font-family="sans-serif" font-size="7" lengthAdjust="spacing" textLength="157.189" x="13.5" y="915.1748">boolean createMatchmake(Participant, Participant)</text><ellipse cx="9" cy="922.3369" fill="#84BE84" rx="1.5" ry="1.5" style="stroke:#038048;stroke-width:0.5;"/><text fill="#000000" font-family="sans-serif" font-size="7" lengthAdjust="spacing" textLength="160.2993" x="13.5" y="924.4854">boolean randomMatchmake(ArrayList&lt;Participant&gt;)</text><ellipse cx="9" cy="931.6475" fill="#84BE84" rx="1.5" ry="1.5" style="stroke:#038048;stroke-width:0.5;"/><text fill="#000000" font-family="sans-serif" font-size="7" lengthAdjust="spacing" textLength="109.7202" x="13.5" y="933.7959">boolean isMatchmaked(Participant)</text><ellipse cx="9" cy="940.958" fill="#84BE84" rx="1.5" ry="1.5" style="stroke:#038048;stroke-width:0.5;"/><text fill="#000000" font-family="sans-serif" font-size="7" lengthAdjust="spacing" textLength="117.4893" x="13.5" y="943.1064">void removeMatchmaking(Participant)</text></g><!--class Matchmaking--><g id="elem_Matchmaking"><rect codeLine="104" fill="#F1F1F1" height="51.9316" id="Matchmaking" rx="1.25" ry="1.25" style="stroke:#181818;stroke-width:0.25;" width="131.2686" x="151.5" y="977"/><ellipse cx="194.1956" cy="985" fill="#ADD1B2" rx="5.5" ry="5.5" style="stroke:#181818;stroke-width:0.5;"/><path d="M195.5784,982.9375 Q195.6565,982.8281 195.7502,982.7734 Q195.844,982.7188 195.9534,982.7188 Q196.1409,982.7188 196.2581,982.8516 Q196.3752,982.9766 196.3752,983.2813 L196.3752,984.0078 Q196.3752,984.3125 196.2581,984.4453 Q196.1409,984.5781 195.9534,984.5781 Q195.7815,984.5781 195.6799,984.4766 Q195.5784,984.3828 195.5237,984.125 Q195.5002,983.9453 195.4065,983.8516 Q195.2424,983.6641 194.9377,983.5547 Q194.6331,983.4453 194.3206,983.4453 Q193.9377,983.4453 193.6174,983.6094 Q193.3049,983.7734 193.0549,984.1484 Q192.8127,984.5234 192.8127,985.0391 L192.8127,985.5859 Q192.8127,986.2031 193.2581,986.6172 Q193.7034,987.0234 194.5002,987.0234 Q194.969,987.0234 195.2971,986.8984 Q195.4924,986.8203 195.7034,986.6016 Q195.8362,986.4688 195.9065,986.4297 Q195.9846,986.3906 196.0862,986.3906 Q196.2502,986.3906 196.3752,986.5234 Q196.5081,986.6484 196.5081,986.8203 Q196.5081,986.9922 196.3362,987.1953 Q196.0862,987.4844 195.6877,987.6484 Q195.1487,987.875 194.5002,987.875 Q193.7424,987.875 193.1409,987.5625 Q192.6487,987.3125 192.3049,986.7813 Q191.9612,986.2422 191.9612,985.6016 L191.9612,985.0234 Q191.9612,984.3594 192.2659,983.7891 Q192.5784,983.2109 193.1252,982.9063 Q193.6721,982.5938 194.2893,982.5938 Q194.6565,982.5938 194.9768,982.6797 Q195.3049,982.7578 195.5784,982.9375 Z " fill="#000000"/><text fill="#000000" font-family="sans-serif" font-size="7" lengthAdjust="spacing" textLength="41.6274" x="204.4456" y="987.8984">Matchmaking</text><line style="stroke:#181818;stroke-width:0.25;" x1="152" x2="282.2686" y1="993" y2="993"/><rect fill="none" height="3" style="stroke:#C82930;stroke-width:0.5;" width="3" x="155.5" y="998.9053"/><text fill="#000000" font-family="sans-serif" font-size="7" lengthAdjust="spacing" textLength="106.6064" x="161.5" y="1002.5537">ArrayList&lt;Participant&gt; participants</text><line style="stroke:#181818;stroke-width:0.25;" x1="152" x2="282.2686" y1="1006.3105" y2="1006.3105"/><ellipse cx="157" cy="1013.7158" fill="#84BE84" rx="1.5" ry="1.5" style="stroke:#038048;stroke-width:0.5;"/><text fill="#000000" font-family="sans-serif" font-size="7" lengthAdjust="spacing" textLength="118.2686" x="161.5" y="1015.8643">Matchmaking(Participant, Participant )</text><ellipse cx="157" cy="1023.0264" fill="#84BE84" rx="1.5" ry="1.5" style="stroke:#038048;stroke-width:0.5;"/><text fill="#000000" font-family="sans-serif" font-size="7" lengthAdjust="spacing" textLength="109.7202" x="161.5" y="1025.1748">boolean isMatchmaked(Participant)</text></g><!--class Admin--><g id="elem_Admin"><rect codeLine="68" fill="#F1F1F1" height="33.3105" id="Admin" rx="1.25" ry="1.25" style="stroke:#181818;stroke-width:0.25;" width="152.2788" x="834.5" y="610"/><ellipse cx="898.5938" cy="618" fill="#ADD1B2" rx="5.5" ry="5.5" style="stroke:#181818;stroke-width:0.5;"/><path d="M899.9766,615.9375 Q900.0547,615.8281 900.1484,615.7734 Q900.2422,615.7188 900.3516,615.7188 Q900.5391,615.7188 900.6563,615.8516 Q900.7734,615.9766 900.7734,616.2813 L900.7734,617.0078 Q900.7734,617.3125 900.6563,617.4453 Q900.5391,617.5781 900.3516,617.5781 Q900.1797,617.5781 900.0781,617.4766 Q899.9766,617.3828 899.9219,617.125 Q899.8984,616.9453 899.8047,616.8516 Q899.6406,616.6641 899.3359,616.5547 Q899.0313,616.4453 898.7188,616.4453 Q898.3359,616.4453 898.0156,616.6094 Q897.7031,616.7734 897.4531,617.1484 Q897.2109,617.5234 897.2109,618.0391 L897.2109,618.5859 Q897.2109,619.2031 897.6563,619.6172 Q898.1016,620.0234 898.8984,620.0234 Q899.3672,620.0234 899.6953,619.8984 Q899.8906,619.8203 900.1016,619.6016 Q900.2344,619.4688 900.3047,619.4297 Q900.3828,619.3906 900.4844,619.3906 Q900.6484,619.3906 900.7734,619.5234 Q900.9063,619.6484 900.9063,619.8203 Q900.9063,619.9922 900.7344,620.1953 Q900.4844,620.4844 900.0859,620.6484 Q899.5469,620.875 898.8984,620.875 Q898.1406,620.875 897.5391,620.5625 Q897.0469,620.3125 896.7031,619.7813 Q896.3594,619.2422 896.3594,618.6016 L896.3594,618.0234 Q896.3594,617.3594 896.6641,616.7891 Q896.9766,616.2109 897.5234,615.9063 Q898.0703,615.5938 898.6875,615.5938 Q899.0547,615.5938 899.375,615.6797 Q899.7031,615.7578 899.9766,615.9375 Z " fill="#000000"/><text fill="#000000" font-family="sans-serif" font-size="7" lengthAdjust="spacing" textLength="19.8413" x="908.8438" y="620.8984">Admin</text><line style="stroke:#181818;stroke-width:0.25;" x1="835" x2="986.2788" y1="626" y2="626"/><line style="stroke:#181818;stroke-width:0.25;" x1="835" x2="986.2788" y1="630" y2="630"/><ellipse cx="840" cy="637.4053" fill="#84BE84" rx="1.5" ry="1.5" style="stroke:#038048;stroke-width:0.5;"/><text fill="#000000" font-family="sans-serif" font-size="7" lengthAdjust="spacing" textLength="139.2788" x="844.5" y="639.5537">Admin(String ,String) throws ModelException</text></g><!--class Player--><g id="elem_Player"><rect codeLine="52" fill="#F1F1F1" height="145.0371" id="Player" rx="1.25" ry="1.25" style="stroke:#181818;stroke-width:0.25;" width="232.813" x="574.25" y="554.25"/><ellipse cx="678.6108" cy="562.25" fill="#ADD1B2" rx="5.5" ry="5.5" style="stroke:#181818;stroke-width:0.5;"/><path d="M679.9937,560.1875 Q680.0718,560.0781 680.1655,560.0234 Q680.2593,559.9688 680.3687,559.9688 Q680.5562,559.9688 680.6733,560.1016 Q680.7905,560.2266 680.7905,560.5313 L680.7905,561.2578 Q680.7905,561.5625 680.6733,561.6953 Q680.5562,561.8281 680.3687,561.8281 Q680.1968,561.8281 680.0952,561.7266 Q679.9937,561.6328 679.939,561.375 Q679.9155,561.1953 679.8218,561.1016 Q679.6577,560.9141 679.353,560.8047 Q679.0483,560.6953 678.7358,560.6953 Q678.353,560.6953 678.0327,560.8594 Q677.7202,561.0234 677.4702,561.3984 Q677.228,561.7734 677.228,562.2891 L677.228,562.8359 Q677.228,563.4531 677.6733,563.8672 Q678.1187,564.2734 678.9155,564.2734 Q679.3843,564.2734 679.7124,564.1484 Q679.9077,564.0703 680.1187,563.8516 Q680.2515,563.7188 680.3218,563.6797 Q680.3999,563.6406 680.5015,563.6406 Q680.6655,563.6406 680.7905,563.7734 Q680.9233,563.8984 680.9233,564.0703 Q680.9233,564.2422 680.7515,564.4453 Q680.5015,564.7344 680.103,564.8984 Q679.564,565.125 678.9155,565.125 Q678.1577,565.125 677.5562,564.8125 Q677.064,564.5625 676.7202,564.0313 Q676.3765,563.4922 676.3765,562.8516 L676.3765,562.2734 Q676.3765,561.6094 676.6812,561.0391 Q676.9937,560.4609 677.5405,560.1563 Q678.0874,559.8438 678.7046,559.8438 Q679.0718,559.8438 679.3921,559.9297 Q679.7202,560.0078 679.9937,560.1875 Z " fill="#000000"/><text fill="#000000" font-family="sans-serif" font-size="7" lengthAdjust="spacing" textLength="19.8413" x="688.8608" y="565.1484">Player</text><line style="stroke:#181818;stroke-width:0.25;" x1="574.75" x2="806.563" y1="570.25" y2="570.25"/><rect fill="none" height="3" style="stroke:#C82930;stroke-width:0.5;" width="3" x="578.25" y="576.1553"/><text fill="#000000" font-family="sans-serif" font-size="7" lengthAdjust="spacing" textLength="37.7412" x="584.25" y="579.8037">String name</text><rect fill="none" height="3" style="stroke:#C82930;stroke-width:0.5;" width="3" x="578.25" y="585.4658"/><text fill="#000000" font-family="sans-serif" font-size="7" lengthAdjust="spacing" textLength="47.4653" x="584.25" y="589.1143">String surname</text><rect fill="none" height="3" style="stroke:#C82930;stroke-width:0.5;" width="3" x="578.25" y="594.7764"/><text fill="#000000" font-family="sans-serif" font-size="7" lengthAdjust="spacing" textLength="29.5723" x="584.25" y="598.4248">String dni</text><rect fill="none" height="3" style="stroke:#C82930;stroke-width:0.5;" width="3" x="578.25" y="604.0869"/><text fill="#000000" font-family="sans-serif" font-size="7" lengthAdjust="spacing" textLength="64.9722" x="584.25" y="607.7354">ArrayList&lt;Stat&gt; stats</text><rect fill="none" height="3" style="stroke:#C82930;stroke-width:0.5;" width="3" x="578.25" y="613.3975"/><text fill="#000000" font-family="sans-serif" font-size="7" lengthAdjust="spacing" textLength="43.5723" x="584.25" y="617.0459">Admin creator</text><line style="stroke:#181818;stroke-width:0.25;" x1="574.75" x2="806.563" y1="620.8027" y2="620.8027"/><ellipse cx="579.75" cy="628.208" fill="#84BE84" rx="1.5" ry="1.5" style="stroke:#038048;stroke-width:0.5;"/><text fill="#000000" font-family="sans-serif" font-size="7" lengthAdjust="spacing" textLength="219.813" x="584.25" y="630.3564">Player(String,String,String,String,String,Admin) throws ModelException</text><rect fill="#F24D5C" height="3" style="stroke:#C82930;stroke-width:0.5;" width="3" x="578.25" y="636.0186"/><text fill="#000000" font-family="sans-serif" font-size="7" lengthAdjust="spacing" textLength="152.1338" x="584.25" y="639.667">void dniValidation(String) throws ModelException</text><rect fill="#F24D5C" height="3" style="stroke:#C82930;stroke-width:0.5;" width="3" x="578.25" y="645.3291"/><text fill="#000000" font-family="sans-serif" font-size="7" lengthAdjust="spacing" textLength="86.7549" x="584.25" y="648.9775">ArrayList&lt;Stat&gt; initialStats()</text><ellipse cx="579.75" cy="656.1396" fill="#84BE84" rx="1.5" ry="1.5" style="stroke:#038048;stroke-width:0.5;"/><text fill="#000000" font-family="sans-serif" font-size="7" lengthAdjust="spacing" textLength="66.5273" x="584.25" y="658.2881">void showStatsJson()</text><ellipse cx="579.75" cy="665.4502" fill="#84BE84" rx="1.5" ry="1.5" style="stroke:#038048;stroke-width:0.5;"/><text fill="#000000" font-family="sans-serif" font-size="7" lengthAdjust="spacing" textLength="63.7964" x="584.25" y="667.5986">void showStatsCsv()</text><ellipse cx="579.75" cy="674.7607" fill="#84BE84" rx="1.5" ry="1.5" style="stroke:#038048;stroke-width:0.5;"/><text fill="#000000" font-family="sans-serif" font-size="7" lengthAdjust="spacing" textLength="102.3477" x="584.25" y="676.9092">boolean updateStat(String,value)</text><ellipse cx="579.75" cy="684.0713" fill="#84BE84" rx="1.5" ry="1.5" style="stroke:#038048;stroke-width:0.5;"/><text fill="#000000" font-family="sans-serif" font-size="7" lengthAdjust="spacing" textLength="80.5342" x="584.25" y="686.2197">ArrayList&lt;Stat&gt; getStats()</text><ellipse cx="579.75" cy="693.3818" fill="#84BE84" rx="1.5" ry="1.5" style="stroke:#038048;stroke-width:0.5;"/><text fill="#000000" font-family="sans-serif" font-size="7" lengthAdjust="spacing" textLength="49.0171" x="584.25" y="695.5303">String toString()</text></g><!--class Stat--><g id="elem_Stat"><rect codeLine="78" fill="#F1F1F1" height="98.4844" id="Stat" rx="1.25" ry="1.25" style="stroke:#181818;stroke-width:0.25;" width="88.4756" x="718" y="738.5"/><ellipse cx="753.887" cy="746.5" fill="#ADD1B2" rx="5.5" ry="5.5" style="stroke:#181818;stroke-width:0.5;"/><path d="M755.2698,744.4375 Q755.3479,744.3281 755.4417,744.2734 Q755.5354,744.2188 755.6448,744.2188 Q755.8323,744.2188 755.9495,744.3516 Q756.0667,744.4766 756.0667,744.7813 L756.0667,745.5078 Q756.0667,745.8125 755.9495,745.9453 Q755.8323,746.0781 755.6448,746.0781 Q755.4729,746.0781 755.3713,745.9766 Q755.2698,745.8828 755.2151,745.625 Q755.1917,745.4453 755.0979,745.3516 Q754.9338,745.1641 754.6292,745.0547 Q754.3245,744.9453 754.012,744.9453 Q753.6292,744.9453 753.3088,745.1094 Q752.9963,745.2734 752.7463,745.6484 Q752.5042,746.0234 752.5042,746.5391 L752.5042,747.0859 Q752.5042,747.7031 752.9495,748.1172 Q753.3948,748.5234 754.1917,748.5234 Q754.6604,748.5234 754.9885,748.3984 Q755.1838,748.3203 755.3948,748.1016 Q755.5276,747.9688 755.5979,747.9297 Q755.676,747.8906 755.7776,747.8906 Q755.9417,747.8906 756.0667,748.0234 Q756.1995,748.1484 756.1995,748.3203 Q756.1995,748.4922 756.0276,748.6953 Q755.7776,748.9844 755.3792,749.1484 Q754.8401,749.375 754.1917,749.375 Q753.4338,749.375 752.8323,749.0625 Q752.3401,748.8125 751.9963,748.2813 Q751.6526,747.7422 751.6526,747.1016 L751.6526,746.5234 Q751.6526,745.8594 751.9573,745.2891 Q752.2698,744.7109 752.8167,744.4063 Q753.3635,744.0938 753.9807,744.0938 Q754.3479,744.0938 754.6682,744.1797 Q754.9963,744.2578 755.2698,744.4375 Z " fill="#000000"/><text fill="#000000" font-family="sans-serif" font-size="7" lengthAdjust="spacing" textLength="12.4517" x="764.137" y="749.3984">Stat</text><line style="stroke:#181818;stroke-width:0.25;" x1="718.5" x2="805.9756" y1="754.5" y2="754.5"/><rect fill="none" height="3" style="stroke:#C82930;stroke-width:0.5;" width="3" x="722" y="760.4053"/><text fill="#000000" font-family="sans-serif" font-size="7" lengthAdjust="spacing" textLength="47.0791" x="728" y="764.0537">String category</text><rect fill="none" height="3" style="stroke:#C82930;stroke-width:0.5;" width="3" x="722" y="769.7158"/><text fill="#000000" font-family="sans-serif" font-size="7" lengthAdjust="spacing" textLength="39.6997" x="728" y="773.3643">double value</text><line style="stroke:#181818;stroke-width:0.25;" x1="718.5" x2="805.9756" y1="777.1211" y2="777.1211"/><ellipse cx="723.5" cy="784.5264" fill="#84BE84" rx="1.5" ry="1.5" style="stroke:#038048;stroke-width:0.5;"/><text fill="#000000" font-family="sans-serif" font-size="7" lengthAdjust="spacing" textLength="35.3999" x="728" y="786.6748">Stat(String)</text><ellipse cx="723.5" cy="793.8369" fill="#84BE84" rx="1.5" ry="1.5" style="stroke:#038048;stroke-width:0.5;"/><text fill="#000000" font-family="sans-serif" font-size="7" lengthAdjust="spacing" textLength="63.0273" x="728" y="795.9854">String getCategory()</text><ellipse cx="723.5" cy="803.1475" fill="#84BE84" rx="1.5" ry="1.5" style="stroke:#038048;stroke-width:0.5;"/><text fill="#000000" font-family="sans-serif" font-size="7" lengthAdjust="spacing" textLength="75.4756" x="728" y="805.2959">void setCategory(String)</text><ellipse cx="723.5" cy="812.458" fill="#84BE84" rx="1.5" ry="1.5" style="stroke:#038048;stroke-width:0.5;"/><text fill="#000000" font-family="sans-serif" font-size="7" lengthAdjust="spacing" textLength="55.2617" x="728" y="814.6064">double getValue()</text><ellipse cx="723.5" cy="821.7686" fill="#84BE84" rx="1.5" ry="1.5" style="stroke:#038048;stroke-width:0.5;"/><text fill="#000000" font-family="sans-serif" font-size="7" lengthAdjust="spacing" textLength="67.71" x="728" y="823.917">void setValue(double)</text><ellipse cx="723.5" cy="831.0791" fill="#84BE84" rx="1.5" ry="1.5" style="stroke:#038048;stroke-width:0.5;"/><text fill="#000000" font-family="sans-serif" font-size="7" lengthAdjust="spacing" textLength="49.0171" x="728" y="833.2275">String toString()</text></g><!--class Categories--><g id="elem_Categories"><rect codeLine="72" fill="#F1F1F1" height="51.9316" id="Categories" rx="1.25" ry="1.25" style="stroke:#181818;stroke-width:0.25;" width="123.1064" x="194.75" y="881"/><ellipse cx="237.2524" cy="889" fill="#ADD1B2" rx="5.5" ry="5.5" style="stroke:#181818;stroke-width:0.5;"/><path d="M238.6353,886.9375 Q238.7134,886.8281 238.8071,886.7734 Q238.9009,886.7188 239.0103,886.7188 Q239.1978,886.7188 239.3149,886.8516 Q239.4321,886.9766 239.4321,887.2813 L239.4321,888.0078 Q239.4321,888.3125 239.3149,888.4453 Q239.1978,888.5781 239.0103,888.5781 Q238.8384,888.5781 238.7368,888.4766 Q238.6353,888.3828 238.5806,888.125 Q238.5571,887.9453 238.4634,887.8516 Q238.2993,887.6641 237.9946,887.5547 Q237.6899,887.4453 237.3774,887.4453 Q236.9946,887.4453 236.6743,887.6094 Q236.3618,887.7734 236.1118,888.1484 Q235.8696,888.5234 235.8696,889.0391 L235.8696,889.5859 Q235.8696,890.2031 236.3149,890.6172 Q236.7603,891.0234 237.5571,891.0234 Q238.0259,891.0234 238.354,890.8984 Q238.5493,890.8203 238.7603,890.6016 Q238.8931,890.4688 238.9634,890.4297 Q239.0415,890.3906 239.1431,890.3906 Q239.3071,890.3906 239.4321,890.5234 Q239.5649,890.6484 239.5649,890.8203 Q239.5649,890.9922 239.3931,891.1953 Q239.1431,891.4844 238.7446,891.6484 Q238.2056,891.875 237.5571,891.875 Q236.7993,891.875 236.1978,891.5625 Q235.7056,891.3125 235.3618,890.7813 Q235.0181,890.2422 235.0181,889.6016 L235.0181,889.0234 Q235.0181,888.3594 235.3228,887.7891 Q235.6353,887.2109 236.1821,886.9063 Q236.729,886.5938 237.3462,886.5938 Q237.7134,886.5938 238.0337,886.6797 Q238.3618,886.7578 238.6353,886.9375 Z " fill="#000000"/><text fill="#000000" font-family="sans-serif" font-size="7" lengthAdjust="spacing" textLength="33.8516" x="247.5024" y="891.8984">Categories</text><line style="stroke:#181818;stroke-width:0.25;" x1="195.25" x2="317.3564" y1="897" y2="897"/><rect fill="none" height="3" style="stroke:#C82930;stroke-width:0.5;" width="3" x="198.75" y="902.9053"/><text fill="#000000" font-family="sans-serif" font-size="7" lengthAdjust="spacing" textLength="53.3066" x="204.75" y="906.5537">enum Categories</text><line style="stroke:#181818;stroke-width:0.25;" x1="195.25" x2="317.3564" y1="910.3105" y2="910.3105"/><ellipse cx="200.25" cy="917.7158" fill="#84BE84" rx="1.5" ry="1.5" style="stroke:#038048;stroke-width:0.5;"/><text fill="#000000" font-family="sans-serif" font-size="7" lengthAdjust="spacing" textLength="110.1064" x="204.75" y="919.8643">String getCategory(String category)</text><ellipse cx="200.25" cy="927.0264" fill="#84BE84" rx="1.5" ry="1.5" style="stroke:#038048;stroke-width:0.5;"/><text fill="#000000" font-family="sans-serif" font-size="7" lengthAdjust="spacing" textLength="72.3652" x="204.75" y="929.1748">String[] getCategories()</text></g><!--class Team--><g id="elem_Team"><rect codeLine="89" fill="#F1F1F1" height="135.7266" id="Team" rx="1.25" ry="1.25" style="stroke:#181818;stroke-width:0.25;" width="149.9409" x="406.75" y="559"/><ellipse cx="470.6489" cy="567" fill="#ADD1B2" rx="5.5" ry="5.5" style="stroke:#181818;stroke-width:0.5;"/><path d="M472.0317,564.9375 Q472.1099,564.8281 472.2036,564.7734 Q472.2974,564.7188 472.4067,564.7188 Q472.5942,564.7188 472.7114,564.8516 Q472.8286,564.9766 472.8286,565.2813 L472.8286,566.0078 Q472.8286,566.3125 472.7114,566.4453 Q472.5942,566.5781 472.4067,566.5781 Q472.2349,566.5781 472.1333,566.4766 Q472.0317,566.3828 471.9771,566.125 Q471.9536,565.9453 471.8599,565.8516 Q471.6958,565.6641 471.3911,565.5547 Q471.0864,565.4453 470.7739,565.4453 Q470.3911,565.4453 470.0708,565.6094 Q469.7583,565.7734 469.5083,566.1484 Q469.2661,566.5234 469.2661,567.0391 L469.2661,567.5859 Q469.2661,568.2031 469.7114,568.6172 Q470.1567,569.0234 470.9536,569.0234 Q471.4224,569.0234 471.7505,568.8984 Q471.9458,568.8203 472.1567,568.6016 Q472.2896,568.4688 472.3599,568.4297 Q472.438,568.3906 472.5396,568.3906 Q472.7036,568.3906 472.8286,568.5234 Q472.9614,568.6484 472.9614,568.8203 Q472.9614,568.9922 472.7896,569.1953 Q472.5396,569.4844 472.1411,569.6484 Q471.6021,569.875 470.9536,569.875 Q470.1958,569.875 469.5942,569.5625 Q469.1021,569.3125 468.7583,568.7813 Q468.4146,568.2422 468.4146,567.6016 L468.4146,567.0234 Q468.4146,566.3594 468.7192,565.7891 Q469.0317,565.2109 469.5786,564.9063 Q470.1255,564.5938 470.7427,564.5938 Q471.1099,564.5938 471.4302,564.6797 Q471.7583,564.7578 472.0317,564.9375 Z " fill="#000000"/><text fill="#000000" font-family="sans-serif" font-size="7" lengthAdjust="spacing" textLength="17.8931" x="480.8989" y="569.8984">Team</text><line style="stroke:#181818;stroke-width:0.25;" x1="407.25" x2="556.1909" y1="575" y2="575"/><rect fill="none" height="3" style="stroke:#C82930;stroke-width:0.5;" width="3" x="410.75" y="580.9053"/><text fill="#000000" font-family="sans-serif" font-size="7" lengthAdjust="spacing" textLength="37.7412" x="416.75" y="584.5537">String name</text><rect fill="none" height="3" style="stroke:#C82930;stroke-width:0.5;" width="3" x="410.75" y="590.2158"/><text fill="#000000" font-family="sans-serif" font-size="7" lengthAdjust="spacing" textLength="80.1445" x="416.75" y="593.8643">ArrayList&lt;Player&gt; players</text><rect fill="none" height="3" style="stroke:#C82930;stroke-width:0.5;" width="3" x="410.75" y="599.5264"/><text fill="#000000" font-family="sans-serif" font-size="7" lengthAdjust="spacing" textLength="64.9722" x="416.75" y="603.1748">ArrayList&lt;Stat&gt; stats</text><rect fill="none" height="3" style="stroke:#C82930;stroke-width:0.5;" width="3" x="410.75" y="608.8369"/><text fill="#000000" font-family="sans-serif" font-size="7" lengthAdjust="spacing" textLength="43.5723" x="416.75" y="612.4854">Admin creator</text><line style="stroke:#181818;stroke-width:0.25;" x1="407.25" x2="556.1909" y1="616.2422" y2="616.2422"/><ellipse cx="412.25" cy="623.6475" fill="#84BE84" rx="1.5" ry="1.5" style="stroke:#038048;stroke-width:0.5;"/><text fill="#000000" font-family="sans-serif" font-size="7" lengthAdjust="spacing" textLength="136.9409" x="416.75" y="625.7959">Team(String,Admin) throws ModelException</text><rect fill="#F24D5C" height="3" style="stroke:#C82930;stroke-width:0.5;" width="3" x="410.75" y="631.458"/><text fill="#000000" font-family="sans-serif" font-size="7" lengthAdjust="spacing" textLength="86.7549" x="416.75" y="635.1064">ArrayList&lt;Stat&gt; initialStats()</text><ellipse cx="412.25" cy="642.2686" fill="#84BE84" rx="1.5" ry="1.5" style="stroke:#038048;stroke-width:0.5;"/><text fill="#000000" font-family="sans-serif" font-size="7" lengthAdjust="spacing" textLength="56.8101" x="416.75" y="644.417">void updateStats()</text><ellipse cx="412.25" cy="651.5791" fill="#84BE84" rx="1.5" ry="1.5" style="stroke:#038048;stroke-width:0.5;"/><text fill="#000000" font-family="sans-serif" font-size="7" lengthAdjust="spacing" textLength="53.2964" x="416.75" y="653.7275">String getName()</text><ellipse cx="412.25" cy="660.8896" fill="#84BE84" rx="1.5" ry="1.5" style="stroke:#038048;stroke-width:0.5;"/><text fill="#000000" font-family="sans-serif" font-size="7" lengthAdjust="spacing" textLength="82.8823" x="416.75" y="663.0381">boolean addPlayer(Player)</text><ellipse cx="412.25" cy="670.2002" fill="#84BE84" rx="1.5" ry="1.5" style="stroke:#038048;stroke-width:0.5;"/><text fill="#000000" font-family="sans-serif" font-size="7" lengthAdjust="spacing" textLength="92.9893" x="416.75" y="672.3486">boolean removePlayer(String)</text><ellipse cx="412.25" cy="679.5107" fill="#84BE84" rx="1.5" ry="1.5" style="stroke:#038048;stroke-width:0.5;"/><text fill="#000000" font-family="sans-serif" font-size="7" lengthAdjust="spacing" textLength="72.3789" x="416.75" y="681.6592">boolean equals(Object)</text><ellipse cx="412.25" cy="688.8213" fill="#84BE84" rx="1.5" ry="1.5" style="stroke:#038048;stroke-width:0.5;"/><text fill="#000000" font-family="sans-serif" font-size="7" lengthAdjust="spacing" textLength="45.9136" x="416.75" y="690.9697">int hashCode()</text></g><!--class Participant--><g id="elem_Participant"><rect codeLine="193" fill="#F1F1F1" height="42.6211" id="Participant" rx="1.25" ry="1.25" style="stroke:#181818;stroke-width:0.25;" width="101.3203" x="268.5" y="766.5"/><ellipse cx="300.499" cy="774.5" fill="#B4A7E5" rx="5.5" ry="5.5" style="stroke:#181818;stroke-width:0.5;"/><path d="M300.9756,772.8203 L300.9756,776.1484 L301.835,776.1484 Q302.1396,776.1484 302.2725,776.2656 Q302.4053,776.3828 302.4053,776.5781 Q302.4053,776.7656 302.2725,776.8828 Q302.1396,777 301.835,777 L299.2646,777 Q298.96,777 298.8271,776.8828 Q298.6943,776.7656 298.6943,776.5703 Q298.6943,776.3828 298.8271,776.2656 Q298.96,776.1484 299.2646,776.1484 L300.124,776.1484 L300.124,772.8203 L299.2646,772.8203 Q298.96,772.8203 298.8271,772.7031 Q298.6943,772.5859 298.6943,772.3906 Q298.6943,772.2031 298.8271,772.0859 Q298.96,771.9688 299.2646,771.9688 L301.835,771.9688 Q302.1396,771.9688 302.2725,772.0859 Q302.4053,772.2031 302.4053,772.3906 Q302.4053,772.5859 302.2725,772.7031 Q302.1396,772.8203 301.835,772.8203 L300.9756,772.8203 Z " fill="#000000"/><text fill="#000000" font-family="sans-serif" font-size="7" font-style="italic" lengthAdjust="spacing" textLength="33.0723" x="310.749" y="777.3984">Participant</text><line style="stroke:#181818;stroke-width:0.25;" x1="269" x2="369.3203" y1="782.5" y2="782.5"/><line style="stroke:#181818;stroke-width:0.25;" x1="269" x2="369.3203" y1="786.5" y2="786.5"/><ellipse cx="274" cy="793.9053" fill="#84BE84" rx="1.5" ry="1.5" style="stroke:#038048;stroke-width:0.5;"/><text fill="#000000" font-family="sans-serif" font-size="7" lengthAdjust="spacing" textLength="53.2964" x="278.5" y="796.0537">String getName()</text><ellipse cx="274" cy="803.2158" fill="#84BE84" rx="1.5" ry="1.5" style="stroke:#038048;stroke-width:0.5;"/><text fill="#000000" font-family="sans-serif" font-size="7" lengthAdjust="spacing" textLength="88.3203" x="278.5" y="805.3643">Stat getStat(String category)</text></g><!--class Date--><g id="elem_Date"><rect codeLine="202" fill="#F1F1F1" height="117.1055" id="Date" rx="1.25" ry="1.25" style="stroke:#181818;stroke-width:0.25;" width="97.4409" x="291.5" y="568.25"/><ellipse cx="330.7024" cy="576.25" fill="#ADD1B2" rx="5.5" ry="5.5" style="stroke:#181818;stroke-width:0.5;"/><path d="M332.0852,574.1875 Q332.1633,574.0781 332.2571,574.0234 Q332.3508,573.9688 332.4602,573.9688 Q332.6477,573.9688 332.7649,574.1016 Q332.8821,574.2266 332.8821,574.5313 L332.8821,575.2578 Q332.8821,575.5625 332.7649,575.6953 Q332.6477,575.8281 332.4602,575.8281 Q332.2883,575.8281 332.1868,575.7266 Q332.0852,575.6328 332.0305,575.375 Q332.0071,575.1953 331.9133,575.1016 Q331.7493,574.9141 331.4446,574.8047 Q331.1399,574.6953 330.8274,574.6953 Q330.4446,574.6953 330.1243,574.8594 Q329.8118,575.0234 329.5618,575.3984 Q329.3196,575.7734 329.3196,576.2891 L329.3196,576.8359 Q329.3196,577.4531 329.7649,577.8672 Q330.2102,578.2734 331.0071,578.2734 Q331.4758,578.2734 331.804,578.1484 Q331.9993,578.0703 332.2102,577.8516 Q332.343,577.7188 332.4133,577.6797 Q332.4915,577.6406 332.593,577.6406 Q332.7571,577.6406 332.8821,577.7734 Q333.0149,577.8984 333.0149,578.0703 Q333.0149,578.2422 332.843,578.4453 Q332.593,578.7344 332.1946,578.8984 Q331.6555,579.125 331.0071,579.125 Q330.2493,579.125 329.6477,578.8125 Q329.1555,578.5625 328.8118,578.0313 Q328.468,577.4922 328.468,576.8516 L328.468,576.2734 Q328.468,575.6094 328.7727,575.0391 Q329.0852,574.4609 329.6321,574.1563 Q330.179,573.8438 330.7961,573.8438 Q331.1633,573.8438 331.4836,573.9297 Q331.8118,574.0078 332.0852,574.1875 Z " fill="#000000"/><text fill="#000000" font-family="sans-serif" font-size="7" lengthAdjust="spacing" textLength="14.7861" x="340.9524" y="579.1484">Date</text><line style="stroke:#181818;stroke-width:0.25;" x1="292" x2="388.4409" y1="584.25" y2="584.25"/><rect fill="none" height="3" style="stroke:#C82930;stroke-width:0.5;" width="3" x="295.5" y="590.1553"/><text fill="#000000" font-family="sans-serif" font-size="7" lengthAdjust="spacing" textLength="22.9551" x="301.5" y="593.8037">int year</text><rect fill="none" height="3" style="stroke:#C82930;stroke-width:0.5;" width="3" x="295.5" y="599.4658"/><text fill="#000000" font-family="sans-serif" font-size="7" lengthAdjust="spacing" textLength="28.793" x="301.5" y="603.1143">int month</text><rect fill="none" height="3" style="stroke:#C82930;stroke-width:0.5;" width="3" x="295.5" y="608.7764"/><text fill="#000000" font-family="sans-serif" font-size="7" lengthAdjust="spacing" textLength="20.624" x="301.5" y="612.4248">int day</text><line style="stroke:#181818;stroke-width:0.25;" x1="292" x2="388.4409" y1="616.1816" y2="616.1816"/><ellipse cx="297" cy="623.5869" fill="#84BE84" rx="1.5" ry="1.5" style="stroke:#038048;stroke-width:0.5;"/><text fill="#000000" font-family="sans-serif" font-size="7" lengthAdjust="spacing" textLength="53.2964" x="301.5" y="625.7354">Date(int , int , int)</text><ellipse cx="297" cy="632.8975" fill="#84BE84" rx="1.5" ry="1.5" style="stroke:#038048;stroke-width:0.5;"/><text fill="#000000" font-family="sans-serif" font-size="7" lengthAdjust="spacing" textLength="37.7344" x="301.5" y="635.0459">Date(String)</text><ellipse cx="297" cy="642.208" fill="#84BE84" rx="1.5" ry="1.5" style="stroke:#038048;stroke-width:0.5;"/><text fill="#000000" font-family="sans-serif" font-size="7" lengthAdjust="spacing" textLength="19.4482" x="301.5" y="644.3564">Date()</text><ellipse cx="297" cy="651.5186" fill="#84BE84" rx="1.5" ry="1.5" style="stroke:#038048;stroke-width:0.5;"/><text fill="#000000" font-family="sans-serif" font-size="7" lengthAdjust="spacing" textLength="84.4409" x="301.5" y="653.667">boolean greaterThan(Date)</text><ellipse cx="297" cy="660.8291" fill="#84BE84" rx="1.5" ry="1.5" style="stroke:#038048;stroke-width:0.5;"/><text fill="#000000" font-family="sans-serif" font-size="7" lengthAdjust="spacing" textLength="78.9893" x="301.5" y="662.9775">boolean lowerThan(Date)</text><ellipse cx="297" cy="670.1396" fill="#84BE84" rx="1.5" ry="1.5" style="stroke:#038048;stroke-width:0.5;"/><text fill="#000000" font-family="sans-serif" font-size="7" lengthAdjust="spacing" textLength="77.8101" x="301.5" y="672.2881">boolean isCorrect(String)</text><ellipse cx="297" cy="679.4502" fill="#84BE84" rx="1.5" ry="1.5" style="stroke:#038048;stroke-width:0.5;"/><text fill="#000000" font-family="sans-serif" font-size="7" lengthAdjust="spacing" textLength="49.0171" x="301.5" y="681.5986">String toString()</text></g><!--class User--><g id="elem_User"><rect codeLine="44" fill="#F1F1F1" height="70.5527" id="User" rx="1.25" ry="1.25" style="stroke:#181818;stroke-width:0.25;" width="181.4717" x="824" y="752.5"/><ellipse cx="905.2212" cy="760.5" fill="#ADD1B2" rx="5.5" ry="5.5" style="stroke:#181818;stroke-width:0.5;"/><path d="M906.604,758.4375 Q906.6821,758.3281 906.7759,758.2734 Q906.8696,758.2188 906.979,758.2188 Q907.1665,758.2188 907.2837,758.3516 Q907.4009,758.4766 907.4009,758.7813 L907.4009,759.5078 Q907.4009,759.8125 907.2837,759.9453 Q907.1665,760.0781 906.979,760.0781 Q906.8071,760.0781 906.7056,759.9766 Q906.604,759.8828 906.5493,759.625 Q906.5259,759.4453 906.4321,759.3516 Q906.2681,759.1641 905.9634,759.0547 Q905.6587,758.9453 905.3462,758.9453 Q904.9634,758.9453 904.6431,759.1094 Q904.3306,759.2734 904.0806,759.6484 Q903.8384,760.0234 903.8384,760.5391 L903.8384,761.0859 Q903.8384,761.7031 904.2837,762.1172 Q904.729,762.5234 905.5259,762.5234 Q905.9946,762.5234 906.3228,762.3984 Q906.5181,762.3203 906.729,762.1016 Q906.8618,761.9688 906.9321,761.9297 Q907.0103,761.8906 907.1118,761.8906 Q907.2759,761.8906 907.4009,762.0234 Q907.5337,762.1484 907.5337,762.3203 Q907.5337,762.4922 907.3618,762.6953 Q907.1118,762.9844 906.7134,763.1484 Q906.1743,763.375 905.5259,763.375 Q904.7681,763.375 904.1665,763.0625 Q903.6743,762.8125 903.3306,762.2813 Q902.9868,761.7422 902.9868,761.1016 L902.9868,760.5234 Q902.9868,759.8594 903.2915,759.2891 Q903.604,758.7109 904.1509,758.4063 Q904.6978,758.0938 905.3149,758.0938 Q905.6821,758.0938 906.0024,758.1797 Q906.3306,758.2578 906.604,758.4375 Z " fill="#000000"/><text fill="#000000" font-family="sans-serif" font-size="7" lengthAdjust="spacing" textLength="14.7793" x="915.4712" y="763.3984">User</text><line style="stroke:#181818;stroke-width:0.25;" x1="824.5" x2="1004.9717" y1="768.5" y2="768.5"/><rect fill="none" height="3" style="stroke:#C82930;stroke-width:0.5;" width="3" x="828" y="774.4053"/><text fill="#000000" font-family="sans-serif" font-size="7" lengthAdjust="spacing" textLength="51.3584" x="834" y="778.0537">String username</text><rect fill="none" height="3" style="stroke:#C82930;stroke-width:0.5;" width="3" x="828" y="783.7158"/><text fill="#000000" font-family="sans-serif" font-size="7" lengthAdjust="spacing" textLength="50.1895" x="834" y="787.3643">String password</text><line style="stroke:#181818;stroke-width:0.25;" x1="824.5" x2="1004.9717" y1="791.1211" y2="791.1211"/><ellipse cx="829.5" cy="798.5264" fill="#84BE84" rx="1.5" ry="1.5" style="stroke:#038048;stroke-width:0.5;"/><text fill="#000000" font-family="sans-serif" font-size="7" lengthAdjust="spacing" textLength="168.4717" x="834" y="800.6748">void usernameValidate(String) throws ModelException</text><ellipse cx="829.5" cy="807.8369" fill="#84BE84" rx="1.5" ry="1.5" style="stroke:#038048;stroke-width:0.5;"/><text fill="#000000" font-family="sans-serif" font-size="7" lengthAdjust="spacing" textLength="72.3789" x="834" y="809.9854">boolean equals(Object)</text><ellipse cx="829.5" cy="817.1475" fill="#84BE84" rx="1.5" ry="1.5" style="stroke:#038048;stroke-width:0.5;"/><text fill="#000000" font-family="sans-serif" font-size="7" lengthAdjust="spacing" textLength="45.9136" x="834" y="819.2959">int hashCode()</text></g><!--class Validations--><g id="elem_Validations"><rect codeLine="234" fill="#F1F1F1" height="61.2422" id="Validations" rx="1.25" ry="1.25" style="stroke:#181818;stroke-width:0.25;" width="179.1099" x="387.75" y="757.25"/><ellipse cx="458.0576" cy="765.25" fill="#ADD1B2" rx="5.5" ry="5.5" style="stroke:#181818;stroke-width:0.5;"/><path d="M459.4404,763.1875 Q459.5186,763.0781 459.6123,763.0234 Q459.7061,762.9688 459.8154,762.9688 Q460.0029,762.9688 460.1201,763.1016 Q460.2373,763.2266 460.2373,763.5313 L460.2373,764.2578 Q460.2373,764.5625 460.1201,764.6953 Q460.0029,764.8281 459.8154,764.8281 Q459.6436,764.8281 459.542,764.7266 Q459.4404,764.6328 459.3857,764.375 Q459.3623,764.1953 459.2686,764.1016 Q459.1045,763.9141 458.7998,763.8047 Q458.4951,763.6953 458.1826,763.6953 Q457.7998,763.6953 457.4795,763.8594 Q457.167,764.0234 456.917,764.3984 Q456.6748,764.7734 456.6748,765.2891 L456.6748,765.8359 Q456.6748,766.4531 457.1201,766.8672 Q457.5654,767.2734 458.3623,767.2734 Q458.8311,767.2734 459.1592,767.1484 Q459.3545,767.0703 459.5654,766.8516 Q459.6982,766.7188 459.7686,766.6797 Q459.8467,766.6406 459.9482,766.6406 Q460.1123,766.6406 460.2373,766.7734 Q460.3701,766.8984 460.3701,767.0703 Q460.3701,767.2422 460.1982,767.4453 Q459.9482,767.7344 459.5498,767.8984 Q459.0107,768.125 458.3623,768.125 Q457.6045,768.125 457.0029,767.8125 Q456.5107,767.5625 456.167,767.0313 Q455.8232,766.4922 455.8232,765.8516 L455.8232,765.2734 Q455.8232,764.6094 456.1279,764.0391 Q456.4404,763.4609 456.9873,763.1563 Q457.5342,762.8438 458.1514,762.8438 Q458.5186,762.8438 458.8389,762.9297 Q459.167,763.0078 459.4404,763.1875 Z " fill="#000000"/><text fill="#000000" font-family="sans-serif" font-size="7" lengthAdjust="spacing" textLength="34.2446" x="468.3076" y="768.1484">Validations</text><line style="stroke:#181818;stroke-width:0.25;" x1="388.25" x2="566.3599" y1="773.25" y2="773.25"/><line style="stroke:#181818;stroke-width:0.25;" x1="388.25" x2="566.3599" y1="777.25" y2="777.25"/><ellipse cx="393.25" cy="784.6553" fill="#84BE84" rx="1.5" ry="1.5" style="stroke:#038048;stroke-width:0.5;"/><text fill="#000000" font-family="sans-serif" font-size="7" lengthAdjust="spacing" textLength="164.165" x="397.75" y="786.8037">isMinimum(String, String, int) throws ModelException</text><ellipse cx="393.25" cy="793.9658" fill="#84BE84" rx="1.5" ry="1.5" style="stroke:#038048;stroke-width:0.5;"/><text fill="#000000" font-family="sans-serif" font-size="7" lengthAdjust="spacing" textLength="147.4443" x="397.75" y="796.1143">isNotNull(String, String) throws ModelException</text><ellipse cx="393.25" cy="803.2764" fill="#84BE84" rx="1.5" ry="1.5" style="stroke:#038048;stroke-width:0.5;"/><text fill="#000000" font-family="sans-serif" font-size="7" lengthAdjust="spacing" textLength="166.1099" x="397.75" y="805.4248">isMaximum(String, String, int) throws ModelException</text><ellipse cx="393.25" cy="812.5869" fill="#84BE84" rx="1.5" ry="1.5" style="stroke:#038048;stroke-width:0.5;"/><text fill="#000000" font-family="sans-serif" font-size="7" lengthAdjust="spacing" textLength="142.7788" x="397.75" y="814.7354">isString(String, String) throws ModelException</text></g><!--class ModelException--><g id="elem_ModelException"><rect codeLine="198" fill="#F1F1F1" height="33.3105" id="ModelException" rx="1.25" ry="1.25" style="stroke:#181818;stroke-width:0.25;" width="116.103" x="584.25" y="771"/><ellipse cx="615.2732" cy="779" fill="#ADD1B2" rx="5.5" ry="5.5" style="stroke:#181818;stroke-width:0.5;"/><path d="M616.656,776.9375 Q616.7341,776.8281 616.8279,776.7734 Q616.9216,776.7188 617.031,776.7188 Q617.2185,776.7188 617.3357,776.8516 Q617.4529,776.9766 617.4529,777.2813 L617.4529,778.0078 Q617.4529,778.3125 617.3357,778.4453 Q617.2185,778.5781 617.031,778.5781 Q616.8591,778.5781 616.7576,778.4766 Q616.656,778.3828 616.6013,778.125 Q616.5779,777.9453 616.4841,777.8516 Q616.3201,777.6641 616.0154,777.5547 Q615.7107,777.4453 615.3982,777.4453 Q615.0154,777.4453 614.6951,777.6094 Q614.3826,777.7734 614.1326,778.1484 Q613.8904,778.5234 613.8904,779.0391 L613.8904,779.5859 Q613.8904,780.2031 614.3357,780.6172 Q614.781,781.0234 615.5779,781.0234 Q616.0466,781.0234 616.3748,780.8984 Q616.5701,780.8203 616.781,780.6016 Q616.9138,780.4688 616.9841,780.4297 Q617.0623,780.3906 617.1638,780.3906 Q617.3279,780.3906 617.4529,780.5234 Q617.5857,780.6484 617.5857,780.8203 Q617.5857,780.9922 617.4138,781.1953 Q617.1638,781.4844 616.7654,781.6484 Q616.2263,781.875 615.5779,781.875 Q614.8201,781.875 614.2185,781.5625 Q613.7263,781.3125 613.3826,780.7813 Q613.0388,780.2422 613.0388,779.6016 L613.0388,779.0234 Q613.0388,778.3594 613.3435,777.7891 Q613.656,777.2109 614.2029,776.9063 Q614.7498,776.5938 615.3669,776.5938 Q615.7341,776.5938 616.0544,776.6797 Q616.3826,776.7578 616.656,776.9375 Z " fill="#000000"/><text fill="#000000" font-family="sans-serif" font-size="7" lengthAdjust="spacing" textLength="49.8066" x="625.5232" y="781.8984">ModelException</text><line style="stroke:#181818;stroke-width:0.25;" x1="584.75" x2="699.853" y1="787" y2="787"/><line style="stroke:#181818;stroke-width:0.25;" x1="584.75" x2="699.853" y1="791" y2="791"/><ellipse cx="589.75" cy="798.4053" fill="#84BE84" rx="1.5" ry="1.5" style="stroke:#038048;stroke-width:0.5;"/><text fill="#000000" font-family="sans-serif" font-size="7" lengthAdjust="spacing" textLength="103.103" x="594.25" y="800.5537">ModelException(String message)</text></g><!--link App to I_O--><g id="link_App_I_O"><path codeLine="2" d="M572.75,46.045 C572.75,54.87 572.75,62.515 572.75,72.94 " fill="none" id="App-to-I_O" style="stroke:#181818;stroke-width:0.5;stroke-dasharray:7.0,7.0;"/><polygon fill="#181818" points="572.75,75.94,574.75,71.44,572.75,73.44,570.75,71.44,572.75,75.94" style="stroke:#181818;stroke-width:0.5;"/></g><!--link I_O to TournamentsController--><g id="link_I_O_TournamentsController"><path codeLine="3" d="M502.18,160.975 C484.845,171.515 466.585,183.24 450.25,195 C374.635,249.445 296.584,316.6771 239.624,367.9871 " fill="none" id="I_O-to-TournamentsController" style="stroke:#181818;stroke-width:0.5;stroke-dasharray:7.0,7.0;"/><polygon fill="#181818" points="237.395,369.995,242.0771,368.4692,239.2525,368.3218,239.3999,365.4972,237.395,369.995" style="stroke:#181818;stroke-width:0.5;"/></g><!--link I_O to TeamsController--><g id="link_I_O_TeamsController"><path codeLine="4" d="M530.785,165.14 C523.245,174.525 515.98,184.715 510.25,195 C475.575,257.255 453.7218,333.8297 441.5518,385.5747 " fill="none" id="I_O-to-TeamsController" style="stroke:#181818;stroke-width:0.5;stroke-dasharray:7.0,7.0;"/><polygon fill="#181818" points="440.865,388.495,443.8421,384.5724,441.4374,386.0614,439.9484,383.6566,440.865,388.495" style="stroke:#181818;stroke-width:0.5;"/></g><!--link I_O to PlayersController--><g id="link_I_O_PlayersController"><path codeLine="5" d="M615.81,165.135 C623.165,174.445 630.085,184.61 635.25,195 C666.155,257.19 679.6981,333.7207 685.8131,385.4857 " fill="none" id="I_O-to-PlayersController" style="stroke:#181818;stroke-width:0.5;stroke-dasharray:7.0,7.0;"/><polygon fill="#181818" points="686.165,388.465,687.6233,383.7614,685.8717,385.9823,683.6509,384.2307,686.165,388.465" style="stroke:#181818;stroke-width:0.5;"/></g><!--link I_O to AdminsController--><g id="link_I_O_AdminsController"><path codeLine="6" d="M633.14,165.06 C645.495,174.63 658.235,184.92 669.75,195 C752.38,267.365 768.195,290.755 844.25,370 C854.205,380.375 862.7992,389.5415 872.5692,400.1165 " fill="none" id="I_O-to-AdminsController" style="stroke:#181818;stroke-width:0.5;stroke-dasharray:7.0,7.0;"/><polygon fill="#181818" points="874.605,402.32,873.0203,397.6575,872.9085,400.4837,870.0823,400.3719,874.605,402.32" style="stroke:#181818;stroke-width:0.5;"/></g><!--link I_O to Authentication--><g id="link_I_O_Authentication"><path codeLine="7" d="M572.75,165.005 C572.75,174.45 572.75,181.67 572.75,191.865 " fill="none" id="I_O-to-Authentication" style="stroke:#181818;stroke-width:0.5;stroke-dasharray:7.0,7.0;"/><polygon fill="#181818" points="572.75,194.865,574.75,190.365,572.75,192.365,570.75,190.365,572.75,194.865" style="stroke:#181818;stroke-width:0.5;"/></g><!--reverse link Authentication to AdminsController--><g id="link_Authentication_AdminsController"><path codeLine="8" d="M629.2297,280.9753 C686.6247,295.8003 775.79,323.94 844.25,370 C857.38,378.835 869.745,390.75 880.17,402.345 " fill="none" id="Authentication-backto-AdminsController" style="stroke:#181818;stroke-width:0.5;stroke-dasharray:7.0,7.0;"/><polygon fill="#181818" points="626.325,280.225,630.1818,283.2868,628.7456,280.8502,631.1822,279.414,626.325,280.225" style="stroke:#181818;stroke-width:0.5;"/></g><!--reverse link Authentication to PlayersController--><g id="link_Authentication_PlayersController"><path codeLine="9" d="M623.2788,342.5129 C634.2788,358.7329 644.085,373.185 654.465,388.49 " fill="none" id="Authentication-backto-PlayersController" style="stroke:#181818;stroke-width:0.5;stroke-dasharray:7.0,7.0;"/><polygon fill="#181818" points="621.595,340.03,622.4655,344.8769,622.9982,342.0991,625.776,342.6318,621.595,340.03" style="stroke:#181818;stroke-width:0.5;"/></g><!--reverse link Authentication to TeamsController--><g id="link_Authentication_TeamsController"><path codeLine="10" d="M517.1903,335.6028 C502.2503,353.7828 488.105,370.99 473.79,388.415 " fill="none" id="Authentication-backto-TeamsController" style="stroke:#181818;stroke-width:0.5;stroke-dasharray:7.0,7.0;"/><polygon fill="#181818" points="519.095,333.285,514.6928,335.4919,517.5077,335.2165,517.7831,338.0315,519.095,333.285" style="stroke:#181818;stroke-width:0.5;"/></g><!--reverse link Authentication to TournamentsController--><g id="link_Authentication_TournamentsController"><path codeLine="11" d="M516.3879,290.3 C465.4279,310.595 389.49,341.19 321.75,370 C318.99,371.175 316.2,372.365 313.4,373.565 " fill="none" id="Authentication-backto-TournamentsController" style="stroke:#181818;stroke-width:0.5;stroke-dasharray:7.0,7.0;"/><polygon fill="#181818" points="519.175,289.19,514.2544,288.9969,516.8524,290.115,515.7343,292.713,519.175,289.19" style="stroke:#181818;stroke-width:0.5;"/></g><!--link TeamsController to PlayersController--><g id="link_TeamsController_PlayersController"><path codeLine="12" d="M531.77,442.5 C537.57,442.5 537.37,442.5 543.17,442.5 " fill="none" id="TeamsController-PlayersController" style="stroke:#181818;stroke-width:0.5;stroke-dasharray:7.0,7.0;"/><polygon fill="#181818" points="528.77,442.5,533.27,444.5,531.27,442.5,533.27,440.5,528.77,442.5" style="stroke:#181818;stroke-width:0.5;"/><polygon fill="#181818" points="546.17,442.5,541.67,440.5,543.67,442.5,541.67,444.5,546.17,442.5" style="stroke:#181818;stroke-width:0.5;"/></g><!--link PlayersController to AdminsController--><g id="link_PlayersController_AdminsController"><path codeLine="13" d="M838.34,442.5 C844.135,442.5 843.925,442.5 849.72,442.5 " fill="none" id="PlayersController-AdminsController" style="stroke:#181818;stroke-width:0.5;stroke-dasharray:7.0,7.0;"/><polygon fill="#181818" points="835.34,442.5,839.84,444.5,837.84,442.5,839.84,440.5,835.34,442.5" style="stroke:#181818;stroke-width:0.5;"/><polygon fill="#181818" points="852.72,442.5,848.22,440.5,850.22,442.5,848.22,444.5,852.72,442.5" style="stroke:#181818;stroke-width:0.5;"/></g><!--link TournamentsController to TeamsController--><g id="link_TournamentsController_TeamsController"><path codeLine="14" d="M316.34,442.5 C322.1,442.5 321.86,442.5 327.62,442.5 " fill="none" id="TournamentsController-TeamsController" style="stroke:#181818;stroke-width:0.5;stroke-dasharray:7.0,7.0;"/><polygon fill="#181818" points="313.34,442.5,317.84,444.5,315.84,442.5,317.84,440.5,313.34,442.5" style="stroke:#181818;stroke-width:0.5;"/><polygon fill="#181818" points="330.62,442.5,326.12,440.5,328.12,442.5,326.12,444.5,330.62,442.5" style="stroke:#181818;stroke-width:0.5;"/></g><!--reverse link TournamentsController to Tournament--><g id="link_TournamentsController_Tournament"><path codeLine="15" d="M153.1497,521.0087 C152.3197,530.8287 151.97,534.99 151.125,544.96 " fill="none" id="TournamentsController-backto-Tournament" style="stroke:#181818;stroke-width:0.5;"/><polygon fill="#181818" points="153.655,515.03,151.4094,517.8509,153.1497,521.0087,155.3952,518.1878,153.655,515.03" style="stroke:#181818;stroke-width:0.5;"/></g><!--reverse link Tournament to MatchmakingController--><g id="link_Tournament_MatchmakingController"><path codeLine="16" d="M127.3811,714.4759 C117.3111,766.5609 105.825,825.95 97.895,866.955 " fill="none" id="Tournament-backto-MatchmakingController" style="stroke:#181818;stroke-width:0.5;"/><polygon fill="none" points="128.52,708.585,125.9869,711.1508,127.3811,714.4759,129.9142,711.9101,128.52,708.585" style="stroke:#181818;stroke-width:0.5;"/></g><!--reverse link MatchmakingController to Matchmaking--><g id="link_MatchmakingController_Matchmaking"><path codeLine="17" d="M147.9945,950.694 C161.4695,960.774 170.795,967.75 183.055,976.92 " fill="none" id="MatchmakingController-backto-Matchmaking" style="stroke:#181818;stroke-width:0.5;"/><polygon fill="#181818" points="143.19,947.1,144.3942,950.4985,147.9945,950.694,146.7902,947.2955,143.19,947.1" style="stroke:#181818;stroke-width:0.5;"/></g><!--reverse link AdminsController to Admin--><g id="link_AdminsController_Admin"><path codeLine="18" d="M910.75,488.535 C910.75,528.205 910.75,581.375 910.75,609.82 " fill="none" id="AdminsController-backto-Admin" style="stroke:#181818;stroke-width:0.5;"/><polygon fill="#181818" points="910.75,482.535,908.75,485.535,910.75,488.535,912.75,485.535,910.75,482.535" style="stroke:#181818;stroke-width:0.5;"/></g><!--reverse link PlayersController to Player--><g id="link_PlayersController_Player"><path codeLine="19" d="M690.75,502.745 C690.75,520.695 690.75,535.005 690.75,554.125 " fill="none" id="PlayersController-backto-Player" style="stroke:#181818;stroke-width:0.5;"/><polygon fill="#181818" points="690.75,496.745,688.75,499.745,690.75,502.745,692.75,499.745,690.75,496.745" style="stroke:#181818;stroke-width:0.5;"/></g><!--reverse link Player to Stat--><g id="link_Player_Stat"><path codeLine="20" d="M725.394,704.7725 C731.289,717.9575 734.86,725.96 740.365,738.28 " fill="none" id="Player-backto-Stat" style="stroke:#181818;stroke-width:0.5;"/><polygon fill="none" points="722.945,699.295,722.3437,702.8501,725.394,704.7725,725.9953,701.2174,722.945,699.295" style="stroke:#181818;stroke-width:0.5;"/></g><!--link Stat to Categories--><g id="link_Stat_Categories"><path codeLine="21" d="M717.875,832.185 C715.06,833.965 712.18,835.59 709.25,837 C641.21,869.695 428.1485,891.8428 320.8785,901.2528 " fill="none" id="Stat-to-Categories" style="stroke:#181818;stroke-width:0.5;stroke-dasharray:7.0,7.0;"/><polygon fill="#181818" points="317.89,901.515,322.5476,903.1141,320.3804,901.2965,322.198,899.1294,317.89,901.515" style="stroke:#181818;stroke-width:0.5;"/></g><!--reverse link TeamsController to Team--><g id="link_TeamsController_Team"><path codeLine="22" d="M446.6382,502.517 C452.1682,522.002 456.845,538.485 462.665,558.99 " fill="none" id="TeamsController-backto-Team" style="stroke:#181818;stroke-width:0.5;"/><polygon fill="#181818" points="445,496.745,443.8951,500.1771,446.6382,502.517,447.7431,499.085,445,496.745" style="stroke:#181818;stroke-width:0.5;"/></g><!--reverse link Team to Player--><g id="link_Team_Player"><path codeLine="23" d="M562.86,626.75 C568.655,626.75 568.455,626.75 574.25,626.75 " fill="none" id="Team-backto-Player" style="stroke:#181818;stroke-width:0.5;"/><polygon fill="none" points="556.86,626.75,559.86,628.75,562.86,626.75,559.86,624.75,556.86,626.75" style="stroke:#181818;stroke-width:0.5;"/></g><!--reverse link Tournament to Participant--><g id="link_Tournament_Participant"><path codeLine="24" d="M237.5883,712.5885 C261.0833,734.0685 280.02,751.38 296.465,766.415 " fill="none" id="Tournament-backto-Participant" style="stroke:#181818;stroke-width:0.5;"/><polygon fill="none" points="233.16,708.54,234.0246,712.0403,237.5883,712.5885,236.7236,709.0882,233.16,708.54" style="stroke:#181818;stroke-width:0.5;"/></g><!--reverse link Date to Tournament--><g id="link_Date_Tournament"><path codeLine="25" d="M288.485,626.75 C282.665,626.75 279.845,626.75 274.025,626.75 " fill="none" id="Date-backto-Tournament" style="stroke:#181818;stroke-width:0.5;"/><polygon fill="#181818" points="291.485,626.75,286.985,624.75,288.985,626.75,286.985,628.75,291.485,626.75" style="stroke:#181818;stroke-width:0.5;"/></g><!--link Tournament to Categories--><g id="link_Tournament_Categories"><path codeLine="26" d="M176.87,708.585 C200.345,767.11 229.3834,839.5055 244.8984,878.1955 " fill="none" id="Tournament-to-Categories" style="stroke:#181818;stroke-width:0.5;stroke-dasharray:7.0,7.0;"/><polygon fill="#181818" points="246.015,880.98,246.1964,876.0589,245.0845,878.6596,242.4838,877.5477,246.015,880.98" style="stroke:#181818;stroke-width:0.5;"/></g><!--link Team to Participant--><g id="link_Team_Participant"><path codeLine="27" d="M413.305,694.64 C387.025,720.52 365.323,741.8854 346.748,760.1754 " fill="none" id="Team-to-Participant" style="stroke:#181818;stroke-width:0.5;stroke-dasharray:7.0,7.0;"/><polygon fill="none" points="340.335,766.49,348.8528,762.3131,344.6431,758.0378,340.335,766.49" style="stroke:#181818;stroke-width:0.5;"/></g><!--link Player to Participant--><g id="link_Player_Participant"><path codeLine="28" d="M586.11,699.325 C579.2,702.72 572.215,705.82 565.25,708.5 C486.885,738.625 455.305,704.04 378.75,738.5 C364.015,745.13 356.5027,750.253 345.7327,760.278 " fill="none" id="Player-to-Participant" style="stroke:#181818;stroke-width:0.5;stroke-dasharray:7.0,7.0;"/><polygon fill="none" points="339.145,766.41,347.7767,762.4739,343.6887,758.0821,339.145,766.41" style="stroke:#181818;stroke-width:0.5;"/></g><!--link Player to User--><g id="link_Player_User"><path codeLine="29" d="M791.61,699.295 C817.505,717.79 836.8819,731.6282 858.7669,747.2632 " fill="none" id="Player-to-User" style="stroke:#181818;stroke-width:0.5;"/><polygon fill="none" points="866.09,752.495,860.5108,744.8222,857.0229,749.7043,866.09,752.495" style="stroke:#181818;stroke-width:0.5;"/></g><!--link Admin to User--><g id="link_Admin_User"><path codeLine="30" d="M911.16,643.62 C911.795,669.07 912.8095,709.6878 913.6545,743.4028 " fill="none" id="Admin-to-User" style="stroke:#181818;stroke-width:0.5;"/><polygon fill="none" points="913.88,752.4,916.6536,743.3277,910.6554,743.478,913.88,752.4" style="stroke:#181818;stroke-width:0.5;"/></g><!--link Participant to Matchmaking--><g id="link_Participant_Matchmaking"><path codeLine="31" d="M327.07,809.115 C337.72,841.33 352.635,903.96 326.25,947 C316.345,963.16 305.4889,972.1569 288.5239,980.4619 " fill="none" id="Participant-to-Matchmaking" style="stroke:#181818;stroke-width:0.5;"/><polygon fill="#181818" points="283.135,983.1,286.7088,983.5773,288.5239,980.4619,284.9501,979.9847,283.135,983.1" style="stroke:#181818;stroke-width:0.5;"/></g><!--link Player to Validations--><g id="link_Player_Validations"><path codeLine="32" d="M594.62,699.295 C567.39,719.7 541.6305,739.0006 519.7255,755.4206 " fill="none" id="Player-to-Validations" style="stroke:#181818;stroke-width:0.5;stroke-dasharray:7.0,7.0;"/><polygon fill="#181818" points="517.325,757.22,522.1253,756.1212,519.3254,755.7205,519.7261,752.9206,517.325,757.22" style="stroke:#181818;stroke-width:0.5;"/></g><!--link Admin to Validations--><g id="link_Admin_Validations"><path codeLine="33" d="M897.305,643.555 C880.52,662.66 849.88,693.605 816.25,708.5 C717.56,752.215 678.595,707.355 575.25,738.5 C559.83,743.145 546.567,748.7258 532.127,755.8958 " fill="none" id="Admin-to-Validations" style="stroke:#181818;stroke-width:0.5;stroke-dasharray:7.0,7.0;"/><polygon fill="#181818" points="529.44,757.23,534.36,757.02,531.6792,756.1182,532.581,753.4374,529.44,757.23" style="stroke:#181818;stroke-width:0.5;"/></g><!--link Team to Validations--><g id="link_Team_Validations"><path codeLine="34" d="M479.855,694.64 C479.24,716.42 478.6799,736.4762 478.1799,754.1362 " fill="none" id="Team-to-Validations" style="stroke:#181818;stroke-width:0.5;stroke-dasharray:7.0,7.0;"/><polygon fill="#181818" points="478.095,757.135,480.2216,752.6934,478.1658,754.636,476.2232,752.5802,478.095,757.135" style="stroke:#181818;stroke-width:0.5;"/></g><!--link Tournament to Validations--><g id="link_Tournament_Validations"><path codeLine="35" d="M274.105,704.56 C277,705.915 279.88,707.23 282.75,708.5 C323.625,726.595 337.26,721.87 378.75,738.5 C392.475,744 404.225,749.322 417.69,755.907 " fill="none" id="Tournament-to-Validations" style="stroke:#181818;stroke-width:0.5;stroke-dasharray:7.0,7.0;"/><polygon fill="#181818" points="420.385,757.225,417.2212,753.4514,418.1392,756.1267,415.4639,757.0447,420.385,757.225" style="stroke:#181818;stroke-width:0.5;"/></g><!--link Validations to ModelException--><g id="link_Validations_ModelException"><path codeLine="36" d="M566.84,787.75 C572.635,787.75 575.425,787.75 581.22,787.75 " fill="none" id="Validations-to-ModelException" style="stroke:#181818;stroke-width:0.5;stroke-dasharray:7.0,7.0;"/><polygon fill="#181818" points="584.22,787.75,579.72,785.75,581.72,787.75,579.72,789.75,584.22,787.75" style="stroke:#181818;stroke-width:0.5;"/></g><!--SRC=[fHZPRjiuyDrVmKUx6-SB0WD6sWSNkP1a2ooAec0arkPM4brIIkhDzjztU4d3GxBJ3H1RcllYpD3h_PwSdw_8vklj3FxX6LuUHISRMhEcLPUYQQMeAYOHcj4wYxYhw879B6fTrhn9C03lsXteuGLjkMXcuIkvE3zFEJCqgU8CKMnsZYJhUCG8b3bN4uYXIwpFgZ2aiNrvodVB9J8J4H41c6lQ5hkQVkVD5adAGeqaX9d5fXe20ypufd4Mwf16_KDBsvd-C3LrILks5P8pbOJGU04mWm1MBojmXznH2UdXUmgElWTXv6BCzumwWFsx2aGuGyVWooN0_rIwChJJw1qH0tJvBWXRBtL5Fj6AbwQQb9CHGvrX4J3q0wFGipujrw9arOUV1TkRqpAR5HLLYgpt-zSPWRy_U0Ds0azhUEOB2wqfry-_FBrsoZBeb4dmWdG0qZQ4q3rGlmXPMZ7aMV2oftIciRcbNP1s9yMBYcsqd4z2L8msXFteQANcjqz_iw9rrX4EZk-esbq29pRJHZOoD3LITHdBouOxm5fAUhZYghtGXRaY2ZwLnvaa5PBHLaXdZTNgl3gR-ZBSKtulRSJ0bY6F9uGhjHdIsa9QzOloIRMorKwy6F17DUGxGbsgvnxZ4z7jTUuqsdlwJAkEURBOW2rhG-KkpAsm3pXj9YolNf1-SIh8sRJllOJX9BlaiwQhyVasifrGCCrX3bvFuTuNcF3p5qGAGh39shUephmC1or5zrGnOeBKXw0FNXGLR5AOaiHMZtRoWVEJLf6mMQYbEY47ki-C7vmXkxROLsHl6_nl7XcjRNxweJYzkeSgJIeF8dK37YM5JSlIdM3x5UCbgyKp2mxvulyqAJGANjFm3eC3OZoyk0h6p7D4UuR74udDuygpiH9puVJt4sMy2Cn0XSpALZzX86jA17ASe7hRnPrtBsIRFpRtjFd-nd2CR2-aHiFMrLllNjzPZENs4rvwQFHmsf3I9JGO5uOuMqpJn2F-Gm53a4fHytyOrZTK-ZWZ9jUHXa9u6rDFdWyvKEFIZ9ixskHUSLl06rxNy1yTspHGOKsHDXv3lu9GQxOH6ODFfkU0KNYQ14WL6k_LXjq4yce5s1uLBnePhzAzzuXR-NwQYEdjIXNah7ShfixXLDyoJJbiRRxmnx-Fzkj1Fg1OEzqwzT4HN1TOh2SSNPvUJnQ86o_K0smhlT2Xt88xMbziuSqjcnEzuvAYan88pH8_W1yFUsRMMFsG5JbKNgWfbnplIYMscs7J8M5yJFq1nMtNpjD-VYMsMrPkcioCy_RsAEENNZ06rm1da6PBwXsqmT9_w_VNcnkOALVhlpxSvuP4flBpbyyZrJymhM0hwGLCYUpzoYkS2hWjnsGMvCdkg6gHYenQoCEHHkud8Gz5-JKCWfu_aOc9nqxb6-VL46hKjA_deqFm5FRr_1ZnkYmZTyPfxysSJCY3TJLNXD6l1iVA3yYXy3HJNi2GzKZmL9cv7A8Lz-qz4t5Z4w3aDaq6rmSGK2U46QZ60mpDcCblj61uftoTtgNDBpZkofVUgORLDt3SomoXdhrcIj4jGznwLVE9rilrWL69Ncl8pWwzb_JW56Z6kGQTaVvpWN5Xc0meZjdM95K-xcWprmHfCt-Pm7Ae7UY-nSZrBtSXstozzSv-umsjo4D1cmPAJnLuHBYha6xYqACcAypU3FN-ddW7HwuBLnyDSRjFCD4I8ZVTexcNxhtFdBsivRR3BV3p5vUBtEKeipBs1nUHhP9rV-HQC79E-wlHw7qgySKiuGDVVe4-_HA60cgl1oENF1Gcz2kVFqKW7sgXxkfaPEW8JnO6LpUYlUcgAcu7HxYkwS_VLUZg_JHzlsR_0G00]--></g></svg>